  0
SECTION
  2
HEADER
  9
$ANGBASE
  50
0.0
  9
$ANGDIR
  70
  1
  9
$MEASUREMENT
  70
0
  0
ENDSEC
  0
SECTION
  2
TABLES
  0
TABLE
  2
LTYPE
  70
1
  0
LTYPE
  2
CONTINUOUS
  70
0
  3
Solid line
  72
65
  73
0
  40
0.0
  0
ENDTAB
  0
TABLE
  2
STYLE
  70
4
  0
STYLE
  2
KICAD
  70
0
  40
0
  41
1
  42
1
  50
0
  71
0
  3
isocp.shx
  0
STYLE
  2
KICADB
  70
0
  40
0
  41
1
  42
1
  50
0
  71
0
  3
isocp.shx
  0
STYLE
  2
KICADI
  70
0
  40
0
  41
1
  42
1
  50
15
  71
0
  3
isocp.shx
  0
STYLE
  2
KICADBI
  70
0
  40
0
  41
1
  42
1
  50
15
  71
0
  3
isocp.shx
  0
ENDTAB
  0
TABLE
  2
LAYER
  70
30
  0
LAYER
  2
BLACK
  70
0
  62
7
  6
CONTINUOUS
  0
LAYER
  2
GRAY1
  70
0
  62
251
  6
CONTINUOUS
  0
LAYER
  2
GRAY2
  70
0
  62
8
  6
CONTINUOUS
  0
LAYER
  2
GRAY3
  70
0
  62
9
  6
CONTINUOUS
  0
LAYER
  2
WHITE
  70
0
  62
7
  6
CONTINUOUS
  0
LAYER
  2
LYELLOW
  70
0
  62
51
  6
CONTINUOUS
  0
LAYER
  2
BLUE1
  70
0
  62
178
  6
CONTINUOUS
  0
LAYER
  2
GREEN1
  70
0
  62
98
  6
CONTINUOUS
  0
LAYER
  2
CYAN1
  70
0
  62
138
  6
CONTINUOUS
  0
LAYER
  2
RED1
  70
0
  62
18
  6
CONTINUOUS
  0
LAYER
  2
MAGENTA1
  70
0
  62
228
  6
CONTINUOUS
  0
LAYER
  2
BROWN1
  70
0
  62
58
  6
CONTINUOUS
  0
LAYER
  2
BLUE2
  70
0
  62
5
  6
CONTINUOUS
  0
LAYER
  2
GREEN2
  70
0
  62
3
  6
CONTINUOUS
  0
LAYER
  2
CYAN2
  70
0
  62
4
  6
CONTINUOUS
  0
LAYER
  2
RED2
  70
0
  62
1
  6
CONTINUOUS
  0
LAYER
  2
MAGENTA2
  70
0
  62
6
  6
CONTINUOUS
  0
LAYER
  2
BROWN2
  70
0
  62
54
  6
CONTINUOUS
  0
LAYER
  2
BLUE3
  70
0
  62
171
  6
CONTINUOUS
  0
LAYER
  2
GREEN3
  70
0
  62
91
  6
CONTINUOUS
  0
LAYER
  2
CYAN3
  70
0
  62
131
  6
CONTINUOUS
  0
LAYER
  2
RED3
  70
0
  62
11
  6
CONTINUOUS
  0
LAYER
  2
MAGENTA3
  70
0
  62
221
  6
CONTINUOUS
  0
LAYER
  2
YELLOW3
  70
0
  62
2
  6
CONTINUOUS
  0
LAYER
  2
BLUE4
  70
0
  62
5
  6
CONTINUOUS
  0
LAYER
  2
GREEN4
  70
0
  62
3
  6
CONTINUOUS
  0
LAYER
  2
CYAN4
  70
0
  62
4
  6
CONTINUOUS
  0
LAYER
  2
RED4
  70
0
  62
1
  6
CONTINUOUS
  0
LAYER
  2
MAGENTA4
  70
0
  62
6
  6
CONTINUOUS
  0
LAYER
  2
YELLOW4
  70
0
  62
2
  6
CONTINUOUS
  0
ENDTAB
  0
ENDSEC
  0
SECTION
  2
ENTITIES
0
LINE
8
Black
10
53.4654
20
15.8328
11
53.4698
21
15.8328
0
LINE
8
Black
10
53.4698
20
15.8328
11
53.8118
21
15.7725
0
LINE
8
Black
10
53.8118
20
15.7725
11
53.8118
21
15.7725
0
LINE
8
Black
10
53.8118
20
15.7725
11
53.8212
21
15.7691
0
LINE
8
Black
10
53.8212
20
15.7691
11
53.8281
21
15.7666
0
LINE
8
Black
10
53.8281
20
15.7666
11
53.8281
21
15.7666
0
LINE
8
Black
10
53.8281
20
15.7666
11
54.1289
21
15.5929
0
LINE
8
Black
10
54.1289
20
15.5929
11
54.1422
21
15.5818
0
LINE
8
Black
10
54.1422
20
15.5818
11
54.1422
21
15.5818
0
LINE
8
Black
10
54.1422
20
15.5818
11
54.3654
21
15.3157
0
LINE
8
Black
10
54.3654
20
15.3157
11
54.3654
21
15.3157
0
LINE
8
Black
10
54.3654
20
15.3157
11
54.3741
21
15.3007
0
LINE
8
Black
10
54.3741
20
15.3007
11
54.4929
21
14.9743
0
LINE
8
Black
10
54.4929
20
14.9743
11
54.494
21
14.9679
0
LINE
8
Black
10
54.494
20
14.9679
11
54.4957
21
14.9616
0
LINE
8
Black
10
54.4957
20
14.9616
11
54.5109
21
14.788
0
LINE
8
Black
10
54.5109
20
14.788
11
54.5107
21
14.7858
0
LINE
8
Black
10
54.5107
20
14.7858
11
54.5111
21
14.7836
0
LINE
8
Black
10
54.5111
20
14.7836
11
54.5111
21
2.7836
0
LINE
8
Black
10
54.5111
20
2.7836
11
54.5103
21
2.77929
0
LINE
8
Black
10
54.5103
20
2.77929
11
54.5103
21
2.77492
0
LINE
8
Black
10
54.5103
20
2.77492
11
54.45
21
2.4329
0
LINE
8
Black
10
54.45
20
2.4329
11
54.45
21
2.4329
0
LINE
8
Black
10
54.45
20
2.4329
11
54.4466
21
2.42348
0
LINE
8
Black
10
54.4466
20
2.42348
11
54.4441
21
2.41658
0
LINE
8
Black
10
54.4441
20
2.41658
11
54.4441
21
2.41658
0
LINE
8
Black
10
54.4441
20
2.41658
11
54.2704
21
2.11582
0
LINE
8
Black
10
54.2704
20
2.11582
11
54.2704
21
2.11581
0
LINE
8
Black
10
54.2704
20
2.11581
11
54.2593
21
2.10251
0
LINE
8
Black
10
54.2593
20
2.10251
11
53.9932
21
1.87928
0
LINE
8
Black
10
53.9932
20
1.87928
11
53.9932
21
1.87927
0
LINE
8
Black
10
53.9932
20
1.87927
11
53.9782
21
1.87059
0
LINE
8
Black
10
53.9782
20
1.87059
11
53.6518
21
1.75181
0
LINE
8
Black
10
53.6518
20
1.75181
11
53.6454
21
1.75067
0
LINE
8
Black
10
53.6454
20
1.75067
11
53.6391
21
1.74898
0
LINE
8
Black
10
53.6391
20
1.74898
11
53.4655
21
1.73379
0
LINE
8
Black
10
53.4655
20
1.73379
11
53.4633
21
1.73398
0
LINE
8
Black
10
53.4633
20
1.73398
11
53.4611
21
1.7336
0
LINE
8
Black
10
53.4611
20
1.7336
11
2.4611
21
1.7336
0
LINE
8
Black
10
2.4611
20
1.7336
11
2.45679
21
1.73436
0
LINE
8
Black
10
2.45679
20
1.73436
11
2.45242
21
1.73436
0
LINE
8
Black
10
2.45242
20
1.73436
11
2.1104
21
1.79467
0
LINE
8
Black
10
2.1104
20
1.79467
11
2.1104
21
1.79467
0
LINE
8
Black
10
2.1104
20
1.79467
11
2.10098
21
1.79809
0
LINE
8
Black
10
2.10098
20
1.79809
11
2.09408
21
1.80061
0
LINE
8
Black
10
2.09408
20
1.80061
11
2.09408
21
1.80061
0
LINE
8
Black
10
2.09408
20
1.80061
11
1.79332
21
1.97425
0
LINE
8
Black
10
1.79332
20
1.97425
11
1.79331
21
1.97425
0
LINE
8
Black
10
1.79331
20
1.97425
11
1.78001
21
1.98542
0
LINE
8
Black
10
1.78001
20
1.98542
11
1.55678
21
2.25146
0
LINE
8
Black
10
1.55678
20
2.25146
11
1.55677
21
2.25146
0
LINE
8
Black
10
1.55677
20
2.25146
11
1.54809
21
2.2665
0
LINE
8
Black
10
1.54809
20
2.2665
11
1.42931
21
2.59285
0
LINE
8
Black
10
1.42931
20
2.59285
11
1.42817
21
2.59928
0
LINE
8
Black
10
1.42817
20
2.59928
11
1.42648
21
2.60559
0
LINE
8
Black
10
1.42648
20
2.60559
11
1.41129
21
2.77924
0
LINE
8
Black
10
1.41129
20
2.77924
11
1.41148
21
2.78143
0
LINE
8
Black
10
1.41148
20
2.78143
11
1.4111
21
2.7836
0
LINE
8
Black
10
1.4111
20
2.7836
11
1.4111
21
14.7836
0
LINE
8
Black
10
1.4111
20
14.7836
11
1.41186
21
14.7879
0
LINE
8
Black
10
1.41186
20
14.7879
11
1.41186
21
14.7923
0
LINE
8
Black
10
1.41186
20
14.7923
11
1.47217
21
15.1343
0
LINE
8
Black
10
1.47217
20
15.1343
11
1.47217
21
15.1343
0
LINE
8
Black
10
1.47217
20
15.1343
11
1.47559
21
15.1437
0
LINE
8
Black
10
1.47559
20
15.1437
11
1.47811
21
15.1506
0
LINE
8
Black
10
1.47811
20
15.1506
11
1.47811
21
15.1506
0
LINE
8
Black
10
1.47811
20
15.1506
11
1.65175
21
15.4514
0
LINE
8
Black
10
1.65175
20
15.4514
11
1.66292
21
15.4647
0
LINE
8
Black
10
1.66292
20
15.4647
11
1.66292
21
15.4647
0
LINE
8
Black
10
1.66292
20
15.4647
11
1.92896
21
15.6879
0
LINE
8
Black
10
1.92896
20
15.6879
11
1.92896
21
15.6879
0
LINE
8
Black
10
1.92896
20
15.6879
11
1.944
21
15.6966
0
LINE
8
Black
10
1.944
20
15.6966
11
2.27035
21
15.8154
0
LINE
8
Black
10
2.27035
20
15.8154
11
2.27678
21
15.8165
0
LINE
8
Black
10
2.27678
20
15.8165
11
2.28309
21
15.8182
0
LINE
8
Black
10
2.28309
20
15.8182
11
2.45674
21
15.8334
0
LINE
8
Black
10
2.45674
20
15.8334
11
2.45893
21
15.8332
0
LINE
8
Black
10
2.45893
20
15.8332
11
2.4611
21
15.8336
0
LINE
8
Black
10
2.4611
20
15.8336
11
53.4611
21
15.8336
0
LINE
8
Black
10
53.4611
20
15.8336
11
53.4654
21
15.8328
0
LINE
8
Black
10
2.46328
20
15.7336
11
2.29837
21
15.7192
0
LINE
8
Black
10
2.29837
20
15.7192
11
1.98648
21
15.6057
0
LINE
8
Black
10
1.98648
20
15.6057
11
1.73395
21
15.3938
0
LINE
8
Black
10
1.73395
20
15.3938
11
1.56912
21
15.1083
0
LINE
8
Black
10
1.56912
20
15.1083
11
1.5111
21
14.7792
0
LINE
8
Black
10
1.5111
20
14.7792
11
1.5111
21
2.78579
0
LINE
8
Black
10
1.5111
20
2.78579
11
1.52553
21
2.62087
0
LINE
8
Black
10
1.52553
20
2.62087
11
1.63904
21
2.30898
0
LINE
8
Black
10
1.63904
20
2.30898
11
1.85095
21
2.05645
0
LINE
8
Black
10
1.85095
20
2.05645
11
2.13644
21
1.89162
0
LINE
8
Black
10
2.13644
20
1.89162
11
2.46547
21
1.8336
0
LINE
8
Black
10
2.46547
20
1.8336
11
53.4589
21
1.8336
0
LINE
8
Black
10
53.4589
20
1.8336
11
53.6238
21
1.84803
0
LINE
8
Black
10
53.6238
20
1.84803
11
53.9357
21
1.96154
0
LINE
8
Black
10
53.9357
20
1.96154
11
54.1883
21
2.17345
0
LINE
8
Black
10
54.1883
20
2.17345
11
54.3531
21
2.45894
0
LINE
8
Black
10
54.3531
20
2.45894
11
54.4111
21
2.78797
0
LINE
8
Black
10
54.4111
20
2.78797
11
54.4111
21
14.7814
0
LINE
8
Black
10
54.4111
20
14.7814
11
54.3967
21
14.9463
0
LINE
8
Black
10
54.3967
20
14.9463
11
54.2832
21
15.2582
0
LINE
8
Black
10
54.2832
20
15.2582
11
54.0713
21
15.5108
0
LINE
8
Black
10
54.0713
20
15.5108
11
53.7858
21
15.6756
0
LINE
8
Black
10
53.7858
20
15.6756
11
53.4567
21
15.7336
0
LINE
8
Black
10
53.4567
20
15.7336
11
2.46328
21
15.7336
0
LINE
8
Black
10
52.4036
20
9.9548
11
52.7384
21
9.55574
0
LINE
8
Black
10
52.7384
20
9.55574
11
52.7384
21
9.55574
0
LINE
8
Black
10
52.7384
20
9.55574
11
52.7471
21
9.5407
0
LINE
8
Black
10
52.7471
20
9.5407
11
52.9253
21
9.05117
0
LINE
8
Black
10
52.9253
20
9.05117
11
52.9283
21
9.03407
0
LINE
8
Black
10
52.9283
20
9.03407
11
52.9283
21
8.51313
0
LINE
8
Black
10
52.9283
20
8.51313
11
52.9253
21
8.49603
0
LINE
8
Black
10
52.9253
20
8.49603
11
52.7471
21
8.0065
0
LINE
8
Black
10
52.7471
20
8.0065
11
52.7384
21
7.99146
0
LINE
8
Black
10
52.7384
20
7.99146
11
52.7384
21
7.99145
0
LINE
8
Black
10
52.7384
20
7.99145
11
52.4036
21
7.5924
0
LINE
8
Black
10
52.4036
20
7.5924
11
52.4036
21
7.59239
0
LINE
8
Black
10
52.4036
20
7.59239
11
52.3903
21
7.58123
0
LINE
8
Black
10
52.3903
20
7.58123
11
52.3903
21
7.58123
0
LINE
8
Black
10
52.3903
20
7.58123
11
51.9391
21
7.32076
0
LINE
8
Black
10
51.9391
20
7.32076
11
51.9391
21
7.32076
0
LINE
8
Black
10
51.9391
20
7.32076
11
51.9322
21
7.31825
0
LINE
8
Black
10
51.9322
20
7.31825
11
51.9228
21
7.31482
0
LINE
8
Black
10
51.9228
20
7.31482
11
51.9228
21
7.31482
0
LINE
8
Black
10
51.9228
20
7.31482
11
51.4098
21
7.22436
0
LINE
8
Black
10
51.4098
20
7.22436
11
51.4054
21
7.22436
0
LINE
8
Black
10
51.4054
20
7.22436
11
51.4011
21
7.2236
0
LINE
8
Black
10
51.4011
20
7.2236
11
49.4011
21
7.2236
0
LINE
8
Black
10
49.4011
20
7.2236
11
49.3968
21
7.22436
0
LINE
8
Black
10
49.3968
20
7.22436
11
49.3924
21
7.22436
0
LINE
8
Black
10
49.3924
20
7.22436
11
48.8794
21
7.31482
0
LINE
8
Black
10
48.8794
20
7.31482
11
48.8794
21
7.31482
0
LINE
8
Black
10
48.8794
20
7.31482
11
48.87
21
7.31825
0
LINE
8
Black
10
48.87
20
7.31825
11
48.8631
21
7.32076
0
LINE
8
Black
10
48.8631
20
7.32076
11
48.8631
21
7.32076
0
LINE
8
Black
10
48.8631
20
7.32076
11
48.4119
21
7.58123
0
LINE
8
Black
10
48.4119
20
7.58123
11
48.4119
21
7.58123
0
LINE
8
Black
10
48.4119
20
7.58123
11
48.3986
21
7.59239
0
LINE
8
Black
10
48.3986
20
7.59239
11
48.3986
21
7.5924
0
LINE
8
Black
10
48.3986
20
7.5924
11
48.0638
21
7.99145
0
LINE
8
Black
10
48.0638
20
7.99145
11
48.0638
21
7.99146
0
LINE
8
Black
10
48.0638
20
7.99146
11
48.0551
21
8.0065
0
LINE
8
Black
10
48.0551
20
8.0065
11
47.8769
21
8.49603
0
LINE
8
Black
10
47.8769
20
8.49603
11
47.8739
21
8.51313
0
LINE
8
Black
10
47.8739
20
8.51313
11
47.8739
21
9.03407
0
LINE
8
Black
10
47.8739
20
9.03407
11
47.8769
21
9.05117
0
LINE
8
Black
10
47.8769
20
9.05117
11
48.0551
21
9.5407
0
LINE
8
Black
10
48.0551
20
9.5407
11
48.0638
21
9.55574
0
LINE
8
Black
10
48.0638
20
9.55574
11
48.0638
21
9.55574
0
LINE
8
Black
10
48.0638
20
9.55574
11
48.3986
21
9.9548
0
LINE
8
Black
10
48.3986
20
9.9548
11
48.3986
21
9.95481
0
LINE
8
Black
10
48.3986
20
9.95481
11
48.4119
21
9.96597
0
LINE
8
Black
10
48.4119
20
9.96597
11
48.4119
21
9.96597
0
LINE
8
Black
10
48.4119
20
9.96597
11
48.8631
21
10.2264
0
LINE
8
Black
10
48.8631
20
10.2264
11
48.8631
21
10.2264
0
LINE
8
Black
10
48.8631
20
10.2264
11
48.87
21
10.229
0
LINE
8
Black
10
48.87
20
10.229
11
48.8794
21
10.2324
0
LINE
8
Black
10
48.8794
20
10.2324
11
48.8794
21
10.2324
0
LINE
8
Black
10
48.8794
20
10.2324
11
49.3924
21
10.3228
0
LINE
8
Black
10
49.3924
20
10.3228
11
49.3968
21
10.3228
0
LINE
8
Black
10
49.3968
20
10.3228
11
49.4011
21
10.3236
0
LINE
8
Black
10
49.4011
20
10.3236
11
51.4011
21
10.3236
0
LINE
8
Black
10
51.4011
20
10.3236
11
51.4054
21
10.3228
0
LINE
8
Black
10
51.4054
20
10.3228
11
51.4098
21
10.3228
0
LINE
8
Black
10
51.4098
20
10.3228
11
51.9228
21
10.2324
0
LINE
8
Black
10
51.9228
20
10.2324
11
51.9228
21
10.2324
0
LINE
8
Black
10
51.9228
20
10.2324
11
51.9322
21
10.229
0
LINE
8
Black
10
51.9322
20
10.229
11
51.9391
21
10.2264
0
LINE
8
Black
10
51.9391
20
10.2264
11
51.9391
21
10.2264
0
LINE
8
Black
10
51.9391
20
10.2264
11
52.3903
21
9.96597
0
LINE
8
Black
10
52.3903
20
9.96597
11
52.3903
21
9.96597
0
LINE
8
Black
10
52.3903
20
9.96597
11
52.4036
21
9.95481
0
LINE
8
Black
10
52.4036
20
9.95481
11
52.4036
21
9.9548
0
LINE
8
Black
10
49.4055
20
10.2236
11
48.9054
21
10.1354
0
LINE
8
Black
10
48.9054
20
10.1354
11
48.4696
21
9.88377
0
LINE
8
Black
10
48.4696
20
9.88377
11
48.146
21
9.49822
0
LINE
8
Black
10
48.146
20
9.49822
11
47.9739
21
9.02525
0
LINE
8
Black
10
47.9739
20
9.02525
11
47.9739
21
8.52194
0
LINE
8
Black
10
47.9739
20
8.52194
11
48.146
21
8.04898
0
LINE
8
Black
10
48.146
20
8.04898
11
48.4696
21
7.66343
0
LINE
8
Black
10
48.4696
20
7.66343
11
48.9054
21
7.41177
0
LINE
8
Black
10
48.9054
20
7.41177
11
49.4055
21
7.3236
0
LINE
8
Black
10
49.4055
20
7.3236
11
51.3967
21
7.3236
0
LINE
8
Black
10
51.3967
20
7.3236
11
51.8968
21
7.41177
0
LINE
8
Black
10
51.8968
20
7.41177
11
52.3326
21
7.66343
0
LINE
8
Black
10
52.3326
20
7.66343
11
52.6562
21
8.04898
0
LINE
8
Black
10
52.6562
20
8.04898
11
52.8283
21
8.52194
0
LINE
8
Black
10
52.8283
20
8.52194
11
52.8283
21
9.02525
0
LINE
8
Black
10
52.8283
20
9.02525
11
52.6562
21
9.49822
0
LINE
8
Black
10
52.6562
20
9.49822
11
52.3326
21
9.88377
0
LINE
8
Black
10
52.3326
20
9.88377
11
51.8968
21
10.1354
0
LINE
8
Black
10
51.8968
20
10.1354
11
51.3967
21
10.2236
0
LINE
8
Black
10
51.3967
20
10.2236
11
49.4055
21
10.2236
0
LINE
8
Black
10
6.46541
20
10.3328
11
6.46978
21
10.3328
0
LINE
8
Black
10
6.46978
20
10.3328
11
6.98281
21
10.2424
0
LINE
8
Black
10
6.98281
20
10.2424
11
6.98281
21
10.2424
0
LINE
8
Black
10
6.98281
20
10.2424
11
6.99223
21
10.239
0
LINE
8
Black
10
6.99223
20
10.239
11
6.99913
21
10.2364
0
LINE
8
Black
10
6.99913
20
10.2364
11
6.99913
21
10.2364
0
LINE
8
Black
10
6.99913
20
10.2364
11
7.45028
21
9.97597
0
LINE
8
Black
10
7.45028
20
9.97597
11
7.45028
21
9.97597
0
LINE
8
Black
10
7.45028
20
9.97597
11
7.45512
21
9.97191
0
LINE
8
Black
10
7.45512
20
9.97191
11
7.46358
21
9.96481
0
LINE
8
Black
10
7.46358
20
9.96481
11
7.46358
21
9.9648
0
LINE
8
Black
10
7.46358
20
9.9648
11
7.79843
21
9.56574
0
LINE
8
Black
10
7.79843
20
9.56574
11
7.79844
21
9.56574
0
LINE
8
Black
10
7.79844
20
9.56574
11
7.80712
21
9.5507
0
LINE
8
Black
10
7.80712
20
9.5507
11
7.9853
21
9.06117
0
LINE
8
Black
10
7.9853
20
9.06117
11
7.98831
21
9.04407
0
LINE
8
Black
10
7.98831
20
9.04407
11
7.98831
21
8.52313
0
LINE
8
Black
10
7.98831
20
8.52313
11
7.9853
21
8.50603
0
LINE
8
Black
10
7.9853
20
8.50603
11
7.80712
21
8.0165
0
LINE
8
Black
10
7.80712
20
8.0165
11
7.79844
21
8.00146
0
LINE
8
Black
10
7.79844
20
8.00146
11
7.79843
21
8.00145
0
LINE
8
Black
10
7.79843
20
8.00145
11
7.46358
21
7.6024
0
LINE
8
Black
10
7.46358
20
7.6024
11
7.46358
21
7.60239
0
LINE
8
Black
10
7.46358
20
7.60239
11
7.45693
21
7.59681
0
LINE
8
Black
10
7.45693
20
7.59681
11
7.45028
21
7.59123
0
LINE
8
Black
10
7.45028
20
7.59123
11
7.45028
21
7.59123
0
LINE
8
Black
10
7.45028
20
7.59123
11
6.99913
21
7.33076
0
LINE
8
Black
10
6.99913
20
7.33076
11
6.99913
21
7.33076
0
LINE
8
Black
10
6.99913
20
7.33076
11
6.99223
21
7.32825
0
LINE
8
Black
10
6.99223
20
7.32825
11
6.98281
21
7.32482
0
LINE
8
Black
10
6.98281
20
7.32482
11
6.98281
21
7.32482
0
LINE
8
Black
10
6.98281
20
7.32482
11
6.46978
21
7.23436
0
LINE
8
Black
10
6.46978
20
7.23436
11
6.46541
21
7.23436
0
LINE
8
Black
10
6.46541
20
7.23436
11
6.4611
21
7.2336
0
LINE
8
Black
10
6.4611
20
7.2336
11
4.4611
21
7.2336
0
LINE
8
Black
10
4.4611
20
7.2336
11
4.45679
21
7.23436
0
LINE
8
Black
10
4.45679
20
7.23436
11
4.45242
21
7.23436
0
LINE
8
Black
10
4.45242
20
7.23436
11
3.93939
21
7.32482
0
LINE
8
Black
10
3.93939
20
7.32482
11
3.93939
21
7.32482
0
LINE
8
Black
10
3.93939
20
7.32482
11
3.92997
21
7.32825
0
LINE
8
Black
10
3.92997
20
7.32825
11
3.92307
21
7.33076
0
LINE
8
Black
10
3.92307
20
7.33076
11
3.92307
21
7.33076
0
LINE
8
Black
10
3.92307
20
7.33076
11
3.47192
21
7.59123
0
LINE
8
Black
10
3.47192
20
7.59123
11
3.47192
21
7.59123
0
LINE
8
Black
10
3.47192
20
7.59123
11
3.46527
21
7.59681
0
LINE
8
Black
10
3.46527
20
7.59681
11
3.45862
21
7.60239
0
LINE
8
Black
10
3.45862
20
7.60239
11
3.45861
21
7.6024
0
LINE
8
Black
10
3.45861
20
7.6024
11
3.12376
21
8.00145
0
LINE
8
Black
10
3.12376
20
8.00145
11
3.12376
21
8.00146
0
LINE
8
Black
10
3.12376
20
8.00146
11
3.11508
21
8.0165
0
LINE
8
Black
10
3.11508
20
8.0165
11
2.9369
21
8.50603
0
LINE
8
Black
10
2.9369
20
8.50603
11
2.93389
21
8.52313
0
LINE
8
Black
10
2.93389
20
8.52313
11
2.93389
21
9.04407
0
LINE
8
Black
10
2.93389
20
9.04407
11
2.9369
21
9.06117
0
LINE
8
Black
10
2.9369
20
9.06117
11
3.11508
21
9.5507
0
LINE
8
Black
10
3.11508
20
9.5507
11
3.12376
21
9.56574
0
LINE
8
Black
10
3.12376
20
9.56574
11
3.12376
21
9.56574
0
LINE
8
Black
10
3.12376
20
9.56574
11
3.45861
21
9.9648
0
LINE
8
Black
10
3.45861
20
9.9648
11
3.45862
21
9.96481
0
LINE
8
Black
10
3.45862
20
9.96481
11
3.46708
21
9.97191
0
LINE
8
Black
10
3.46708
20
9.97191
11
3.47192
21
9.97597
0
LINE
8
Black
10
3.47192
20
9.97597
11
3.47192
21
9.97597
0
LINE
8
Black
10
3.47192
20
9.97597
11
3.92307
21
10.2364
0
LINE
8
Black
10
3.92307
20
10.2364
11
3.92307
21
10.2364
0
LINE
8
Black
10
3.92307
20
10.2364
11
3.92997
21
10.239
0
LINE
8
Black
10
3.92997
20
10.239
11
3.93939
21
10.2424
0
LINE
8
Black
10
3.93939
20
10.2424
11
3.93939
21
10.2424
0
LINE
8
Black
10
3.93939
20
10.2424
11
4.45242
21
10.3328
0
LINE
8
Black
10
4.45242
20
10.3328
11
4.45679
21
10.3328
0
LINE
8
Black
10
4.45679
20
10.3328
11
4.4611
21
10.3336
0
LINE
8
Black
10
4.4611
20
10.3336
11
6.4611
21
10.3336
0
LINE
8
Black
10
6.4611
20
10.3336
11
6.46541
21
10.3328
0
LINE
8
Black
10
4.46547
20
10.2336
11
3.96543
21
10.1454
0
LINE
8
Black
10
3.96543
20
10.1454
11
3.52955
21
9.89377
0
LINE
8
Black
10
3.52955
20
9.89377
11
3.20603
21
9.50822
0
LINE
8
Black
10
3.20603
20
9.50822
11
3.03389
21
9.03525
0
LINE
8
Black
10
3.03389
20
9.03525
11
3.03389
21
8.53195
0
LINE
8
Black
10
3.03389
20
8.53195
11
3.20603
21
8.05898
0
LINE
8
Black
10
3.20603
20
8.05898
11
3.52955
21
7.67343
0
LINE
8
Black
10
3.52955
20
7.67343
11
3.96543
21
7.42177
0
LINE
8
Black
10
3.96543
20
7.42177
11
4.46547
21
7.3336
0
LINE
8
Black
10
4.46547
20
7.3336
11
6.45673
21
7.3336
0
LINE
8
Black
10
6.45673
20
7.3336
11
6.95676
21
7.42177
0
LINE
8
Black
10
6.95676
20
7.42177
11
7.39265
21
7.67343
0
LINE
8
Black
10
7.39265
20
7.67343
11
7.71617
21
8.05898
0
LINE
8
Black
10
7.71617
20
8.05898
11
7.88831
21
8.53195
0
LINE
8
Black
10
7.88831
20
8.53195
11
7.88831
21
9.03525
0
LINE
8
Black
10
7.88831
20
9.03525
11
7.71617
21
9.50822
0
LINE
8
Black
10
7.71617
20
9.50822
11
7.39265
21
9.89377
0
LINE
8
Black
10
7.39265
20
9.89377
11
6.95676
21
10.1454
0
LINE
8
Black
10
6.95676
20
10.1454
11
6.45673
21
10.2336
0
LINE
8
Black
10
6.45673
20
10.2336
11
4.46547
21
10.2336
  0
ENDSEC
  0
EOF
