  0
SECTION
  2
HEADER
  9
$ANGBASE
  50
0.0
  9
$ANGDIR
  70
  1
  9
$MEASUREMENT
  70
0
  0
ENDSEC
  0
SECTION
  2
TABLES
  0
TABLE
  2
LTYPE
  70
1
  0
LTYPE
  2
CONTINUOUS
  70
0
  3
Solid line
  72
65
  73
0
  40
0.0
  0
ENDTAB
  0
TABLE
  2
STYLE
  70
4
  0
STYLE
  2
KICAD
  70
0
  40
0
  41
1
  42
1
  50
0
  71
0
  3
isocp.shx
  0
STYLE
  2
KICADB
  70
0
  40
0
  41
1
  42
1
  50
0
  71
0
  3
isocp.shx
  0
STYLE
  2
KICADI
  70
0
  40
0
  41
1
  42
1
  50
15
  71
0
  3
isocp.shx
  0
STYLE
  2
KICADBI
  70
0
  40
0
  41
1
  42
1
  50
15
  71
0
  3
isocp.shx
  0
ENDTAB
  0
TABLE
  2
LAYER
  70
30
  0
LAYER
  2
BLACK
  70
0
  62
7
  6
CONTINUOUS
  0
LAYER
  2
GRAY1
  70
0
  62
251
  6
CONTINUOUS
  0
LAYER
  2
GRAY2
  70
0
  62
8
  6
CONTINUOUS
  0
LAYER
  2
GRAY3
  70
0
  62
9
  6
CONTINUOUS
  0
LAYER
  2
WHITE
  70
0
  62
7
  6
CONTINUOUS
  0
LAYER
  2
LYELLOW
  70
0
  62
51
  6
CONTINUOUS
  0
LAYER
  2
BLUE1
  70
0
  62
178
  6
CONTINUOUS
  0
LAYER
  2
GREEN1
  70
0
  62
98
  6
CONTINUOUS
  0
LAYER
  2
CYAN1
  70
0
  62
138
  6
CONTINUOUS
  0
LAYER
  2
RED1
  70
0
  62
18
  6
CONTINUOUS
  0
LAYER
  2
MAGENTA1
  70
0
  62
228
  6
CONTINUOUS
  0
LAYER
  2
BROWN1
  70
0
  62
58
  6
CONTINUOUS
  0
LAYER
  2
BLUE2
  70
0
  62
5
  6
CONTINUOUS
  0
LAYER
  2
GREEN2
  70
0
  62
3
  6
CONTINUOUS
  0
LAYER
  2
CYAN2
  70
0
  62
4
  6
CONTINUOUS
  0
LAYER
  2
RED2
  70
0
  62
1
  6
CONTINUOUS
  0
LAYER
  2
MAGENTA2
  70
0
  62
6
  6
CONTINUOUS
  0
LAYER
  2
BROWN2
  70
0
  62
54
  6
CONTINUOUS
  0
LAYER
  2
BLUE3
  70
0
  62
171
  6
CONTINUOUS
  0
LAYER
  2
GREEN3
  70
0
  62
91
  6
CONTINUOUS
  0
LAYER
  2
CYAN3
  70
0
  62
131
  6
CONTINUOUS
  0
LAYER
  2
RED3
  70
0
  62
11
  6
CONTINUOUS
  0
LAYER
  2
MAGENTA3
  70
0
  62
221
  6
CONTINUOUS
  0
LAYER
  2
YELLOW3
  70
0
  62
2
  6
CONTINUOUS
  0
LAYER
  2
BLUE4
  70
0
  62
5
  6
CONTINUOUS
  0
LAYER
  2
GREEN4
  70
0
  62
3
  6
CONTINUOUS
  0
LAYER
  2
CYAN4
  70
0
  62
4
  6
CONTINUOUS
  0
LAYER
  2
RED4
  70
0
  62
1
  6
CONTINUOUS
  0
LAYER
  2
MAGENTA4
  70
0
  62
6
  6
CONTINUOUS
  0
LAYER
  2
YELLOW4
  70
0
  62
2
  6
CONTINUOUS
  0
ENDTAB
  0
ENDSEC
  0
SECTION
  2
ENTITIES
0
LINE
8
Black
10
42.2526
20
14.7283
11
42.1358
21
14.8993
0
LINE
8
Black
10
42.1358
20
14.8993
11
42.1352
21
14.8998
0
LINE
8
Black
10
42.1352
20
14.8998
11
42.1335
21
14.9012
0
LINE
8
Black
10
42.1335
20
14.9012
11
42.1333
21
14.9016
0
LINE
8
Black
10
42.1333
20
14.9016
11
42.1331
21
14.9018
0
LINE
8
Black
10
42.1331
20
14.9018
11
42.132
21
14.9038
0
LINE
8
Black
10
42.132
20
14.9038
11
42.1309
21
14.9057
0
LINE
8
Black
10
42.1309
20
14.9057
11
42.1308
21
14.9061
0
LINE
8
Black
10
42.1308
20
14.9061
11
42.1307
21
14.9064
0
LINE
8
Black
10
42.1307
20
14.9064
11
42.1304
21
14.9087
0
LINE
8
Black
10
42.1304
20
14.9087
11
42.13
21
14.9109
0
LINE
8
Black
10
42.13
20
14.9109
11
42.13
21
15.7186
0
LINE
8
Black
10
42.13
20
15.7186
11
42.1302
21
15.7199
0
LINE
8
Black
10
42.1302
20
15.7199
11
42.1302
21
15.7212
0
LINE
8
Black
10
42.1302
20
15.7212
11
42.1307
21
15.7224
0
LINE
8
Black
10
42.1307
20
15.7224
11
42.1309
21
15.7237
0
LINE
8
Black
10
42.1309
20
15.7237
11
42.1316
21
15.7249
0
LINE
8
Black
10
42.1316
20
15.7249
11
42.132
21
15.7261
0
LINE
8
Black
10
42.132
20
15.7261
11
42.1329
21
15.7271
0
LINE
8
Black
10
42.1329
20
15.7271
11
42.1335
21
15.7282
0
LINE
8
Black
10
42.1335
20
15.7282
11
42.1345
21
15.7291
0
LINE
8
Black
10
42.1345
20
15.7291
11
42.1354
21
15.7301
0
LINE
8
Black
10
42.1354
20
15.7301
11
42.1365
21
15.7307
0
LINE
8
Black
10
42.1365
20
15.7307
11
42.1375
21
15.7316
0
LINE
8
Black
10
42.1375
20
15.7316
11
42.1387
21
15.732
0
LINE
8
Black
10
42.1387
20
15.732
11
42.1399
21
15.7327
0
LINE
8
Black
10
42.1399
20
15.7327
11
42.1412
21
15.7329
0
LINE
8
Black
10
42.1412
20
15.7329
11
42.1424
21
15.7334
0
LINE
8
Black
10
42.1424
20
15.7334
11
42.1437
21
15.7334
0
LINE
8
Black
10
42.1437
20
15.7334
11
42.145
21
15.7336
0
LINE
8
Black
10
42.145
20
15.7336
11
53.4547
21
15.7336
0
LINE
8
Black
10
53.4547
20
15.7336
11
53.4561
21
15.7333
0
LINE
8
Black
10
53.4561
20
15.7333
11
53.4576
21
15.7333
0
LINE
8
Black
10
53.4576
20
15.7333
11
53.8213
21
15.661
0
LINE
8
Black
10
53.8213
20
15.661
11
53.8217
21
15.6608
0
LINE
8
Black
10
53.8217
20
15.6608
11
53.822
21
15.6608
0
LINE
8
Black
10
53.822
20
15.6608
11
53.8241
21
15.6599
0
LINE
8
Black
10
53.8241
20
15.6599
11
53.8262
21
15.6591
0
LINE
8
Black
10
53.8262
20
15.6591
11
53.8264
21
15.6589
0
LINE
8
Black
10
53.8264
20
15.6589
11
53.8268
21
15.6587
0
LINE
8
Black
10
53.8268
20
15.6587
11
54.1297
21
15.4563
0
LINE
8
Black
10
54.1297
20
15.4563
11
54.1299
21
15.4561
0
LINE
8
Black
10
54.1299
20
15.4561
11
54.1302
21
15.4559
0
LINE
8
Black
10
54.1302
20
15.4559
11
54.1318
21
15.4543
0
LINE
8
Black
10
54.1318
20
15.4543
11
54.1334
21
15.4527
0
LINE
8
Black
10
54.1334
20
15.4527
11
54.1336
21
15.4524
0
LINE
8
Black
10
54.1336
20
15.4524
11
54.1338
21
15.4522
0
LINE
8
Black
10
54.1338
20
15.4522
11
54.3362
21
15.1493
0
LINE
8
Black
10
54.3362
20
15.1493
11
54.3364
21
15.1489
0
LINE
8
Black
10
54.3364
20
15.1489
11
54.3366
21
15.1487
0
LINE
8
Black
10
54.3366
20
15.1487
11
54.3374
21
15.1466
0
LINE
8
Black
10
54.3374
20
15.1466
11
54.3383
21
15.1445
0
LINE
8
Black
10
54.3383
20
15.1445
11
54.3383
21
15.1442
0
LINE
8
Black
10
54.3383
20
15.1442
11
54.3385
21
15.1438
0
LINE
8
Black
10
54.3385
20
15.1438
11
54.4108
21
14.7801
0
LINE
8
Black
10
54.4108
20
14.7801
11
54.4108
21
14.7786
0
LINE
8
Black
10
54.4108
20
14.7786
11
54.4111
21
14.7772
0
LINE
8
Black
10
54.4111
20
14.7772
11
54.4111
21
2.79
0
LINE
8
Black
10
54.4111
20
2.79
11
54.4108
21
2.78855
0
LINE
8
Black
10
54.4108
20
2.78855
11
54.4108
21
2.78708
0
LINE
8
Black
10
54.4108
20
2.78708
11
54.3385
21
2.42335
0
LINE
8
Black
10
54.3385
20
2.42335
11
54.3383
21
2.42304
0
LINE
8
Black
10
54.3383
20
2.42304
11
54.3383
21
2.42271
0
LINE
8
Black
10
54.3383
20
2.42271
11
54.3374
21
2.42062
0
LINE
8
Black
10
54.3374
20
2.42062
11
54.3366
21
2.4185
0
LINE
8
Black
10
54.3366
20
2.4185
11
54.3364
21
2.41825
0
LINE
8
Black
10
54.3364
20
2.41825
11
54.3362
21
2.41795
0
LINE
8
Black
10
54.3362
20
2.41795
11
54.1338
21
2.11502
0
LINE
8
Black
10
54.1338
20
2.11502
11
54.1336
21
2.11478
0
LINE
8
Black
10
54.1336
20
2.11478
11
54.1334
21
2.11448
0
LINE
8
Black
10
54.1334
20
2.11448
11
54.1318
21
2.1129
0
LINE
8
Black
10
54.1318
20
2.1129
11
54.1302
21
2.11126
0
LINE
8
Black
10
54.1302
20
2.11126
11
54.1299
21
2.11111
0
LINE
8
Black
10
54.1299
20
2.11111
11
54.1297
21
2.11088
0
LINE
8
Black
10
54.1297
20
2.11088
11
53.8268
21
1.90848
0
LINE
8
Black
10
53.8268
20
1.90848
11
53.8264
21
1.90834
0
LINE
8
Black
10
53.8264
20
1.90834
11
53.8262
21
1.90812
0
LINE
8
Black
10
53.8262
20
1.90812
11
53.8241
21
1.9073
0
LINE
8
Black
10
53.8241
20
1.9073
11
53.822
21
1.90638
0
LINE
8
Black
10
53.822
20
1.90638
11
53.8217
21
1.90636
0
LINE
8
Black
10
53.8217
20
1.90636
11
53.8213
21
1.90624
0
LINE
8
Black
10
53.8213
20
1.90624
11
53.4576
21
1.83389
0
LINE
8
Black
10
53.4576
20
1.83389
11
53.4561
21
1.83386
0
LINE
8
Black
10
53.4561
20
1.83386
11
53.4547
21
1.8336
0
LINE
8
Black
10
53.4547
20
1.8336
11
2.4675
21
1.8336
0
LINE
8
Black
10
2.4675
20
1.8336
11
2.46605
21
1.83386
0
LINE
8
Black
10
2.46605
20
1.83386
11
2.46458
21
1.83389
0
LINE
8
Black
10
2.46458
20
1.83389
11
2.10085
21
1.90624
0
LINE
8
Black
10
2.10085
20
1.90624
11
2.10054
21
1.90636
0
LINE
8
Black
10
2.10054
20
1.90636
11
2.10021
21
1.90638
0
LINE
8
Black
10
2.10021
20
1.90638
11
2.09812
21
1.9073
0
LINE
8
Black
10
2.09812
20
1.9073
11
2.096
21
1.90812
0
LINE
8
Black
10
2.096
20
1.90812
11
2.09575
21
1.90834
0
LINE
8
Black
10
2.09575
20
1.90834
11
2.09545
21
1.90848
0
LINE
8
Black
10
2.09545
20
1.90848
11
1.79252
21
2.11089
0
LINE
8
Black
10
1.79252
20
2.11089
11
1.79228
21
2.11111
0
LINE
8
Black
10
1.79228
20
2.11111
11
1.79198
21
2.11126
0
LINE
8
Black
10
1.79198
20
2.11126
11
1.7904
21
2.11292
0
LINE
8
Black
10
1.7904
20
2.11292
11
1.78876
21
2.11449
0
LINE
8
Black
10
1.78876
20
2.11449
11
1.78861
21
2.11478
0
LINE
8
Black
10
1.78861
20
2.11478
11
1.78838
21
2.11502
0
LINE
8
Black
10
1.78838
20
2.11502
11
1.58598
21
2.41795
0
LINE
8
Black
10
1.58598
20
2.41795
11
1.58584
21
2.41825
0
LINE
8
Black
10
1.58584
20
2.41825
11
1.58562
21
2.4185
0
LINE
8
Black
10
1.58562
20
2.4185
11
1.5848
21
2.42062
0
LINE
8
Black
10
1.5848
20
2.42062
11
1.58388
21
2.42271
0
LINE
8
Black
10
1.58388
20
2.42271
11
1.58386
21
2.42304
0
LINE
8
Black
10
1.58386
20
2.42304
11
1.58374
21
2.42335
0
LINE
8
Black
10
1.58374
20
2.42335
11
1.51139
21
2.78708
0
LINE
8
Black
10
1.51139
20
2.78708
11
1.51136
21
2.78855
0
LINE
8
Black
10
1.51136
20
2.78855
11
1.5111
21
2.79
0
LINE
8
Black
10
1.5111
20
2.79
11
1.5111
21
14.7772
0
LINE
8
Black
10
1.5111
20
14.7772
11
1.51136
21
14.7786
0
LINE
8
Black
10
1.51136
20
14.7786
11
1.51139
21
14.7801
0
LINE
8
Black
10
1.51139
20
14.7801
11
1.58374
21
15.1438
0
LINE
8
Black
10
1.58374
20
15.1438
11
1.58386
21
15.1442
0
LINE
8
Black
10
1.58386
20
15.1442
11
1.58388
21
15.1445
0
LINE
8
Black
10
1.58388
20
15.1445
11
1.5848
21
15.1466
0
LINE
8
Black
10
1.5848
20
15.1466
11
1.58562
21
15.1487
0
LINE
8
Black
10
1.58562
20
15.1487
11
1.58584
21
15.1489
0
LINE
8
Black
10
1.58584
20
15.1489
11
1.58598
21
15.1493
0
LINE
8
Black
10
1.58598
20
15.1493
11
1.78838
21
15.4522
0
LINE
8
Black
10
1.78838
20
15.4522
11
1.78861
21
15.4524
0
LINE
8
Black
10
1.78861
20
15.4524
11
1.78876
21
15.4527
0
LINE
8
Black
10
1.78876
20
15.4527
11
1.7904
21
15.4543
0
LINE
8
Black
10
1.7904
20
15.4543
11
1.79198
21
15.4559
0
LINE
8
Black
10
1.79198
20
15.4559
11
1.79228
21
15.4561
0
LINE
8
Black
10
1.79228
20
15.4561
11
1.79252
21
15.4563
0
LINE
8
Black
10
1.79252
20
15.4563
11
2.09545
21
15.6587
0
LINE
8
Black
10
2.09545
20
15.6587
11
2.09575
21
15.6589
0
LINE
8
Black
10
2.09575
20
15.6589
11
2.096
21
15.6591
0
LINE
8
Black
10
2.096
20
15.6591
11
2.09812
21
15.6599
0
LINE
8
Black
10
2.09812
20
15.6599
11
2.10021
21
15.6608
0
LINE
8
Black
10
2.10021
20
15.6608
11
2.10054
21
15.6608
0
LINE
8
Black
10
2.10054
20
15.6608
11
2.10085
21
15.661
0
LINE
8
Black
10
2.10085
20
15.661
11
2.46458
21
15.7333
0
LINE
8
Black
10
2.46458
20
15.7333
11
2.46605
21
15.7333
0
LINE
8
Black
10
2.46605
20
15.7333
11
2.4675
21
15.7336
0
LINE
8
Black
10
2.4675
20
15.7336
11
13.335
21
15.7336
0
LINE
8
Black
10
13.335
20
15.7336
11
13.3363
21
15.7334
0
LINE
8
Black
10
13.3363
20
15.7334
11
13.3376
21
15.7334
0
LINE
8
Black
10
13.3376
20
15.7334
11
13.3388
21
15.7329
0
LINE
8
Black
10
13.3388
20
15.7329
11
13.3401
21
15.7327
0
LINE
8
Black
10
13.3401
20
15.7327
11
13.3413
21
15.732
0
LINE
8
Black
10
13.3413
20
15.732
11
13.3425
21
15.7316
0
LINE
8
Black
10
13.3425
20
15.7316
11
13.3435
21
15.7307
0
LINE
8
Black
10
13.3435
20
15.7307
11
13.3446
21
15.7301
0
LINE
8
Black
10
13.3446
20
15.7301
11
13.3455
21
15.7291
0
LINE
8
Black
10
13.3455
20
15.7291
11
13.3465
21
15.7282
0
LINE
8
Black
10
13.3465
20
15.7282
11
13.3471
21
15.7271
0
LINE
8
Black
10
13.3471
20
15.7271
11
13.348
21
15.7261
0
LINE
8
Black
10
13.348
20
15.7261
11
13.3484
21
15.7249
0
LINE
8
Black
10
13.3484
20
15.7249
11
13.3491
21
15.7237
0
LINE
8
Black
10
13.3491
20
15.7237
11
13.3493
21
15.7224
0
LINE
8
Black
10
13.3493
20
15.7224
11
13.3498
21
15.7212
0
LINE
8
Black
10
13.3498
20
15.7212
11
13.3498
21
15.7199
0
LINE
8
Black
10
13.3498
20
15.7199
11
13.35
21
15.7186
0
LINE
8
Black
10
13.35
20
15.7186
11
13.35
21
14.9066
0
LINE
8
Black
10
13.35
20
14.9066
11
13.3496
21
14.9046
0
LINE
8
Black
10
13.3496
20
14.9046
11
13.3494
21
14.9026
0
LINE
8
Black
10
13.3494
20
14.9026
11
13.3492
21
14.902
0
LINE
8
Black
10
13.3492
20
14.902
11
13.3491
21
14.9015
0
LINE
8
Black
10
13.3491
20
14.9015
11
13.3481
21
14.8997
0
LINE
8
Black
10
13.3481
20
14.8997
11
13.3472
21
14.8979
0
LINE
8
Black
10
13.3472
20
14.8979
11
13.3468
21
14.8975
0
LINE
8
Black
10
13.3468
20
14.8975
11
13.3465
21
14.897
0
LINE
8
Black
10
13.3465
20
14.897
11
13.3449
21
14.8957
0
LINE
8
Black
10
13.3449
20
14.8957
11
13.3435
21
14.8942
0
LINE
8
Black
10
13.3435
20
14.8942
11
13.2913
21
14.8586
0
LINE
8
Black
10
13.2913
20
14.8586
11
13.1795
21
14.6849
0
LINE
8
Black
10
13.1795
20
14.6849
11
13.1642
21
14.6034
0
LINE
8
Black
10
13.1642
20
14.6034
11
13.1634
21
14.6013
0
LINE
8
Black
10
13.1634
20
14.6013
11
13.1626
21
14.5991
0
LINE
8
Black
10
13.1626
20
14.5991
11
13.1625
21
14.5988
0
LINE
8
Black
10
13.1625
20
14.5988
11
13.1623
21
14.5985
0
LINE
8
Black
10
13.1623
20
14.5985
11
13.1609
21
14.5968
0
LINE
8
Black
10
13.1609
20
14.5968
11
13.1594
21
14.595
0
LINE
8
Black
10
13.1594
20
14.595
11
13.1592
21
14.5948
0
LINE
8
Black
10
13.1592
20
14.5948
11
13.159
21
14.5946
0
LINE
8
Black
10
13.159
20
14.5946
11
13.1569
21
14.5934
0
LINE
8
Black
10
13.1569
20
14.5934
11
13.155
21
14.5922
0
LINE
8
Black
10
13.155
20
14.5922
11
13.1547
21
14.5922
0
LINE
8
Black
10
13.1547
20
14.5922
11
13.1544
21
14.592
0
LINE
8
Black
10
13.1544
20
14.592
11
13.1522
21
14.5916
0
LINE
8
Black
10
13.1522
20
14.5916
11
13.1499
21
14.5912
0
LINE
8
Black
10
13.1499
20
14.5912
11
13.1496
21
14.5912
0
LINE
8
Black
10
13.1496
20
14.5912
11
13.1493
21
14.5912
0
LINE
8
Black
10
13.1493
20
14.5912
11
13.147
21
14.5916
0
LINE
8
Black
10
13.147
20
14.5916
11
13.1447
21
14.5919
0
LINE
8
Black
10
13.1447
20
14.5919
11
13.1445
21
14.5921
0
LINE
8
Black
10
13.1445
20
14.5921
11
13.1442
21
14.5921
0
LINE
8
Black
10
13.1442
20
14.5921
11
13.1422
21
14.5933
0
LINE
8
Black
10
13.1422
20
14.5933
11
13.1401
21
14.5944
0
LINE
8
Black
10
13.1401
20
14.5944
11
12.8326
21
14.8374
0
LINE
8
Black
10
12.8326
20
14.8374
11
12.6133
21
14.9282
0
LINE
8
Black
10
12.6133
20
14.9282
11
12.394
21
14.8569
0
LINE
8
Black
10
12.394
20
14.8569
11
12.394
21
14.4562
0
LINE
8
Black
10
12.394
20
14.4562
11
12.648
21
14.3638
0
LINE
8
Black
10
12.648
20
14.3638
11
12.9183
21
14.137
0
LINE
8
Black
10
12.9183
20
14.137
11
13.0947
21
13.8314
0
LINE
8
Black
10
13.0947
20
13.8314
11
13.156
21
13.4839
0
LINE
8
Black
10
13.156
20
13.4839
11
13.156
21
13.4761
0
LINE
8
Black
10
13.156
20
13.4761
11
13.0947
21
13.1286
0
LINE
8
Black
10
13.0947
20
13.1286
11
12.9183
21
12.823
0
LINE
8
Black
10
12.9183
20
12.823
11
12.648
21
12.5962
0
LINE
8
Black
10
12.648
20
12.5962
11
12.52
21
12.5496
0
LINE
8
Black
10
12.52
20
12.5496
11
12.52
21
12.0621
0
LINE
8
Black
10
12.52
20
12.0621
11
12.6133
21
12.0318
0
LINE
8
Black
10
12.6133
20
12.0318
11
12.8326
21
12.1226
0
LINE
8
Black
10
12.8326
20
12.1226
11
13.1415
21
12.3667
0
LINE
8
Black
10
13.1415
20
12.3667
11
13.1434
21
12.3677
0
LINE
8
Black
10
13.1434
20
12.3677
11
13.1453
21
12.3689
0
LINE
8
Black
10
13.1453
20
12.3689
11
13.1457
21
12.369
0
LINE
8
Black
10
13.1457
20
12.369
11
13.1461
21
12.3692
0
LINE
8
Black
10
13.1461
20
12.3692
11
13.1483
21
12.3695
0
LINE
8
Black
10
13.1483
20
12.3695
11
13.1504
21
12.3699
0
LINE
8
Black
10
13.1504
20
12.3699
11
13.1508
21
12.3698
0
LINE
8
Black
10
13.1508
20
12.3698
11
13.1512
21
12.3699
0
LINE
8
Black
10
13.1512
20
12.3699
11
13.1534
21
12.3695
0
LINE
8
Black
10
13.1534
20
12.3695
11
13.1556
21
12.3691
0
LINE
8
Black
10
13.1556
20
12.3691
11
13.1559
21
12.3689
0
LINE
8
Black
10
13.1559
20
12.3689
11
13.1563
21
12.3689
0
LINE
8
Black
10
13.1563
20
12.3689
11
13.1582
21
12.3677
0
LINE
8
Black
10
13.1582
20
12.3677
11
13.1602
21
12.3666
0
LINE
8
Black
10
13.1602
20
12.3666
11
13.1604
21
12.3663
0
LINE
8
Black
10
13.1604
20
12.3663
11
13.1608
21
12.3661
0
LINE
8
Black
10
13.1608
20
12.3661
11
13.1621
21
12.3644
0
LINE
8
Black
10
13.1621
20
12.3644
11
13.1636
21
12.3627
0
LINE
8
Black
10
13.1636
20
12.3627
11
13.1638
21
12.3624
0
LINE
8
Black
10
13.1638
20
12.3624
11
13.164
21
12.362
0
LINE
8
Black
10
13.164
20
12.362
11
13.1647
21
12.3599
0
LINE
8
Black
10
13.1647
20
12.3599
11
13.1655
21
12.3579
0
LINE
8
Black
10
13.1655
20
12.3579
11
13.185
21
12.2617
0
LINE
8
Black
10
13.185
20
12.2617
11
13.3014
21
12.0913
0
LINE
8
Black
10
13.3014
20
12.0913
11
13.3431
21
12.0645
0
LINE
8
Black
10
13.3431
20
12.0645
11
13.3448
21
12.0629
0
LINE
8
Black
10
13.3448
20
12.0629
11
13.3465
21
12.0615
0
LINE
8
Black
10
13.3465
20
12.0615
11
13.3467
21
12.0612
0
LINE
8
Black
10
13.3467
20
12.0612
11
13.3469
21
12.0609
0
LINE
8
Black
10
13.3469
20
12.0609
11
13.348
21
12.0589
0
LINE
8
Black
10
13.348
20
12.0589
11
13.3491
21
12.057
0
LINE
8
Black
10
13.3491
20
12.057
11
13.3492
21
12.0566
0
LINE
8
Black
10
13.3492
20
12.0566
11
13.3493
21
12.0563
0
LINE
8
Black
10
13.3493
20
12.0563
11
13.3496
21
12.054
0
LINE
8
Black
10
13.3496
20
12.054
11
13.35
21
12.0518
0
LINE
8
Black
10
13.35
20
12.0518
11
13.35
21
11.94
0
LINE
8
Black
10
13.35
20
11.94
11
14.01
21
11.94
0
LINE
8
Black
10
14.01
20
11.94
11
14.0208
21
11.9381
0
LINE
8
Black
10
14.0208
20
11.9381
11
14.0318
21
11.939
0
LINE
8
Black
10
14.0318
20
11.939
11
14.0633
21
11.9306
0
LINE
8
Black
10
14.0633
20
11.9306
11
14.0955
21
11.9249
0
LINE
8
Black
10
14.0955
20
11.9249
11
14.105
21
11.9194
0
LINE
8
Black
10
14.105
20
11.9194
11
14.1157
21
11.9166
0
LINE
8
Black
10
14.1157
20
11.9166
11
14.1383
21
11.9007
0
LINE
8
Black
10
14.1383
20
11.9007
11
14.5153
21
11.9007
0
LINE
8
Black
10
14.5153
20
11.9007
11
14.5208
21
11.8998
0
LINE
8
Black
10
14.5208
20
11.8998
11
14.5264
21
11.9003
0
LINE
8
Black
10
14.5264
20
11.9003
11
14.5424
21
11.896
0
LINE
8
Black
10
14.5424
20
11.896
11
14.5587
21
11.8931
0
LINE
8
Black
10
14.5587
20
11.8931
11
14.5636
21
11.8903
0
LINE
8
Black
10
14.5636
20
11.8903
11
14.569
21
11.8888
0
LINE
8
Black
10
14.569
20
11.8888
11
14.5825
21
11.8793
0
LINE
8
Black
10
14.5825
20
11.8793
11
14.5969
21
11.871
0
LINE
8
Black
10
14.5969
20
11.871
11
14.6005
21
11.8667
0
LINE
8
Black
10
14.6005
20
11.8667
11
14.6051
21
11.8635
0
LINE
8
Black
10
14.6051
20
11.8635
11
16.3928
21
10.0758
0
LINE
8
Black
10
16.3928
20
10.0758
11
16.396
21
10.0712
0
LINE
8
Black
10
16.396
20
10.0712
11
16.4003
21
10.0677
0
LINE
8
Black
10
16.4003
20
10.0677
11
16.4086
21
10.0533
0
LINE
8
Black
10
16.4086
20
10.0533
11
16.4181
21
10.0397
0
LINE
8
Black
10
16.4181
20
10.0397
11
16.4195
21
10.0343
0
LINE
8
Black
10
16.4195
20
10.0343
11
16.4223
21
10.0295
0
LINE
8
Black
10
16.4223
20
10.0295
11
16.4252
21
10.0131
0
LINE
8
Black
10
16.4252
20
10.0131
11
16.4295
21
9.99709
0
LINE
8
Black
10
16.4295
20
9.99709
11
16.429
21
9.99153
0
LINE
8
Black
10
16.429
20
9.99153
11
16.43
21
9.98602
0
LINE
8
Black
10
16.43
20
9.98602
11
16.43
21
9.517
0
LINE
8
Black
10
16.43
20
9.517
11
16.4281
21
9.50606
0
LINE
8
Black
10
16.4281
20
9.50606
11
16.4281
21
9.49495
0
LINE
8
Black
10
16.4281
20
9.49495
11
16.4243
21
9.48451
0
LINE
8
Black
10
16.4243
20
9.48451
11
16.4223
21
9.47356
0
LINE
8
Black
10
16.4223
20
9.47356
11
16.4168
21
9.46394
0
LINE
8
Black
10
16.4168
20
9.46394
11
16.413
21
9.4535
0
LINE
8
Black
10
16.413
20
9.4535
11
16.4058
21
9.44499
0
LINE
8
Black
10
16.4058
20
9.44499
11
16.4003
21
9.43537
0
LINE
8
Black
10
16.4003
20
9.43537
11
16.3918
21
9.42822
0
LINE
8
Black
10
16.3918
20
9.42822
11
16.3846
21
9.41971
0
LINE
8
Black
10
16.3846
20
9.41971
11
16.375
21
9.41416
0
LINE
8
Black
10
16.375
20
9.41416
11
16.3665
21
9.40701
0
LINE
8
Black
10
16.3665
20
9.40701
11
16.3561
21
9.40321
0
LINE
8
Black
10
16.3561
20
9.40321
11
16.3464
21
9.39766
0
LINE
8
Black
10
16.3464
20
9.39766
11
16.3355
21
9.39573
0
LINE
8
Black
10
16.3355
20
9.39573
11
16.3251
21
9.39193
0
LINE
8
Black
10
16.3251
20
9.39193
11
16.3139
21
9.39193
0
LINE
8
Black
10
16.3139
20
9.39193
11
16.303
21
9.39
0
LINE
8
Black
10
16.303
20
9.39
11
16.21
21
9.39
0
LINE
8
Black
10
16.21
20
9.39
11
16.21
21
8.765
0
LINE
8
Black
10
16.21
20
8.765
11
16.305
21
8.765
0
LINE
8
Black
10
16.305
20
8.765
11
16.305
21
7.495
0
LINE
8
Black
10
16.305
20
7.495
11
16.21
21
7.495
0
LINE
8
Black
10
16.21
20
7.495
11
16.21
21
4.445
0
LINE
8
Black
10
16.21
20
4.445
11
16.305
21
4.445
0
LINE
8
Black
10
16.305
20
4.445
11
16.305
21
3.175
0
LINE
8
Black
10
16.305
20
3.175
11
16.21
21
3.175
0
LINE
8
Black
10
16.21
20
3.175
11
16.21
21
2.84355
0
LINE
8
Black
10
16.21
20
2.84355
11
16.5136
21
2.54
0
LINE
8
Black
10
16.5136
20
2.54
11
19.3064
21
2.54
0
LINE
8
Black
10
19.3064
20
2.54
11
19.52
21
2.75355
0
LINE
8
Black
10
19.52
20
2.75355
11
19.52
21
3.175
0
LINE
8
Black
10
19.52
20
3.175
11
19.405
21
3.175
0
LINE
8
Black
10
19.405
20
3.175
11
19.405
21
4.445
0
LINE
8
Black
10
19.405
20
4.445
11
19.52
21
4.445
0
LINE
8
Black
10
19.52
20
4.445
11
19.52
21
7.495
0
LINE
8
Black
10
19.52
20
7.495
11
19.405
21
7.495
0
LINE
8
Black
10
19.405
20
7.495
11
19.405
21
8.765
0
LINE
8
Black
10
19.405
20
8.765
11
20.115
21
8.765
0
LINE
8
Black
10
20.115
20
8.765
11
20.115
21
7.495
0
LINE
8
Black
10
20.115
20
7.495
11
20.02
21
7.495
0
LINE
8
Black
10
20.02
20
7.495
11
20.02
21
4.445
0
LINE
8
Black
10
20.02
20
4.445
11
20.115
21
4.445
0
LINE
8
Black
10
20.115
20
4.445
11
20.115
21
3.175
0
LINE
8
Black
10
20.115
20
3.175
11
20.02
21
3.175
0
LINE
8
Black
10
20.02
20
3.175
11
20.02
21
2.75355
0
LINE
8
Black
10
20.02
20
2.75355
11
20.2136
21
2.56
0
LINE
8
Black
10
20.2136
20
2.56
11
23.0264
21
2.56
0
LINE
8
Black
10
23.0264
20
2.56
11
23.32
21
2.85355
0
LINE
8
Black
10
23.32
20
2.85355
11
23.32
21
3.175
0
LINE
8
Black
10
23.32
20
3.175
11
23.215
21
3.175
0
LINE
8
Black
10
23.215
20
3.175
11
23.215
21
4.445
0
LINE
8
Black
10
23.215
20
4.445
11
23.33
21
4.445
0
LINE
8
Black
10
23.33
20
4.445
11
23.33
21
7.495
0
LINE
8
Black
10
23.33
20
7.495
11
23.215
21
7.495
0
LINE
8
Black
10
23.215
20
7.495
11
23.215
21
8.765
0
LINE
8
Black
10
23.215
20
8.765
11
23.925
21
8.765
0
LINE
8
Black
10
23.925
20
8.765
11
23.925
21
7.495
0
LINE
8
Black
10
23.925
20
7.495
11
23.83
21
7.495
0
LINE
8
Black
10
23.83
20
7.495
11
23.83
21
4.445
0
LINE
8
Black
10
23.83
20
4.445
11
23.925
21
4.445
0
LINE
8
Black
10
23.925
20
4.445
11
23.925
21
3.175
0
LINE
8
Black
10
23.925
20
3.175
11
23.83
21
3.175
0
LINE
8
Black
10
23.83
20
3.175
11
23.83
21
2.76
0
LINE
8
Black
10
23.83
20
2.76
11
23.8281
21
2.74917
0
LINE
8
Black
10
23.8281
20
2.74917
11
23.829
21
2.73821
0
LINE
8
Black
10
23.829
20
2.73821
11
23.8206
21
2.70666
0
LINE
8
Black
10
23.8206
20
2.70666
11
23.82
21
2.70329
0
LINE
8
Black
10
23.82
20
2.70329
11
23.82
21
2.63355
0
LINE
8
Black
10
23.82
20
2.63355
11
23.9131
21
2.5405
0
LINE
8
Black
10
23.9131
20
2.5405
11
26.9168
21
2.55035
0
LINE
8
Black
10
26.9168
20
2.55035
11
27.13
21
2.76355
0
LINE
8
Black
10
27.13
20
2.76355
11
27.13
21
3.175
0
LINE
8
Black
10
27.13
20
3.175
11
27.025
21
3.175
0
LINE
8
Black
10
27.025
20
3.175
11
27.025
21
4.445
0
LINE
8
Black
10
27.025
20
4.445
11
27.14
21
4.445
0
LINE
8
Black
10
27.14
20
4.445
11
27.14
21
7.495
0
LINE
8
Black
10
27.14
20
7.495
11
27.025
21
7.495
0
LINE
8
Black
10
27.025
20
7.495
11
27.025
21
8.765
0
LINE
8
Black
10
27.025
20
8.765
11
27.735
21
8.765
0
LINE
8
Black
10
27.735
20
8.765
11
27.735
21
7.495
0
LINE
8
Black
10
27.735
20
7.495
11
27.64
21
7.495
0
LINE
8
Black
10
27.64
20
7.495
11
27.64
21
4.445
0
LINE
8
Black
10
27.64
20
4.445
11
27.735
21
4.445
0
LINE
8
Black
10
27.735
20
4.445
11
27.735
21
3.175
0
LINE
8
Black
10
27.735
20
3.175
11
27.64
21
3.175
0
LINE
8
Black
10
27.64
20
3.175
11
27.64
21
2.77355
0
LINE
8
Black
10
27.64
20
2.77355
11
27.8601
21
2.55344
0
LINE
8
Black
10
27.8601
20
2.55344
11
32.0336
21
2.56713
0
LINE
8
Black
10
32.0336
20
2.56713
11
32.22
21
2.75355
0
LINE
8
Black
10
32.22
20
2.75355
11
32.22
21
3.175
0
LINE
8
Black
10
32.22
20
3.175
11
32.105
21
3.175
0
LINE
8
Black
10
32.105
20
3.175
11
32.105
21
4.445
0
LINE
8
Black
10
32.105
20
4.445
11
32.22
21
4.445
0
LINE
8
Black
10
32.22
20
4.445
11
32.22
21
7.495
0
LINE
8
Black
10
32.22
20
7.495
11
32.105
21
7.495
0
LINE
8
Black
10
32.105
20
7.495
11
32.105
21
8.765
0
LINE
8
Black
10
32.105
20
8.765
11
32.21
21
8.765
0
LINE
8
Black
10
32.21
20
8.765
11
32.21
21
9.39193
0
LINE
8
Black
10
32.21
20
9.39193
11
32.2042
21
9.39193
0
LINE
8
Black
10
32.2042
20
9.39193
11
32.1938
21
9.39573
0
LINE
8
Black
10
32.1938
20
9.39573
11
32.1828
21
9.39766
0
LINE
8
Black
10
32.1828
20
9.39766
11
32.1732
21
9.40321
0
LINE
8
Black
10
32.1732
20
9.40321
11
32.1628
21
9.40701
0
LINE
8
Black
10
32.1628
20
9.40701
11
32.1543
21
9.41416
0
LINE
8
Black
10
32.1543
20
9.41416
11
32.1446
21
9.41971
0
LINE
8
Black
10
32.1446
20
9.41971
11
32.1375
21
9.42822
0
LINE
8
Black
10
32.1375
20
9.42822
11
32.129
21
9.43537
0
LINE
8
Black
10
32.129
20
9.43537
11
32.1234
21
9.44499
0
LINE
8
Black
10
32.1234
20
9.44499
11
32.1163
21
9.4535
0
LINE
8
Black
10
32.1163
20
9.4535
11
32.1125
21
9.46394
0
LINE
8
Black
10
32.1125
20
9.46394
11
32.1069
21
9.47356
0
LINE
8
Black
10
32.1069
20
9.47356
11
32.105
21
9.48451
0
LINE
8
Black
10
32.105
20
9.48451
11
32.1012
21
9.49495
0
LINE
8
Black
10
32.1012
20
9.49495
11
32.1012
21
9.50606
0
LINE
8
Black
10
32.1012
20
9.50606
11
32.0993
21
9.517
0
LINE
8
Black
10
32.0993
20
9.517
11
32.0993
21
11.5233
0
LINE
8
Black
10
32.0993
20
11.5233
11
32.0525
21
11.7541
0
LINE
8
Black
10
32.0525
20
11.7541
11
32.0314
21
11.7851
0
LINE
8
Black
10
32.0314
20
11.7851
11
31.7912
21
12.0253
0
LINE
8
Black
10
31.7912
20
12.0253
11
31.739
21
12.0588
0
LINE
8
Black
10
31.739
20
12.0588
11
31.5242
21
12.0993
0
LINE
8
Black
10
31.5242
20
12.0993
11
31.0779
21
12.0993
0
LINE
8
Black
10
31.0779
20
12.0993
11
31.0642
21
12.1017
0
LINE
8
Black
10
31.0642
20
12.1017
11
31.0504
21
12.1023
0
LINE
8
Black
10
31.0504
20
12.1023
11
31.0427
21
12.1055
0
LINE
8
Black
10
31.0427
20
12.1055
11
31.0344
21
12.1069
0
LINE
8
Black
10
31.0344
20
12.1069
11
31.0224
21
12.1138
0
LINE
8
Black
10
31.0224
20
12.1138
11
31.0096
21
12.1192
0
LINE
8
Black
10
31.0096
20
12.1192
11
31.0035
21
12.1248
0
LINE
8
Black
10
31.0035
20
12.1248
11
30.9962
21
12.129
0
LINE
8
Black
10
30.9962
20
12.129
11
30.9873
21
12.1396
0
LINE
8
Black
10
30.9873
20
12.1396
11
30.9771
21
12.149
0
LINE
8
Black
10
30.9771
20
12.149
11
30.9733
21
12.1564
0
LINE
8
Black
10
30.9733
20
12.1564
11
30.9679
21
12.1628
0
LINE
8
Black
10
30.9679
20
12.1628
11
30.9632
21
12.1758
0
LINE
8
Black
10
30.9632
20
12.1758
11
30.9568
21
12.1881
0
LINE
8
Black
10
30.9568
20
12.1881
11
30.9557
21
12.1964
0
LINE
8
Black
10
30.9557
20
12.1964
11
30.9528
21
12.2042
0
LINE
8
Black
10
30.9528
20
12.2042
11
30.9528
21
12.2181
0
LINE
8
Black
10
30.9528
20
12.2181
11
30.951
21
12.2318
0
LINE
8
Black
10
30.951
20
12.2318
11
30.9528
21
12.24
0
LINE
8
Black
10
30.9528
20
12.24
11
30.9528
21
12.2483
0
LINE
8
Black
10
30.9528
20
12.2483
11
30.9575
21
12.2613
0
LINE
8
Black
10
30.9575
20
12.2613
11
30.9605
21
12.2749
0
LINE
8
Black
10
30.9605
20
12.2749
11
31.006
21
12.3846
0
LINE
8
Black
10
31.006
20
12.3846
11
31.006
21
12.8104
0
LINE
8
Black
10
31.006
20
12.8104
11
30.5814
21
13.235
0
LINE
8
Black
10
30.5814
20
13.235
11
30.456
21
13.235
0
LINE
8
Black
10
30.456
20
13.235
11
30.456
21
12.494
0
LINE
8
Black
10
30.456
20
12.494
11
28.424
21
12.494
0
LINE
8
Black
10
28.424
20
12.494
11
28.424
21
14.526
0
LINE
8
Black
10
28.424
20
14.526
11
30.456
21
14.526
0
LINE
8
Black
10
30.456
20
14.526
11
30.456
21
13.785
0
LINE
8
Black
10
30.456
20
13.785
11
30.9111
21
13.785
0
LINE
8
Black
10
30.9111
20
13.785
11
31.006
21
13.8799
0
LINE
8
Black
10
31.006
20
13.8799
11
31.006
21
14.356
0
LINE
8
Black
10
31.006
20
14.356
11
31.0089
21
14.3724
0
LINE
8
Black
10
31.0089
20
14.3724
11
31.0103
21
14.3889
0
LINE
8
Black
10
31.0103
20
14.3889
11
31.0127
21
14.394
0
LINE
8
Black
10
31.0127
20
14.394
11
31.0137
21
14.3995
0
LINE
8
Black
10
31.0137
20
14.3995
11
31.022
21
14.4138
0
LINE
8
Black
10
31.022
20
14.4138
11
31.029
21
14.4289
0
LINE
8
Black
10
31.029
20
14.4289
11
31.0329
21
14.4328
0
LINE
8
Black
10
31.0329
20
14.4328
11
31.0357
21
14.4377
0
LINE
8
Black
10
31.0357
20
14.4377
11
31.0484
21
14.4483
0
LINE
8
Black
10
31.0484
20
14.4483
11
31.0602
21
14.4601
0
LINE
8
Black
10
31.0602
20
14.4601
11
31.0652
21
14.4624
0
LINE
8
Black
10
31.0652
20
14.4624
11
31.0695
21
14.466
0
LINE
8
Black
10
31.0695
20
14.466
11
31.0851
21
14.4717
0
LINE
8
Black
10
31.0851
20
14.4717
11
31.1001
21
14.4787
0
LINE
8
Black
10
31.1001
20
14.4787
11
31.1057
21
14.4792
0
LINE
8
Black
10
31.1057
20
14.4792
11
31.1109
21
14.4811
0
LINE
8
Black
10
31.1109
20
14.4811
11
31.1275
21
14.4811
0
LINE
8
Black
10
31.1275
20
14.4811
11
31.1441
21
14.4825
0
LINE
8
Black
10
31.1441
20
14.4825
11
31.1495
21
14.4811
0
LINE
8
Black
10
31.1495
20
14.4811
11
31.1551
21
14.4811
0
LINE
8
Black
10
31.1551
20
14.4811
11
31.1706
21
14.4754
0
LINE
8
Black
10
31.1706
20
14.4754
11
31.1867
21
14.4711
0
LINE
8
Black
10
31.1867
20
14.4711
11
31.1912
21
14.4679
0
LINE
8
Black
10
31.1912
20
14.4679
11
31.1965
21
14.466
0
LINE
8
Black
10
31.1965
20
14.466
11
31.2092
21
14.4553
0
LINE
8
Black
10
31.2092
20
14.4553
11
31.2228
21
14.4458
0
LINE
8
Black
10
31.2228
20
14.4458
11
31.8465
21
13.8221
0
LINE
8
Black
10
31.8465
20
13.8221
11
31.8568
21
13.8074
0
LINE
8
Black
10
31.8568
20
13.8074
11
31.8681
21
13.7934
0
LINE
8
Black
10
31.8681
20
13.7934
11
31.8694
21
13.7894
0
LINE
8
Black
10
31.8694
20
13.7894
11
31.8718
21
13.786
0
LINE
8
Black
10
31.8718
20
13.786
11
31.8765
21
13.7686
0
LINE
8
Black
10
31.8765
20
13.7686
11
31.8822
21
13.7516
0
LINE
8
Black
10
31.8822
20
13.7516
11
31.8821
21
13.7474
0
LINE
8
Black
10
31.8821
20
13.7474
11
31.8832
21
13.7434
0
LINE
8
Black
10
31.8832
20
13.7434
11
31.8817
21
13.7255
0
LINE
8
Black
10
31.8817
20
13.7255
11
31.8813
21
13.7075
0
LINE
8
Black
10
31.8813
20
13.7075
11
31.8764
21
13.6831
0
LINE
8
Black
10
31.8764
20
13.6831
11
31.8764
21
13.3369
0
LINE
8
Black
10
31.8764
20
13.3369
11
31.9863
21
12.7844
0
LINE
8
Black
10
31.9863
20
12.7844
11
32.2922
21
12.3266
0
LINE
8
Black
10
32.2922
20
12.3266
11
32.75
21
12.0207
0
LINE
8
Black
10
32.75
20
12.0207
11
33.29
21
11.9133
0
LINE
8
Black
10
33.29
20
11.9133
11
33.83
21
12.0207
0
LINE
8
Black
10
33.83
20
12.0207
11
34.2878
21
12.3266
0
LINE
8
Black
10
34.2878
20
12.3266
11
34.4544
21
12.576
0
LINE
8
Black
10
34.4544
20
12.576
11
34.464
21
12.586
0
LINE
8
Black
10
34.464
20
12.586
11
34.4722
21
12.5971
0
LINE
8
Black
10
34.4722
20
12.5971
11
34.4791
21
12.6018
0
LINE
8
Black
10
34.4791
20
12.6018
11
34.4849
21
12.6078
0
LINE
8
Black
10
34.4849
20
12.6078
11
34.4973
21
12.6139
0
LINE
8
Black
10
34.4973
20
12.6139
11
34.5089
21
12.6216
0
LINE
8
Black
10
34.5089
20
12.6216
11
34.517
21
12.6236
0
LINE
8
Black
10
34.517
20
12.6236
11
34.5245
21
12.6273
0
LINE
8
Black
10
34.5245
20
12.6273
11
34.5382
21
12.6288
0
LINE
8
Black
10
34.5382
20
12.6288
11
34.5517
21
12.6321
0
LINE
8
Black
10
34.5517
20
12.6321
11
34.56
21
12.6312
0
LINE
8
Black
10
34.56
20
12.6312
11
34.5683
21
12.6321
0
LINE
8
Black
10
34.5683
20
12.6321
11
34.5818
21
12.6288
0
LINE
8
Black
10
34.5818
20
12.6288
11
34.5955
21
12.6273
0
LINE
8
Black
10
34.5955
20
12.6273
11
34.603
21
12.6236
0
LINE
8
Black
10
34.603
20
12.6236
11
34.6111
21
12.6216
0
LINE
8
Black
10
34.6111
20
12.6216
11
34.6227
21
12.6139
0
LINE
8
Black
10
34.6227
20
12.6139
11
34.6351
21
12.6078
0
LINE
8
Black
10
34.6351
20
12.6078
11
34.6409
21
12.6018
0
LINE
8
Black
10
34.6409
20
12.6018
11
34.6478
21
12.5971
0
LINE
8
Black
10
34.6478
20
12.5971
11
34.656
21
12.586
0
LINE
8
Black
10
34.656
20
12.586
11
34.6656
21
12.576
0
LINE
8
Black
10
34.6656
20
12.576
11
34.8322
21
12.3266
0
LINE
8
Black
10
34.8322
20
12.3266
11
35.29
21
12.0207
0
LINE
8
Black
10
35.29
20
12.0207
11
35.83
21
11.9133
0
LINE
8
Black
10
35.83
20
11.9133
11
36.37
21
12.0207
0
LINE
8
Black
10
36.37
20
12.0207
11
36.8278
21
12.3266
0
LINE
8
Black
10
36.8278
20
12.3266
11
36.9947
21
12.5764
0
LINE
8
Black
10
36.9947
20
12.5764
11
36.9975
21
12.5794
0
LINE
8
Black
10
36.9975
20
12.5794
11
36.9994
21
12.583
0
LINE
8
Black
10
36.9994
20
12.583
11
37.0127
21
12.5952
0
LINE
8
Black
10
37.0127
20
12.5952
11
37.0252
21
12.6083
0
LINE
8
Black
10
37.0252
20
12.6083
11
37.0289
21
12.6101
0
LINE
8
Black
10
37.0289
20
12.6101
11
37.0319
21
12.6129
0
LINE
8
Black
10
37.0319
20
12.6129
11
37.0486
21
12.6198
0
LINE
8
Black
10
37.0486
20
12.6198
11
37.0648
21
12.6278
0
LINE
8
Black
10
37.0648
20
12.6278
11
37.0688
21
12.6282
0
LINE
8
Black
10
37.0688
20
12.6282
11
37.0726
21
12.6298
0
LINE
8
Black
10
37.0726
20
12.6298
11
37.0907
21
12.6306
0
LINE
8
Black
10
37.0907
20
12.6306
11
37.1086
21
12.6326
0
LINE
8
Black
10
37.1086
20
12.6326
11
37.1126
21
12.6316
0
LINE
8
Black
10
37.1126
20
12.6316
11
37.1167
21
12.6318
0
LINE
8
Black
10
37.1167
20
12.6318
11
37.1339
21
12.6264
0
LINE
8
Black
10
37.1339
20
12.6264
11
37.1514
21
12.6221
0
LINE
8
Black
10
37.1514
20
12.6221
11
37.1549
21
12.6198
0
LINE
8
Black
10
37.1549
20
12.6198
11
37.1588
21
12.6186
0
LINE
8
Black
10
37.1588
20
12.6186
11
37.1731
21
12.6076
0
LINE
8
Black
10
37.1731
20
12.6076
11
37.1881
21
12.5976
0
LINE
8
Black
10
37.1881
20
12.5976
11
37.1905
21
12.5943
0
LINE
8
Black
10
37.1905
20
12.5943
11
37.1938
21
12.5918
0
LINE
8
Black
10
37.1938
20
12.5918
11
37.5375
21
12.2178
0
LINE
8
Black
10
37.5375
20
12.2178
11
37.9802
21
12.0084
0
LINE
8
Black
10
37.9802
20
12.0084
11
38.095
21
12.0701
0
LINE
8
Black
10
38.095
20
12.0701
11
38.095
21
12.5487
0
LINE
8
Black
10
38.095
20
12.5487
11
37.9382
21
12.6058
0
LINE
8
Black
10
37.9382
20
12.6058
11
37.7084
21
12.7986
0
LINE
8
Black
10
37.7084
20
12.7986
11
37.5585
21
13.0583
0
LINE
8
Black
10
37.5585
20
13.0583
11
37.5064
21
13.3537
0
LINE
8
Black
10
37.5064
20
13.3537
11
37.5064
21
13.6663
0
LINE
8
Black
10
37.5064
20
13.6663
11
37.5585
21
13.9616
0
LINE
8
Black
10
37.5585
20
13.9616
11
37.7084
21
14.2214
0
LINE
8
Black
10
37.7084
20
14.2214
11
37.9382
21
14.4142
0
LINE
8
Black
10
37.9382
20
14.4142
11
38.22
21
14.5168
0
LINE
8
Black
10
38.22
20
14.5168
11
38.52
21
14.5168
0
LINE
8
Black
10
38.52
20
14.5168
11
38.8018
21
14.4142
0
LINE
8
Black
10
38.8018
20
14.4142
11
39.0316
21
14.2214
0
LINE
8
Black
10
39.0316
20
14.2214
11
39.1815
21
13.9616
0
LINE
8
Black
10
39.1815
20
13.9616
11
39.2336
21
13.6663
0
LINE
8
Black
10
39.2336
20
13.6663
11
39.2336
21
13.3537
0
LINE
8
Black
10
39.2336
20
13.3537
11
39.1815
21
13.0583
0
LINE
8
Black
10
39.1815
20
13.0583
11
39.0316
21
12.7986
0
LINE
8
Black
10
39.0316
20
12.7986
11
38.8018
21
12.6058
0
LINE
8
Black
10
38.8018
20
12.6058
11
38.645
21
12.5487
0
LINE
8
Black
10
38.645
20
12.5487
11
38.645
21
12.0701
0
LINE
8
Black
10
38.645
20
12.0701
11
38.7598
21
12.0084
0
LINE
8
Black
10
38.7598
20
12.0084
11
39.2025
21
12.2178
0
LINE
8
Black
10
39.2025
20
12.2178
11
39.3119
21
12.3368
0
LINE
8
Black
10
39.3119
20
12.3368
11
39.3172
21
12.3409
0
LINE
8
Black
10
39.3172
20
12.3409
11
39.3213
21
12.3461
0
LINE
8
Black
10
39.3213
20
12.3461
11
39.3346
21
12.3542
0
LINE
8
Black
10
39.3346
20
12.3542
11
39.3469
21
12.3636
0
LINE
8
Black
10
39.3469
20
12.3636
11
39.3532
21
12.3656
0
LINE
8
Black
10
39.3532
20
12.3656
11
39.3589
21
12.3691
0
LINE
8
Black
10
39.3589
20
12.3691
11
39.3742
21
12.3722
0
LINE
8
Black
10
39.3742
20
12.3722
11
39.389
21
12.3768
0
LINE
8
Black
10
39.389
20
12.3768
11
39.3956
21
12.3765
0
LINE
8
Black
10
39.3956
20
12.3765
11
39.4022
21
12.3778
0
LINE
8
Black
10
39.4022
20
12.3778
11
39.4175
21
12.3755
0
LINE
8
Black
10
39.4175
20
12.3755
11
39.433
21
12.3748
0
LINE
8
Black
10
39.433
20
12.3748
11
39.4392
21
12.3723
0
LINE
8
Black
10
39.4392
20
12.3723
11
39.4458
21
12.3713
0
LINE
8
Black
10
39.4458
20
12.3713
11
39.4594
21
12.3639
0
LINE
8
Black
10
39.4594
20
12.3639
11
39.4738
21
12.3579
0
LINE
8
Black
10
39.4738
20
12.3579
11
39.4787
21
12.3534
0
LINE
8
Black
10
39.4787
20
12.3534
11
39.4845
21
12.3502
0
LINE
8
Black
10
39.4845
20
12.3502
11
39.4948
21
12.3386
0
LINE
8
Black
10
39.4948
20
12.3386
11
39.5062
21
12.328
0
LINE
8
Black
10
39.5062
20
12.328
11
39.5093
21
12.3221
0
LINE
8
Black
10
39.5093
20
12.3221
11
39.5137
21
12.3171
0
LINE
8
Black
10
39.5137
20
12.3171
11
39.5194
21
12.3027
0
LINE
8
Black
10
39.5194
20
12.3027
11
39.5265
21
12.2889
0
LINE
8
Black
10
39.5265
20
12.2889
11
39.5274
21
12.2823
0
LINE
8
Black
10
39.5274
20
12.2823
11
39.5298
21
12.2761
0
LINE
8
Black
10
39.5298
20
12.2761
11
39.5299
21
12.2759
0
LINE
8
Black
10
39.5299
20
12.2759
11
39.6555
21
12.0921
0
LINE
8
Black
10
39.6555
20
12.0921
11
39.8434
21
11.9712
0
LINE
8
Black
10
39.8434
20
11.9712
11
40.0582
21
11.9307
0
LINE
8
Black
10
40.0582
20
11.9307
11
41.7609
21
11.9307
0
LINE
8
Black
10
41.7609
20
11.9307
11
41.9917
21
11.9775
0
LINE
8
Black
10
41.9917
20
11.9775
11
42.1755
21
12.1031
0
LINE
8
Black
10
42.1755
20
12.1031
11
42.2964
21
12.291
0
LINE
8
Black
10
42.2964
20
12.291
11
42.2997
21
12.3083
0
LINE
8
Black
10
42.2997
20
12.3083
11
42.3071
21
12.3279
0
LINE
8
Black
10
42.3071
20
12.3279
11
42.3141
21
12.3477
0
LINE
8
Black
10
42.3141
20
12.3477
11
42.3149
21
12.3485
0
LINE
8
Black
10
42.3149
20
12.3485
11
42.3153
21
12.3496
0
LINE
8
Black
10
42.3153
20
12.3496
11
42.3289
21
12.3655
0
LINE
8
Black
10
42.3289
20
12.3655
11
42.3423
21
12.3816
0
LINE
8
Black
10
42.3423
20
12.3816
11
42.3432
21
12.3822
0
LINE
8
Black
10
42.3432
20
12.3822
11
42.344
21
12.3831
0
LINE
8
Black
10
42.344
20
12.3831
11
42.3622
21
12.3933
0
LINE
8
Black
10
42.3622
20
12.3933
11
42.3803
21
12.4039
0
LINE
8
Black
10
42.3803
20
12.4039
11
42.3814
21
12.4041
0
LINE
8
Black
10
42.3814
20
12.4041
11
42.3824
21
12.4047
0
LINE
8
Black
10
42.3824
20
12.4047
11
42.4031
21
12.4081
0
LINE
8
Black
10
42.4031
20
12.4081
11
42.4237
21
12.4118
0
LINE
8
Black
10
42.4237
20
12.4118
11
42.2962
21
12.411
0
LINE
8
Black
10
42.2962
20
12.411
11
42.2961
21
12.4111
0
LINE
8
Black
10
42.2961
20
12.4111
11
42.2959
21
12.411
0
LINE
8
Black
10
42.2959
20
12.411
11
42.2935
21
12.4115
0
LINE
8
Black
10
42.2935
20
12.4115
11
42.2911
21
12.4119
0
LINE
8
Black
10
42.2911
20
12.4119
11
42.2909
21
12.412
0
LINE
8
Black
10
42.2909
20
12.412
11
42.2908
21
12.412
0
LINE
8
Black
10
42.2908
20
12.412
11
42.2887
21
12.4133
0
LINE
8
Black
10
42.2887
20
12.4133
11
42.2865
21
12.4145
0
LINE
8
Black
10
42.2865
20
12.4145
11
42.2864
21
12.4146
0
LINE
8
Black
10
42.2864
20
12.4146
11
42.2863
21
12.4147
0
LINE
8
Black
10
42.2863
20
12.4147
11
42.2848
21
12.4166
0
LINE
8
Black
10
42.2848
20
12.4166
11
42.2832
21
12.4185
0
LINE
8
Black
10
42.2832
20
12.4185
11
42.2831
21
12.4186
0
LINE
8
Black
10
42.2831
20
12.4186
11
42.283
21
12.4187
0
LINE
8
Black
10
42.283
20
12.4187
11
42.2822
21
12.421
0
LINE
8
Black
10
42.2822
20
12.421
11
42.2813
21
12.4233
0
LINE
8
Black
10
42.2813
20
12.4233
11
42.2813
21
12.4235
0
LINE
8
Black
10
42.2813
20
12.4235
11
42.2813
21
12.4236
0
LINE
8
Black
10
42.2813
20
12.4236
11
42.2813
21
12.4261
0
LINE
8
Black
10
42.2813
20
12.4261
11
42.2813
21
12.4286
0
LINE
8
Black
10
42.2813
20
12.4286
11
42.2814
21
12.4287
0
LINE
8
Black
10
42.2814
20
12.4287
11
42.2814
21
12.4288
0
LINE
8
Black
10
42.2814
20
12.4288
11
42.2939
21
12.4954
0
LINE
8
Black
10
42.2939
20
12.4954
11
42.2939
21
14.5245
0
LINE
8
Black
10
42.2939
20
14.5245
11
42.2526
21
14.7283
0
LINE
8
Black
10
8.51022
20
2.49026
11
8.5115
21
2.49001
0
LINE
8
Black
10
8.5115
20
2.49001
11
15.8324
21
2.51401
0
LINE
8
Black
10
15.8324
20
2.51401
11
15.7832
21
2.56322
0
LINE
8
Black
10
15.7832
20
2.56322
11
15.7769
21
2.57223
0
LINE
8
Black
10
15.7769
20
2.57223
11
15.7685
21
2.5793
0
LINE
8
Black
10
15.7685
20
2.5793
11
15.7522
21
2.60759
0
LINE
8
Black
10
15.7522
20
2.60759
11
15.7334
21
2.63435
0
LINE
8
Black
10
15.7334
20
2.63435
11
15.7306
21
2.64497
0
LINE
8
Black
10
15.7306
20
2.64497
11
15.7251
21
2.65449
0
LINE
8
Black
10
15.7251
20
2.65449
11
15.7194
21
2.68666
0
LINE
8
Black
10
15.7194
20
2.68666
11
15.711
21
2.71821
0
LINE
8
Black
10
15.711
20
2.71821
11
15.7119
21
2.72917
0
LINE
8
Black
10
15.7119
20
2.72917
11
15.71
21
2.74
0
LINE
8
Black
10
15.71
20
2.74
11
15.71
21
3.175
0
LINE
8
Black
10
15.71
20
3.175
11
15.595
21
3.175
0
LINE
8
Black
10
15.595
20
3.175
11
15.595
21
4.445
0
LINE
8
Black
10
15.595
20
4.445
11
15.71
21
4.445
0
LINE
8
Black
10
15.71
20
4.445
11
15.71
21
7.495
0
LINE
8
Black
10
15.71
20
7.495
11
15.595
21
7.495
0
LINE
8
Black
10
15.595
20
7.495
11
15.595
21
8.765
0
LINE
8
Black
10
15.595
20
8.765
11
15.71
21
8.765
0
LINE
8
Black
10
15.71
20
8.765
11
15.71
21
9.39
0
LINE
8
Black
10
15.71
20
9.39
11
15.5702
21
9.39
0
LINE
8
Black
10
15.5702
20
9.39
11
15.5498
21
9.39359
0
LINE
8
Black
10
15.5498
20
9.39359
11
15.5294
21
9.39674
0
LINE
8
Black
10
15.5294
20
9.39674
11
15.5281
21
9.39741
0
LINE
8
Black
10
15.5281
20
9.39741
11
15.5267
21
9.39766
0
LINE
8
Black
10
15.5267
20
9.39766
11
15.5088
21
9.40801
0
LINE
8
Black
10
15.5088
20
9.40801
11
15.4907
21
9.41795
0
LINE
8
Black
10
15.4907
20
9.41795
11
15.4898
21
9.41901
0
LINE
8
Black
10
15.4898
20
9.41901
11
15.4886
21
9.41971
0
LINE
8
Black
10
15.4886
20
9.41971
11
15.4753
21
9.43554
0
LINE
8
Black
10
15.4753
20
9.43554
11
15.4616
21
9.45111
0
LINE
8
Black
10
15.4616
20
9.45111
11
15.4611
21
9.45243
0
LINE
8
Black
10
15.4611
20
9.45243
11
15.4602
21
9.4535
0
LINE
8
Black
10
15.4602
20
9.4535
11
15.4531
21
9.47292
0
LINE
8
Black
10
15.4531
20
9.47292
11
15.4456
21
9.49222
0
LINE
8
Black
10
15.4456
20
9.49222
11
15.4268
21
9.58684
0
LINE
8
Black
10
15.4268
20
9.58684
11
15.2468
21
9.85617
0
LINE
8
Black
10
15.2468
20
9.85617
11
13.9562
21
11.1468
0
LINE
8
Black
10
13.9562
20
11.1468
11
13.6868
21
11.3268
0
LINE
8
Black
10
13.6868
20
11.3268
11
13.3691
21
11.39
0
LINE
8
Black
10
13.3691
20
11.39
11
11.8225
21
11.39
0
LINE
8
Black
10
11.8225
20
11.39
11
11.5048
21
11.3268
0
LINE
8
Black
10
11.5048
20
11.3268
11
11.2355
21
11.1468
0
LINE
8
Black
10
11.2355
20
11.1468
11
9.75316
21
9.66453
0
LINE
8
Black
10
9.75316
20
9.66453
11
9.68721
21
9.56583
0
LINE
8
Black
10
9.68721
20
9.56583
11
9.5732
21
9.3952
0
LINE
8
Black
10
9.5732
20
9.3952
11
9.51
21
9.07749
0
LINE
8
Black
10
9.51
20
9.07749
11
9.51
21
8.68626
0
LINE
8
Black
10
9.51
20
8.68626
11
9.50807
21
8.67532
0
LINE
8
Black
10
9.50807
20
8.67532
11
9.50807
21
8.66421
0
LINE
8
Black
10
9.50807
20
8.66421
11
9.50427
21
8.65377
0
LINE
8
Black
10
9.50427
20
8.65377
11
9.50234
21
8.64283
0
LINE
8
Black
10
9.50234
20
8.64283
11
9.49678
21
8.6332
0
LINE
8
Black
10
9.49678
20
8.6332
11
9.49298
21
8.62276
0
LINE
8
Black
10
9.49298
20
8.62276
11
9.48584
21
8.61425
0
LINE
8
Black
10
9.48584
20
8.61425
11
9.48029
21
8.60463
0
LINE
8
Black
10
9.48029
20
8.60463
11
9.47178
21
8.59749
0
LINE
8
Black
10
9.47178
20
8.59749
11
9.46463
21
8.58897
0
LINE
8
Black
10
9.46463
20
8.58897
11
9.45501
21
8.58342
0
LINE
8
Black
10
9.45501
20
8.58342
11
9.4465
21
8.57628
0
LINE
8
Black
10
9.4465
20
8.57628
11
9.43606
21
8.57248
0
LINE
8
Black
10
9.43606
20
8.57248
11
9.42644
21
8.56692
0
LINE
8
Black
10
9.42644
20
8.56692
11
9.41549
21
8.56499
0
LINE
8
Black
10
9.41549
20
8.56499
11
9.40505
21
8.56119
0
LINE
8
Black
10
9.40505
20
8.56119
11
9.39394
21
8.56119
0
LINE
8
Black
10
9.39394
20
8.56119
11
9.383
21
8.55926
0
LINE
8
Black
10
9.383
20
8.55926
11
9.20673
21
8.55926
0
LINE
8
Black
10
9.20673
20
8.55926
11
8.97586
21
8.51251
0
LINE
8
Black
10
8.97586
20
8.51251
11
8.7921
21
8.38695
0
LINE
8
Black
10
8.7921
20
8.38695
11
8.7438
21
8.31189
0
LINE
8
Black
10
8.7438
20
8.31189
11
8.73832
21
8.30597
0
LINE
8
Black
10
8.73832
20
8.30597
11
8.73429
21
8.29898
0
LINE
8
Black
10
8.73429
20
8.29898
11
8.72346
21
8.28989
0
LINE
8
Black
10
8.72346
20
8.28989
11
8.71385
21
8.27951
0
LINE
8
Black
10
8.71385
20
8.27951
11
8.70668
21
8.27581
0
LINE
8
Black
10
8.70668
20
8.27581
11
8.7005
21
8.27063
0
LINE
8
Black
10
8.7005
20
8.27063
11
8.68722
21
8.2658
0
LINE
8
Black
10
8.68722
20
8.2658
11
8.67464
21
8.25932
0
LINE
8
Black
10
8.67464
20
8.25932
11
8.66663
21
8.2583
0
LINE
8
Black
10
8.66663
20
8.2583
11
8.65905
21
8.25554
0
LINE
8
Black
10
8.65905
20
8.25554
11
8.64491
21
8.25554
0
LINE
8
Black
10
8.64491
20
8.25554
11
8.63088
21
8.25376
0
LINE
8
Black
10
8.63088
20
8.25376
11
8.62302
21
8.25554
0
LINE
8
Black
10
8.62302
20
8.25554
11
8.61495
21
8.25554
0
LINE
8
Black
10
8.61495
20
8.25554
11
8.60166
21
8.26038
0
LINE
8
Black
10
8.60166
20
8.26038
11
8.58787
21
8.26351
0
LINE
8
Black
10
8.58787
20
8.26351
11
8.58108
21
8.26787
0
LINE
8
Black
10
8.58108
20
8.26787
11
8.5735
21
8.27063
0
LINE
8
Black
10
8.5735
20
8.27063
11
8.56267
21
8.27972
0
LINE
8
Black
10
8.56267
20
8.27972
11
8.55077
21
8.28737
0
LINE
8
Black
10
8.55077
20
8.28737
11
8.54589
21
8.2938
0
LINE
8
Black
10
8.54589
20
8.2938
11
8.53971
21
8.29898
0
LINE
8
Black
10
8.53971
20
8.29898
11
8.53264
21
8.31123
0
LINE
8
Black
10
8.53264
20
8.31123
11
8.52408
21
8.32249
0
LINE
8
Black
10
8.52408
20
8.32249
11
8.52169
21
8.33019
0
LINE
8
Black
10
8.52169
20
8.33019
11
8.51766
21
8.33718
0
LINE
8
Black
10
8.51766
20
8.33718
11
8.5152
21
8.3511
0
LINE
8
Black
10
8.5152
20
8.3511
11
8.51101
21
8.36461
0
LINE
8
Black
10
8.51101
20
8.36461
11
8.5114
21
8.37267
0
LINE
8
Black
10
8.5114
20
8.37267
11
8.51
21
8.38062
0
LINE
8
Black
10
8.51
20
8.38062
11
8.51
21
2.49141
0
LINE
8
Black
10
8.51
20
2.49141
11
8.51022
21
2.49026
0
LINE
8
Black
10
43.5302
20
5.97629
11
43.5302
21
5.9776
0
LINE
8
Black
10
43.5302
20
5.9776
11
43.5307
21
5.97884
0
LINE
8
Black
10
43.5307
20
5.97884
11
43.5309
21
5.98013
0
LINE
8
Black
10
43.5309
20
5.98013
11
43.5316
21
5.98127
0
LINE
8
Black
10
43.5316
20
5.98127
11
43.532
21
5.9825
0
LINE
8
Black
10
43.532
20
5.9825
11
43.5329
21
5.9835
0
LINE
8
Black
10
43.5329
20
5.9835
11
43.5335
21
5.98464
0
LINE
8
Black
10
43.5335
20
5.98464
11
43.5345
21
5.98549
0
LINE
8
Black
10
43.5345
20
5.98549
11
43.5354
21
5.98649
0
LINE
8
Black
10
43.5354
20
5.98649
11
43.5365
21
5.98715
0
LINE
8
Black
10
43.5365
20
5.98715
11
43.5375
21
5.98799
0
LINE
8
Black
10
43.5375
20
5.98799
11
43.5387
21
5.98844
0
LINE
8
Black
10
43.5387
20
5.98844
11
43.5399
21
5.98909
0
LINE
8
Black
10
43.5399
20
5.98909
11
43.5412
21
5.98932
0
LINE
8
Black
10
43.5412
20
5.98932
11
43.5424
21
5.98977
0
LINE
8
Black
10
43.5424
20
5.98977
11
43.5437
21
5.98977
0
LINE
8
Black
10
43.5437
20
5.98977
11
43.545
21
5.99
0
LINE
8
Black
10
43.545
20
5.99
11
44.4067
21
5.99
0
LINE
8
Black
10
44.4067
20
5.99
11
44.4084
21
5.98971
0
LINE
8
Black
10
44.4084
20
5.98971
11
44.41
21
5.98963
0
LINE
8
Black
10
44.41
20
5.98963
11
44.4109
21
5.98926
0
LINE
8
Black
10
44.4109
20
5.98926
11
44.4118
21
5.98909
0
LINE
8
Black
10
44.4118
20
5.98909
11
44.4133
21
5.98826
0
LINE
8
Black
10
44.4133
20
5.98826
11
44.4148
21
5.98761
0
LINE
8
Black
10
44.4148
20
5.98761
11
44.5051
21
5.92952
0
LINE
8
Black
10
44.5051
20
5.92952
11
44.5866
21
5.91418
0
LINE
8
Black
10
44.5866
20
5.91418
11
44.5887
21
5.91338
0
LINE
8
Black
10
44.5887
20
5.91338
11
44.5909
21
5.91265
0
LINE
8
Black
10
44.5909
20
5.91265
11
44.5912
21
5.91245
0
LINE
8
Black
10
44.5912
20
5.91245
11
44.5915
21
5.91235
0
LINE
8
Black
10
44.5915
20
5.91235
11
44.5932
21
5.91085
0
LINE
8
Black
10
44.5932
20
5.91085
11
44.595
21
5.90942
0
LINE
8
Black
10
44.595
20
5.90942
11
44.5952
21
5.90916
0
LINE
8
Black
10
44.5952
20
5.90916
11
44.5954
21
5.90895
0
LINE
8
Black
10
44.5954
20
5.90895
11
44.5966
21
5.90694
0
LINE
8
Black
10
44.5966
20
5.90694
11
44.5978
21
5.90499
0
LINE
8
Black
10
44.5978
20
5.90499
11
44.5978
21
5.90468
0
LINE
8
Black
10
44.5978
20
5.90468
11
44.598
21
5.90441
0
LINE
8
Black
10
44.598
20
5.90441
11
44.5984
21
5.90215
0
LINE
8
Black
10
44.5984
20
5.90215
11
44.5988
21
5.89988
0
LINE
8
Black
10
44.5988
20
5.89988
11
44.5988
21
5.89958
0
LINE
8
Black
10
44.5988
20
5.89958
11
44.5988
21
5.89927
0
LINE
8
Black
10
44.5988
20
5.89927
11
44.5984
21
5.89701
0
LINE
8
Black
10
44.5984
20
5.89701
11
44.5981
21
5.89473
0
LINE
8
Black
10
44.5981
20
5.89473
11
44.5979
21
5.89446
0
LINE
8
Black
10
44.5979
20
5.89446
11
44.5979
21
5.89415
0
LINE
8
Black
10
44.5979
20
5.89415
11
44.5967
21
5.89217
0
LINE
8
Black
10
44.5967
20
5.89217
11
44.5956
21
5.89014
0
LINE
8
Black
10
44.5956
20
5.89014
11
44.3526
21
5.58262
0
LINE
8
Black
10
44.3526
20
5.58262
11
44.2618
21
5.36326
0
LINE
8
Black
10
44.2618
20
5.36326
11
44.3331
21
5.144
0
LINE
8
Black
10
44.3331
20
5.144
11
44.7338
21
5.144
0
LINE
8
Black
10
44.7338
20
5.144
11
44.8262
21
5.398
0
LINE
8
Black
10
44.8262
20
5.398
11
45.053
21
5.6683
0
LINE
8
Black
10
45.053
20
5.6683
11
45.3586
21
5.84473
0
LINE
8
Black
10
45.3586
20
5.84473
11
45.7061
21
5.906
0
LINE
8
Black
10
45.7061
20
5.906
11
45.7139
21
5.906
0
LINE
8
Black
10
45.7139
20
5.906
11
46.0614
21
5.84473
0
LINE
8
Black
10
46.0614
20
5.84473
11
46.367
21
5.6683
0
LINE
8
Black
10
46.367
20
5.6683
11
46.5938
21
5.398
0
LINE
8
Black
10
46.5938
20
5.398
11
46.6862
21
5.144
0
LINE
8
Black
10
46.6862
20
5.144
11
47.0869
21
5.144
0
LINE
8
Black
10
47.0869
20
5.144
11
47.1582
21
5.36326
0
LINE
8
Black
10
47.1582
20
5.36326
11
47.0674
21
5.58262
0
LINE
8
Black
10
47.0674
20
5.58262
11
46.8233
21
5.89151
0
LINE
8
Black
10
46.8233
20
5.89151
11
46.8223
21
5.89345
0
LINE
8
Black
10
46.8223
20
5.89345
11
46.8211
21
5.89532
0
LINE
8
Black
10
46.8211
20
5.89532
11
46.821
21
5.89573
0
LINE
8
Black
10
46.821
20
5.89573
11
46.8208
21
5.89609
0
LINE
8
Black
10
46.8208
20
5.89609
11
46.8205
21
5.89828
0
LINE
8
Black
10
46.8205
20
5.89828
11
46.8201
21
5.90043
0
LINE
8
Black
10
46.8201
20
5.90043
11
46.8202
21
5.90083
0
LINE
8
Black
10
46.8202
20
5.90083
11
46.8201
21
5.90125
0
LINE
8
Black
10
46.8201
20
5.90125
11
46.8205
21
5.90341
0
LINE
8
Black
10
46.8205
20
5.90341
11
46.8209
21
5.90558
0
LINE
8
Black
10
46.8209
20
5.90558
11
46.8211
21
5.90594
0
LINE
8
Black
10
46.8211
20
5.90594
11
46.8211
21
5.90635
0
LINE
8
Black
10
46.8211
20
5.90635
11
46.8223
21
5.90821
0
LINE
8
Black
10
46.8223
20
5.90821
11
46.8234
21
5.91015
0
LINE
8
Black
10
46.8234
20
5.91015
11
46.8237
21
5.91043
0
LINE
8
Black
10
46.8237
20
5.91043
11
46.8239
21
5.91078
0
LINE
8
Black
10
46.8239
20
5.91078
11
46.8256
21
5.91215
0
LINE
8
Black
10
46.8256
20
5.91215
11
46.8273
21
5.9136
0
LINE
8
Black
10
46.8273
20
5.9136
11
46.8276
21
5.91375
0
LINE
8
Black
10
46.8276
20
5.91375
11
46.828
21
5.91401
0
LINE
8
Black
10
46.828
20
5.91401
11
46.8301
21
5.9147
0
LINE
8
Black
10
46.8301
20
5.9147
11
46.8321
21
5.91551
0
LINE
8
Black
10
46.8321
20
5.91551
11
46.9283
21
5.93499
0
LINE
8
Black
10
46.9283
20
5.93499
11
47.005
21
5.98738
0
LINE
8
Black
10
47.005
20
5.98738
11
47.0067
21
5.98816
0
LINE
8
Black
10
47.0067
20
5.98816
11
47.0083
21
5.98909
0
LINE
8
Black
10
47.0083
20
5.98909
11
47.0091
21
5.98922
0
LINE
8
Black
10
47.0091
20
5.98922
11
47.0097
21
5.98953
0
LINE
8
Black
10
47.0097
20
5.98953
11
47.0116
21
5.98967
0
LINE
8
Black
10
47.0116
20
5.98967
11
47.0135
21
5.99
0
LINE
8
Black
10
47.0135
20
5.99
11
47.1086
21
5.99
0
LINE
8
Black
10
47.1086
20
5.99
11
47.1097
21
5.99021
0
LINE
8
Black
10
47.1097
20
5.99021
11
47.11
21
5.99151
0
LINE
8
Black
10
47.11
20
5.99151
11
47.11
21
6.06454
0
LINE
8
Black
10
47.11
20
6.06454
11
47.1103
21
6.06619
0
LINE
8
Black
10
47.1103
20
6.06619
11
47.1104
21
6.06786
0
LINE
8
Black
10
47.1104
20
6.06786
11
47.1107
21
6.06873
0
LINE
8
Black
10
47.1107
20
6.06873
11
47.1109
21
6.06967
0
LINE
8
Black
10
47.1109
20
6.06967
11
47.1117
21
6.07112
0
LINE
8
Black
10
47.1117
20
6.07112
11
47.1124
21
6.07266
0
LINE
8
Black
10
47.1124
20
6.07266
11
47.2105
21
6.2251
0
LINE
8
Black
10
47.2105
20
6.2251
11
47.2463
21
6.4154
0
LINE
8
Black
10
47.2463
20
6.4154
11
47.2463
21
8.44449
0
LINE
8
Black
10
47.2463
20
8.44449
11
47.205
21
8.6483
0
LINE
8
Black
10
47.205
20
8.6483
11
47.1338
21
8.75246
0
LINE
8
Black
10
47.1338
20
8.75246
11
47.1126
21
8.78353
0
LINE
8
Black
10
47.1126
20
8.78353
11
47.1118
21
8.78524
0
LINE
8
Black
10
47.1118
20
8.78524
11
47.1109
21
8.78686
0
LINE
8
Black
10
47.1109
20
8.78686
11
47.1108
21
8.7876
0
LINE
8
Black
10
47.1108
20
8.7876
11
47.1105
21
8.78828
0
LINE
8
Black
10
47.1105
20
8.78828
11
47.1103
21
8.79015
0
LINE
8
Black
10
47.1103
20
8.79015
11
47.11
21
8.79199
0
LINE
8
Black
10
47.11
20
8.79199
11
47.11
21
9.80671
0
LINE
8
Black
10
47.11
20
9.80671
11
47.1103
21
9.80835
0
LINE
8
Black
10
47.1103
20
9.80835
11
47.1104
21
9.81002
0
LINE
8
Black
10
47.1104
20
9.81002
11
47.1107
21
9.8109
0
LINE
8
Black
10
47.1107
20
9.8109
11
47.1109
21
9.81184
0
LINE
8
Black
10
47.1109
20
9.81184
11
47.1117
21
9.81328
0
LINE
8
Black
10
47.1117
20
9.81328
11
47.1124
21
9.81482
0
LINE
8
Black
10
47.1124
20
9.81482
11
47.1705
21
9.9051
0
LINE
8
Black
10
47.1705
20
9.9051
11
47.2063
21
10.0954
0
LINE
8
Black
10
47.2063
20
10.0954
11
47.2063
21
12.1245
0
LINE
8
Black
10
47.2063
20
12.1245
11
47.165
21
12.3283
0
LINE
8
Black
10
47.165
20
12.3283
11
47.1126
21
12.405
0
LINE
8
Black
10
47.1126
20
12.405
11
47.1118
21
12.4067
0
LINE
8
Black
10
47.1118
20
12.4067
11
47.1109
21
12.4083
0
LINE
8
Black
10
47.1109
20
12.4083
11
47.1108
21
12.4091
0
LINE
8
Black
10
47.1108
20
12.4091
11
47.1105
21
12.4097
0
LINE
8
Black
10
47.1105
20
12.4097
11
47.1103
21
12.4116
0
LINE
8
Black
10
47.1103
20
12.4116
11
47.11
21
12.4135
0
LINE
8
Black
10
47.11
20
12.4135
11
47.11
21
12.4386
0
LINE
8
Black
10
47.11
20
12.4386
11
47.1098
21
12.4397
0
LINE
8
Black
10
47.1098
20
12.4397
11
47.1085
21
12.44
0
LINE
8
Black
10
47.1085
20
12.44
11
47.0966
21
12.44
0
LINE
8
Black
10
47.0966
20
12.44
11
47.0946
21
12.4404
0
LINE
8
Black
10
47.0946
20
12.4404
11
47.0926
21
12.4406
0
LINE
8
Black
10
47.0926
20
12.4406
11
47.092
21
12.4408
0
LINE
8
Black
10
47.092
20
12.4408
11
47.0915
21
12.4409
0
LINE
8
Black
10
47.0915
20
12.4409
11
47.0897
21
12.4419
0
LINE
8
Black
10
47.0897
20
12.4419
11
47.0879
21
12.4428
0
LINE
8
Black
10
47.0879
20
12.4428
11
47.0875
21
12.4432
0
LINE
8
Black
10
47.0875
20
12.4432
11
47.087
21
12.4435
0
LINE
8
Black
10
47.087
20
12.4435
11
47.0857
21
12.4451
0
LINE
8
Black
10
47.0857
20
12.4451
11
47.0842
21
12.4465
0
LINE
8
Black
10
47.0842
20
12.4465
11
47.0486
21
12.4987
0
LINE
8
Black
10
47.0486
20
12.4987
11
46.8749
21
12.6105
0
LINE
8
Black
10
46.8749
20
12.6105
11
46.7934
21
12.6258
0
LINE
8
Black
10
46.7934
20
12.6258
11
46.7912
21
12.6266
0
LINE
8
Black
10
46.7912
20
12.6266
11
46.789
21
12.6274
0
LINE
8
Black
10
46.789
20
12.6274
11
46.7888
21
12.6275
0
LINE
8
Black
10
46.7888
20
12.6275
11
46.7885
21
12.6277
0
LINE
8
Black
10
46.7885
20
12.6277
11
46.7868
21
12.6292
0
LINE
8
Black
10
46.7868
20
12.6292
11
46.785
21
12.6306
0
LINE
8
Black
10
46.785
20
12.6306
11
46.7848
21
12.6308
0
LINE
8
Black
10
46.7848
20
12.6308
11
46.7846
21
12.631
0
LINE
8
Black
10
46.7846
20
12.631
11
46.7834
21
12.6331
0
LINE
8
Black
10
46.7834
20
12.6331
11
46.7822
21
12.635
0
LINE
8
Black
10
46.7822
20
12.635
11
46.7822
21
12.6353
0
LINE
8
Black
10
46.7822
20
12.6353
11
46.782
21
12.6356
0
LINE
8
Black
10
46.782
20
12.6356
11
46.7816
21
12.6379
0
LINE
8
Black
10
46.7816
20
12.6379
11
46.7812
21
12.6401
0
LINE
8
Black
10
46.7812
20
12.6401
11
46.7812
21
12.6404
0
LINE
8
Black
10
46.7812
20
12.6404
11
46.7812
21
12.6407
0
LINE
8
Black
10
46.7812
20
12.6407
11
46.7816
21
12.643
0
LINE
8
Black
10
46.7816
20
12.643
11
46.7819
21
12.6453
0
LINE
8
Black
10
46.7819
20
12.6453
11
46.7821
21
12.6455
0
LINE
8
Black
10
46.7821
20
12.6455
11
46.7821
21
12.6458
0
LINE
8
Black
10
46.7821
20
12.6458
11
46.7833
21
12.6478
0
LINE
8
Black
10
46.7833
20
12.6478
11
46.7844
21
12.6499
0
LINE
8
Black
10
46.7844
20
12.6499
11
47.0274
21
12.9574
0
LINE
8
Black
10
47.0274
20
12.9574
11
47.1182
21
13.1767
0
LINE
8
Black
10
47.1182
20
13.1767
11
47.0469
21
13.396
0
LINE
8
Black
10
47.0469
20
13.396
11
46.6462
21
13.396
0
LINE
8
Black
10
46.6462
20
13.396
11
46.5538
21
13.142
0
LINE
8
Black
10
46.5538
20
13.142
11
46.327
21
12.8717
0
LINE
8
Black
10
46.327
20
12.8717
11
46.0214
21
12.6953
0
LINE
8
Black
10
46.0214
20
12.6953
11
45.6739
21
12.634
0
LINE
8
Black
10
45.6739
20
12.634
11
45.6661
21
12.634
0
LINE
8
Black
10
45.6661
20
12.634
11
45.3186
21
12.6953
0
LINE
8
Black
10
45.3186
20
12.6953
11
45.013
21
12.8717
0
LINE
8
Black
10
45.013
20
12.8717
11
44.7862
21
13.142
0
LINE
8
Black
10
44.7862
20
13.142
11
44.6938
21
13.396
0
LINE
8
Black
10
44.6938
20
13.396
11
44.2931
21
13.396
0
LINE
8
Black
10
44.2931
20
13.396
11
44.2218
21
13.1767
0
LINE
8
Black
10
44.2218
20
13.1767
11
44.3126
21
12.9574
0
LINE
8
Black
10
44.3126
20
12.9574
11
44.5567
21
12.6485
0
LINE
8
Black
10
44.5567
20
12.6485
11
44.5577
21
12.6466
0
LINE
8
Black
10
44.5577
20
12.6466
11
44.5589
21
12.6447
0
LINE
8
Black
10
44.5589
20
12.6447
11
44.559
21
12.6443
0
LINE
8
Black
10
44.559
20
12.6443
11
44.5592
21
12.6439
0
LINE
8
Black
10
44.5592
20
12.6439
11
44.5595
21
12.6417
0
LINE
8
Black
10
44.5595
20
12.6417
11
44.5599
21
12.6396
0
LINE
8
Black
10
44.5599
20
12.6396
11
44.5598
21
12.6392
0
LINE
8
Black
10
44.5598
20
12.6392
11
44.5599
21
12.6388
0
LINE
8
Black
10
44.5599
20
12.6388
11
44.5595
21
12.6366
0
LINE
8
Black
10
44.5595
20
12.6366
11
44.5591
21
12.6344
0
LINE
8
Black
10
44.5591
20
12.6344
11
44.5589
21
12.6341
0
LINE
8
Black
10
44.5589
20
12.6341
11
44.5588
21
12.6337
0
LINE
8
Black
10
44.5588
20
12.6337
11
44.5577
21
12.6318
0
LINE
8
Black
10
44.5577
20
12.6318
11
44.5566
21
12.6298
0
LINE
8
Black
10
44.5566
20
12.6298
11
44.5563
21
12.6296
0
LINE
8
Black
10
44.5563
20
12.6296
11
44.5561
21
12.6292
0
LINE
8
Black
10
44.5561
20
12.6292
11
44.5544
21
12.6279
0
LINE
8
Black
10
44.5544
20
12.6279
11
44.5527
21
12.6264
0
LINE
8
Black
10
44.5527
20
12.6264
11
44.5524
21
12.6262
0
LINE
8
Black
10
44.5524
20
12.6262
11
44.552
21
12.626
0
LINE
8
Black
10
44.552
20
12.626
11
44.5499
21
12.6253
0
LINE
8
Black
10
44.5499
20
12.6253
11
44.5479
21
12.6245
0
LINE
8
Black
10
44.5479
20
12.6245
11
44.4517
21
12.605
0
LINE
8
Black
10
44.4517
20
12.605
11
44.2813
21
12.4886
0
LINE
8
Black
10
44.2813
20
12.4886
11
44.2545
21
12.4469
0
LINE
8
Black
10
44.2545
20
12.4469
11
44.2529
21
12.4452
0
LINE
8
Black
10
44.2529
20
12.4452
11
44.2515
21
12.4435
0
LINE
8
Black
10
44.2515
20
12.4435
11
44.2512
21
12.4433
0
LINE
8
Black
10
44.2512
20
12.4433
11
44.2509
21
12.4431
0
LINE
8
Black
10
44.2509
20
12.4431
11
44.2489
21
12.442
0
LINE
8
Black
10
44.2489
20
12.442
11
44.247
21
12.4409
0
LINE
8
Black
10
44.247
20
12.4409
11
44.2466
21
12.4408
0
LINE
8
Black
10
44.2466
20
12.4408
11
44.2463
21
12.4407
0
LINE
8
Black
10
44.2463
20
12.4407
11
44.2441
21
12.4404
0
LINE
8
Black
10
44.2441
20
12.4404
11
44.2418
21
12.44
0
LINE
8
Black
10
44.2418
20
12.44
11
43.7214
21
12.44
0
LINE
8
Black
10
43.7214
20
12.44
11
43.7203
21
12.4398
0
LINE
8
Black
10
43.7203
20
12.4398
11
43.72
21
12.4385
0
LINE
8
Black
10
43.72
20
12.4385
11
43.72
21
12.4349
0
LINE
8
Black
10
43.72
20
12.4349
11
43.7198
21
12.4337
0
LINE
8
Black
10
43.7198
20
12.4337
11
43.7198
21
12.4324
0
LINE
8
Black
10
43.7198
20
12.4324
11
43.7193
21
12.4311
0
LINE
8
Black
10
43.7193
20
12.4311
11
43.7191
21
12.4298
0
LINE
8
Black
10
43.7191
20
12.4298
11
43.7185
21
12.4287
0
LINE
8
Black
10
43.7185
20
12.4287
11
43.718
21
12.4275
0
LINE
8
Black
10
43.718
20
12.4275
11
43.7172
21
12.4264
0
LINE
8
Black
10
43.7172
20
12.4264
11
43.7165
21
12.4253
0
LINE
8
Black
10
43.7165
20
12.4253
11
43.7155
21
12.4245
0
LINE
8
Black
10
43.7155
20
12.4245
11
43.7147
21
12.4235
0
LINE
8
Black
10
43.7147
20
12.4235
11
43.7135
21
12.4228
0
LINE
8
Black
10
43.7135
20
12.4228
11
43.7125
21
12.4219
0
LINE
8
Black
10
43.7125
20
12.4219
11
43.7113
21
12.4215
0
LINE
8
Black
10
43.7113
20
12.4215
11
43.7102
21
12.4208
0
LINE
8
Black
10
43.7102
20
12.4208
11
43.7089
21
12.4206
0
LINE
8
Black
10
43.7089
20
12.4206
11
43.7076
21
12.4201
0
LINE
8
Black
10
43.7076
20
12.4201
11
43.7063
21
12.4201
0
LINE
8
Black
10
43.7063
20
12.4201
11
43.7051
21
12.4199
0
LINE
8
Black
10
43.7051
20
12.4199
11
43.7073
21
12.4199
0
LINE
8
Black
10
43.7073
20
12.4199
11
43.7256
21
12.4238
0
LINE
8
Black
10
43.7256
20
12.4238
11
43.7266
21
12.4242
0
LINE
8
Black
10
43.7266
20
12.4242
11
43.7407
21
12.4323
0
LINE
8
Black
10
43.7407
20
12.4323
11
43.7465
21
12.4334
0
LINE
8
Black
10
43.7465
20
12.4334
11
43.7519
21
12.4358
0
LINE
8
Black
10
43.7519
20
12.4358
11
43.7681
21
12.4372
0
LINE
8
Black
10
43.7681
20
12.4372
11
43.7841
21
12.44
0
LINE
8
Black
10
43.7841
20
12.44
11
43.9989
21
12.44
0
LINE
8
Black
10
43.9989
20
12.44
11
43.9996
21
12.4399
0
LINE
8
Black
10
43.9996
20
12.4399
11
44.0004
21
12.44
0
LINE
8
Black
10
44.0004
20
12.44
11
44.0214
21
12.436
0
LINE
8
Black
10
44.0214
20
12.436
11
44.0424
21
12.4323
0
LINE
8
Black
10
44.0424
20
12.4323
11
44.043
21
12.432
0
LINE
8
Black
10
44.043
20
12.432
11
44.0437
21
12.4318
0
LINE
8
Black
10
44.0437
20
12.4318
11
44.0621
21
12.421
0
LINE
8
Black
10
44.0621
20
12.421
11
44.0806
21
12.4103
0
LINE
8
Black
10
44.0806
20
12.4103
11
44.081
21
12.4097
0
LINE
8
Black
10
44.081
20
12.4097
11
44.0817
21
12.4093
0
LINE
8
Black
10
44.0817
20
12.4093
11
44.0952
21
12.3928
0
LINE
8
Black
10
44.0952
20
12.3928
11
44.1089
21
12.3765
0
LINE
8
Black
10
44.1089
20
12.3765
11
44.1092
21
12.3758
0
LINE
8
Black
10
44.1092
20
12.3758
11
44.1096
21
12.3752
0
LINE
8
Black
10
44.1096
20
12.3752
11
44.1167
21
12.3551
0
LINE
8
Black
10
44.1167
20
12.3551
11
44.124
21
12.3351
0
LINE
8
Black
10
44.124
20
12.3351
11
44.124
21
12.3343
0
LINE
8
Black
10
44.124
20
12.3343
11
44.1242
21
12.3336
0
LINE
8
Black
10
44.1242
20
12.3336
11
44.124
21
12.3123
0
LINE
8
Black
10
44.124
20
12.3123
11
44.124
21
12.2909
0
LINE
8
Black
10
44.124
20
12.2909
11
44.1237
21
12.2903
0
LINE
8
Black
10
44.1237
20
12.2903
11
44.1237
21
12.2895
0
LINE
8
Black
10
44.1237
20
12.2895
11
44.0907
21
12.1142
0
LINE
8
Black
10
44.0907
20
12.1142
11
44.0907
21
11.362
0
LINE
8
Black
10
44.0907
20
11.362
11
44.0888
21
11.3511
0
LINE
8
Black
10
44.0888
20
11.3511
11
44.0888
21
11.3399
0
LINE
8
Black
10
44.0888
20
11.3399
11
44.085
21
11.3295
0
LINE
8
Black
10
44.085
20
11.3295
11
44.0831
21
11.3186
0
LINE
8
Black
10
44.0831
20
11.3186
11
44.0775
21
11.3089
0
LINE
8
Black
10
44.0775
20
11.3089
11
44.0737
21
11.2985
0
LINE
8
Black
10
44.0737
20
11.2985
11
44.0666
21
11.29
0
LINE
8
Black
10
44.0666
20
11.29
11
44.061
21
11.2804
0
LINE
8
Black
10
44.061
20
11.2804
11
44.0525
21
11.2732
0
LINE
8
Black
10
44.0525
20
11.2732
11
44.0454
21
11.2647
0
LINE
8
Black
10
44.0454
20
11.2647
11
44.0357
21
11.2592
0
LINE
8
Black
10
44.0357
20
11.2592
11
44.0272
21
11.252
0
LINE
8
Black
10
44.0272
20
11.252
11
44.0168
21
11.2482
0
LINE
8
Black
10
44.0168
20
11.2482
11
44.0072
21
11.2427
0
LINE
8
Black
10
44.0072
20
11.2427
11
43.9962
21
11.2407
0
LINE
8
Black
10
43.9962
20
11.2407
11
43.9858
21
11.2369
0
LINE
8
Black
10
43.9858
20
11.2369
11
43.9747
21
11.2369
0
LINE
8
Black
10
43.9747
20
11.2369
11
43.9637
21
11.235
0
LINE
8
Black
10
43.9637
20
11.235
11
34.1025
21
11.235
0
LINE
8
Black
10
34.1025
20
11.235
11
33.737
21
11.1623
0
LINE
8
Black
10
33.737
20
11.1623
11
33.4271
21
10.9552
0
LINE
8
Black
10
33.4271
20
10.9552
11
33.0848
21
10.6129
0
LINE
8
Black
10
33.0848
20
10.6129
11
32.8777
21
10.303
0
LINE
8
Black
10
32.8777
20
10.303
11
32.805
21
9.93749
0
LINE
8
Black
10
32.805
20
9.93749
11
32.805
21
9.517
0
LINE
8
Black
10
32.805
20
9.517
11
32.8031
21
9.50606
0
LINE
8
Black
10
32.8031
20
9.50606
11
32.8031
21
9.49495
0
LINE
8
Black
10
32.8031
20
9.49495
11
32.7993
21
9.48451
0
LINE
8
Black
10
32.7993
20
9.48451
11
32.7973
21
9.47356
0
LINE
8
Black
10
32.7973
20
9.47356
11
32.7918
21
9.46394
0
LINE
8
Black
10
32.7918
20
9.46394
11
32.788
21
9.4535
0
LINE
8
Black
10
32.788
20
9.4535
11
32.7808
21
9.44499
0
LINE
8
Black
10
32.7808
20
9.44499
11
32.7753
21
9.43537
0
LINE
8
Black
10
32.7753
20
9.43537
11
32.7668
21
9.42822
0
LINE
8
Black
10
32.7668
20
9.42822
11
32.7596
21
9.41971
0
LINE
8
Black
10
32.7596
20
9.41971
11
32.75
21
9.41416
0
LINE
8
Black
10
32.75
20
9.41416
11
32.7415
21
9.40701
0
LINE
8
Black
10
32.7415
20
9.40701
11
32.7311
21
9.40321
0
LINE
8
Black
10
32.7311
20
9.40321
11
32.7214
21
9.39766
0
LINE
8
Black
10
32.7214
20
9.39766
11
32.7105
21
9.39573
0
LINE
8
Black
10
32.7105
20
9.39573
11
32.71
21
9.39555
0
LINE
8
Black
10
32.71
20
9.39555
11
32.71
21
8.765
0
LINE
8
Black
10
32.71
20
8.765
11
32.815
21
8.765
0
LINE
8
Black
10
32.815
20
8.765
11
32.815
21
7.495
0
LINE
8
Black
10
32.815
20
7.495
11
32.72
21
7.495
0
LINE
8
Black
10
32.72
20
7.495
11
32.72
21
4.445
0
LINE
8
Black
10
32.72
20
4.445
11
32.815
21
4.445
0
LINE
8
Black
10
32.815
20
4.445
11
32.815
21
3.175
0
LINE
8
Black
10
32.815
20
3.175
11
32.72
21
3.175
0
LINE
8
Black
10
32.72
20
3.175
11
32.72
21
2.73355
0
LINE
8
Black
10
32.72
20
2.73355
11
32.8836
21
2.56991
0
LINE
8
Black
10
32.8836
20
2.56991
11
34.6421
21
2.57568
0
LINE
8
Black
10
34.6421
20
2.57568
11
34.75
21
2.68355
0
LINE
8
Black
10
34.75
20
2.68355
11
34.75
21
3.175
0
LINE
8
Black
10
34.75
20
3.175
11
34.645
21
3.175
0
LINE
8
Black
10
34.645
20
3.175
11
34.645
21
4.445
0
LINE
8
Black
10
34.645
20
4.445
11
34.76
21
4.445
0
LINE
8
Black
10
34.76
20
4.445
11
34.76
21
7.495
0
LINE
8
Black
10
34.76
20
7.495
11
34.645
21
7.495
0
LINE
8
Black
10
34.645
20
7.495
11
34.645
21
8.765
0
LINE
8
Black
10
34.645
20
8.765
11
35.355
21
8.765
0
LINE
8
Black
10
35.355
20
8.765
11
35.355
21
7.495
0
LINE
8
Black
10
35.355
20
7.495
11
35.26
21
7.495
0
LINE
8
Black
10
35.26
20
7.495
11
35.26
21
4.445
0
LINE
8
Black
10
35.26
20
4.445
11
35.355
21
4.445
0
LINE
8
Black
10
35.355
20
4.445
11
35.355
21
3.175
0
LINE
8
Black
10
35.355
20
3.175
11
35.26
21
3.175
0
LINE
8
Black
10
35.26
20
3.175
11
35.26
21
2.69355
0
LINE
8
Black
10
35.26
20
2.69355
11
35.3755
21
2.57808
0
LINE
8
Black
10
35.3755
20
2.57808
11
35.9364
21
2.57992
0
LINE
8
Black
10
35.9364
20
2.57992
11
36.03
21
2.67355
0
LINE
8
Black
10
36.03
20
2.67355
11
36.03
21
3.175
0
LINE
8
Black
10
36.03
20
3.175
11
35.915
21
3.175
0
LINE
8
Black
10
35.915
20
3.175
11
35.915
21
4.445
0
LINE
8
Black
10
35.915
20
4.445
11
36.03
21
4.445
0
LINE
8
Black
10
36.03
20
4.445
11
36.03
21
7.495
0
LINE
8
Black
10
36.03
20
7.495
11
35.915
21
7.495
0
LINE
8
Black
10
35.915
20
7.495
11
35.915
21
8.765
0
LINE
8
Black
10
35.915
20
8.765
11
36.625
21
8.765
0
LINE
8
Black
10
36.625
20
8.765
11
36.625
21
7.495
0
LINE
8
Black
10
36.625
20
7.495
11
36.53
21
7.495
0
LINE
8
Black
10
36.53
20
7.495
11
36.53
21
4.445
0
LINE
8
Black
10
36.53
20
4.445
11
36.625
21
4.445
0
LINE
8
Black
10
36.625
20
4.445
11
36.625
21
3.175
0
LINE
8
Black
10
36.625
20
3.175
11
36.53
21
3.175
0
LINE
8
Black
10
36.53
20
3.175
11
36.53
21
2.72355
0
LINE
8
Black
10
36.53
20
2.72355
11
36.6712
21
2.58233
0
LINE
8
Black
10
36.6712
20
2.58233
11
38.56
21
2.58852
0
LINE
8
Black
10
38.56
20
2.58852
11
38.56
21
3.175
0
LINE
8
Black
10
38.56
20
3.175
11
38.455
21
3.175
0
LINE
8
Black
10
38.455
20
3.175
11
38.455
21
4.445
0
LINE
8
Black
10
38.455
20
4.445
11
38.56
21
4.445
0
LINE
8
Black
10
38.56
20
4.445
11
38.56
21
7.495
0
LINE
8
Black
10
38.56
20
7.495
11
38.455
21
7.495
0
LINE
8
Black
10
38.455
20
7.495
11
38.455
21
8.765
0
LINE
8
Black
10
38.455
20
8.765
11
39.165
21
8.765
0
LINE
8
Black
10
39.165
20
8.765
11
39.165
21
7.495
0
LINE
8
Black
10
39.165
20
7.495
11
39.06
21
7.495
0
LINE
8
Black
10
39.06
20
7.495
11
39.06
21
4.445
0
LINE
8
Black
10
39.06
20
4.445
11
39.165
21
4.445
0
LINE
8
Black
10
39.165
20
4.445
11
39.165
21
3.175
0
LINE
8
Black
10
39.165
20
3.175
11
39.06
21
3.175
0
LINE
8
Black
10
39.06
20
3.175
11
39.06
21
2.66221
0
LINE
8
Black
10
39.06
20
2.66221
11
39.6722
21
2.66464
0
LINE
8
Black
10
39.6722
20
2.66464
11
39.6736
21
2.6644
0
LINE
8
Black
10
39.6736
20
2.6644
11
39.675
21
2.66438
0
LINE
8
Black
10
39.675
20
2.66438
11
39.7264
21
2.65471
0
LINE
8
Black
10
39.7264
20
2.65471
11
40.4335
21
2.65471
0
LINE
8
Black
10
40.4335
20
2.65471
11
40.4973
21
2.66763
0
LINE
8
Black
10
40.4973
20
2.66763
11
40.4987
21
2.66767
0
LINE
8
Black
10
40.4987
20
2.66767
11
40.5002
21
2.66793
0
LINE
8
Black
10
40.5002
20
2.66793
11
40.9159
21
2.66958
0
LINE
8
Black
10
40.9159
20
2.66958
11
40.9174
21
2.66934
0
LINE
8
Black
10
40.9174
20
2.66934
11
40.9188
21
2.66932
0
LINE
8
Black
10
40.9188
20
2.66932
11
40.9964
21
2.65471
0
LINE
8
Black
10
40.9964
20
2.65471
11
41.7035
21
2.65471
0
LINE
8
Black
10
41.7035
20
2.65471
11
41.7927
21
2.67277
0
LINE
8
Black
10
41.7927
20
2.67277
11
41.7941
21
2.67281
0
LINE
8
Black
10
41.7941
20
2.67281
11
41.7956
21
2.67307
0
LINE
8
Black
10
41.7956
20
2.67307
11
42.1597
21
2.67452
0
LINE
8
Black
10
42.1597
20
2.67452
11
42.1611
21
2.67427
0
LINE
8
Black
10
42.1611
20
2.67427
11
42.1625
21
2.67426
0
LINE
8
Black
10
42.1625
20
2.67426
11
42.2664
21
2.65471
0
LINE
8
Black
10
42.2664
20
2.65471
11
42.9735
21
2.65471
0
LINE
8
Black
10
42.9735
20
2.65471
11
43.0881
21
2.67792
0
LINE
8
Black
10
43.0881
20
2.67792
11
43.0895
21
2.67796
0
LINE
8
Black
10
43.0895
20
2.67796
11
43.091
21
2.67822
0
LINE
8
Black
10
43.091
20
2.67822
11
43.5385
21
2.67999
0
LINE
8
Black
10
43.5385
20
2.67999
11
43.5396
21
2.68023
0
LINE
8
Black
10
43.5396
20
2.68023
11
43.5392
21
2.68086
0
LINE
8
Black
10
43.5392
20
2.68086
11
43.3847
21
2.84921
0
LINE
8
Black
10
43.3847
20
2.84921
11
43.3836
21
2.8509
0
LINE
8
Black
10
43.3836
20
2.8509
11
43.3824
21
2.85249
0
LINE
8
Black
10
43.3824
20
2.85249
11
43.3822
21
2.85308
0
LINE
8
Black
10
43.3822
20
2.85308
11
43.3819
21
2.8536
0
LINE
8
Black
10
43.3819
20
2.8536
11
43.3815
21
2.85555
0
LINE
8
Black
10
43.3815
20
2.85555
11
43.3809
21
2.85746
0
LINE
8
Black
10
43.3809
20
2.85746
11
43.3809
21
2.85808
0
LINE
8
Black
10
43.3809
20
2.85808
11
43.3808
21
2.85869
0
LINE
8
Black
10
43.3808
20
2.85869
11
43.381
21
2.86068
0
LINE
8
Black
10
43.381
20
2.86068
11
43.3811
21
2.86267
0
LINE
8
Black
10
43.3811
20
2.86267
11
43.3814
21
2.86324
0
LINE
8
Black
10
43.3814
20
2.86324
11
43.3814
21
2.86385
0
LINE
8
Black
10
43.3814
20
2.86385
11
43.3824
21
2.86563
0
LINE
8
Black
10
43.3824
20
2.86563
11
43.3831
21
2.86747
0
LINE
8
Black
10
43.3831
20
2.86747
11
43.391
21
2.87969
0
LINE
8
Black
10
43.391
20
2.87969
11
43.3912
21
2.87986
0
LINE
8
Black
10
43.3912
20
2.87986
11
43.3913
21
2.88006
0
LINE
8
Black
10
43.3913
20
2.88006
11
43.3929
21
2.88177
0
LINE
8
Black
10
43.3929
20
2.88177
11
43.3945
21
2.88352
0
LINE
8
Black
10
43.3945
20
2.88352
11
43.3947
21
2.88362
0
LINE
8
Black
10
43.3947
20
2.88362
11
43.3949
21
2.88378
0
LINE
8
Black
10
43.3949
20
2.88378
11
43.3971
21
2.88481
0
LINE
8
Black
10
43.3971
20
2.88481
11
43.3992
21
2.8859
0
LINE
8
Black
10
43.3992
20
2.8859
11
43.3994
21
2.88593
0
LINE
8
Black
10
43.3994
20
2.88593
11
43.3996
21
2.88603
0
LINE
8
Black
10
43.3996
20
2.88603
11
43.402
21
2.88626
0
LINE
8
Black
10
43.402
20
2.88626
11
43.4043
21
2.88656
0
LINE
8
Black
10
43.4043
20
2.88656
11
43.4046
21
2.88651
0
LINE
8
Black
10
43.4046
20
2.88651
11
43.4048
21
2.88653
0
LINE
8
Black
10
43.4048
20
2.88653
11
43.4071
21
2.88594
0
LINE
8
Black
10
43.4071
20
2.88594
11
43.4094
21
2.88541
0
LINE
8
Black
10
43.4094
20
2.88541
11
43.4096
21
2.88529
0
LINE
8
Black
10
43.4096
20
2.88529
11
43.4098
21
2.88523
0
LINE
8
Black
10
43.4098
20
2.88523
11
43.5286
21
2.83123
0
LINE
8
Black
10
43.5286
20
2.83123
11
43.5298
21
2.83097
0
LINE
8
Black
10
43.5298
20
2.83097
11
43.53
21
2.83211
0
LINE
8
Black
10
43.53
20
2.83211
11
43.53
21
5.975
0
LINE
8
Black
10
43.53
20
5.975
11
43.5302
21
5.97629
0
LINE
8
Black
10
44.3331
20
4.636
11
44.2618
21
4.41674
0
LINE
8
Black
10
44.2618
20
4.41674
11
44.3526
21
4.19738
0
LINE
8
Black
10
44.3526
20
4.19738
11
44.7218
21
3.73021
0
LINE
8
Black
10
44.7218
20
3.73021
11
45.2378
21
3.44202
0
LINE
8
Black
10
45.2378
20
3.44202
11
45.456
21
3.51138
0
LINE
8
Black
10
45.456
20
3.51138
11
45.456
21
3.9181
0
LINE
8
Black
10
45.456
20
3.9181
11
45.3586
21
3.93527
0
LINE
8
Black
10
45.3586
20
3.93527
11
45.053
21
4.1117
0
LINE
8
Black
10
45.053
20
4.1117
11
44.8262
21
4.382
0
LINE
8
Black
10
44.8262
20
4.382
11
44.7338
21
4.636
0
LINE
8
Black
10
44.7338
20
4.636
11
44.3331
21
4.636
0
LINE
8
Black
10
46.6862
20
4.636
11
46.5938
21
4.382
0
LINE
8
Black
10
46.5938
20
4.382
11
46.367
21
4.1117
0
LINE
8
Black
10
46.367
20
4.1117
11
46.0614
21
3.93527
0
LINE
8
Black
10
46.0614
20
3.93527
11
45.964
21
3.9181
0
LINE
8
Black
10
45.964
20
3.9181
11
45.964
21
3.51138
0
LINE
8
Black
10
45.964
20
3.51138
11
46.1822
21
3.44202
0
LINE
8
Black
10
46.1822
20
3.44202
11
46.6982
21
3.73021
0
LINE
8
Black
10
46.6982
20
3.73021
11
47.0674
21
4.19738
0
LINE
8
Black
10
47.0674
20
4.19738
11
47.1582
21
4.41674
0
LINE
8
Black
10
47.1582
20
4.41674
11
47.0869
21
4.636
0
LINE
8
Black
10
47.0869
20
4.636
11
46.6862
21
4.636
0
LINE
8
Black
10
49.4026
20
10.3236
11
49.3977
21
10.3226
0
LINE
8
Black
10
49.3977
20
10.3226
11
49.3963
21
10.3226
0
LINE
8
Black
10
49.3963
20
10.3226
11
49.3948
21
10.3224
0
LINE
8
Black
10
49.3948
20
10.3224
11
49.3899
21
10.3224
0
LINE
8
Black
10
49.3899
20
10.3224
11
48.8188
21
10.2087
0
LINE
8
Black
10
48.8188
20
10.2087
11
48.7981
21
10.2002
0
LINE
8
Black
10
48.7981
20
10.2002
11
48.3139
21
9.87665
0
LINE
8
Black
10
48.3139
20
9.87665
11
48.298
21
9.86081
0
LINE
8
Black
10
48.298
20
9.86081
11
47.9745
21
9.37663
0
LINE
8
Black
10
47.9745
20
9.37663
11
47.966
21
9.35593
0
LINE
8
Black
10
47.966
20
9.35593
11
47.8523
21
8.7848
0
LINE
8
Black
10
47.8523
20
8.7848
11
47.8523
21
8.7624
0
LINE
8
Black
10
47.8523
20
8.7624
11
47.966
21
8.19127
0
LINE
8
Black
10
47.966
20
8.19127
11
47.9745
21
8.17057
0
LINE
8
Black
10
47.9745
20
8.17057
11
48.298
21
7.68639
0
LINE
8
Black
10
48.298
20
7.68639
11
48.3049
21
7.6795
0
LINE
8
Black
10
48.3049
20
7.6795
11
48.3049
21
7.6795
0
LINE
8
Black
10
48.3049
20
7.6795
11
48.3139
21
7.67055
0
LINE
8
Black
10
48.3139
20
7.67055
11
48.7981
21
7.34703
0
LINE
8
Black
10
48.7981
20
7.34703
11
48.8188
21
7.33845
0
LINE
8
Black
10
48.8188
20
7.33845
11
49.3899
21
7.22485
0
LINE
8
Black
10
49.3899
20
7.22485
11
49.3948
21
7.22485
0
LINE
8
Black
10
49.3948
20
7.22485
11
49.3963
21
7.22459
0
LINE
8
Black
10
49.3963
20
7.22459
11
49.3977
21
7.22456
0
LINE
8
Black
10
49.3977
20
7.22456
11
49.4026
21
7.2236
0
LINE
8
Black
10
49.4026
20
7.2236
11
51.3996
21
7.2236
0
LINE
8
Black
10
51.3996
20
7.2236
11
51.4045
21
7.22456
0
LINE
8
Black
10
51.4045
20
7.22456
11
51.4059
21
7.22459
0
LINE
8
Black
10
51.4059
20
7.22459
11
51.4074
21
7.22485
0
LINE
8
Black
10
51.4074
20
7.22485
11
51.4123
21
7.22485
0
LINE
8
Black
10
51.4123
20
7.22485
11
51.9834
21
7.33845
0
LINE
8
Black
10
51.9834
20
7.33845
11
52.0041
21
7.34703
0
LINE
8
Black
10
52.0041
20
7.34703
11
52.4883
21
7.67055
0
LINE
8
Black
10
52.4883
20
7.67055
11
52.5042
21
7.68639
0
LINE
8
Black
10
52.5042
20
7.68639
11
52.8277
21
8.17057
0
LINE
8
Black
10
52.8277
20
8.17057
11
52.8362
21
8.19127
0
LINE
8
Black
10
52.8362
20
8.19127
11
52.9499
21
8.7624
0
LINE
8
Black
10
52.9499
20
8.7624
11
52.9499
21
8.7848
0
LINE
8
Black
10
52.9499
20
8.7848
11
52.8362
21
9.35593
0
LINE
8
Black
10
52.8362
20
9.35593
11
52.8277
21
9.37663
0
LINE
8
Black
10
52.8277
20
9.37663
11
52.5042
21
9.86081
0
LINE
8
Black
10
52.5042
20
9.86081
11
52.4956
21
9.86939
0
LINE
8
Black
10
52.4956
20
9.86939
11
52.4956
21
9.86939
0
LINE
8
Black
10
52.4956
20
9.86939
11
52.4883
21
9.87665
0
LINE
8
Black
10
52.4883
20
9.87665
11
52.0041
21
10.2002
0
LINE
8
Black
10
52.0041
20
10.2002
11
51.9834
21
10.2087
0
LINE
8
Black
10
51.9834
20
10.2087
11
51.4123
21
10.3224
0
LINE
8
Black
10
51.4123
20
10.3224
11
51.4074
21
10.3224
0
LINE
8
Black
10
51.4074
20
10.3224
11
51.4059
21
10.3226
0
LINE
8
Black
10
51.4059
20
10.3226
11
51.4045
21
10.3226
0
LINE
8
Black
10
51.4045
20
10.3226
11
51.3996
21
10.3236
0
LINE
8
Black
10
51.3996
20
10.3236
11
49.4026
21
10.3236
0
LINE
8
Black
10
4.46258
20
10.3336
11
4.45775
21
10.3326
0
LINE
8
Black
10
4.45775
20
10.3326
11
4.45627
21
10.3326
0
LINE
8
Black
10
4.45627
20
10.3326
11
4.45482
21
10.3324
0
LINE
8
Black
10
4.45482
20
10.3324
11
4.4499
21
10.3324
0
LINE
8
Black
10
4.4499
20
10.3324
11
3.87877
21
10.2187
0
LINE
8
Black
10
3.87877
20
10.2187
11
3.85807
21
10.2102
0
LINE
8
Black
10
3.85807
20
10.2102
11
3.37389
21
9.88665
0
LINE
8
Black
10
3.37389
20
9.88665
11
3.35805
21
9.87081
0
LINE
8
Black
10
3.35805
20
9.87081
11
3.03453
21
9.38663
0
LINE
8
Black
10
3.03453
20
9.38663
11
3.02595
21
9.36593
0
LINE
8
Black
10
3.02595
20
9.36593
11
2.91235
21
8.7948
0
LINE
8
Black
10
2.91235
20
8.7948
11
2.91235
21
8.7724
0
LINE
8
Black
10
2.91235
20
8.7724
11
3.02595
21
8.20127
0
LINE
8
Black
10
3.02595
20
8.20127
11
3.03453
21
8.18057
0
LINE
8
Black
10
3.03453
20
8.18057
11
3.35805
21
7.69639
0
LINE
8
Black
10
3.35805
20
7.69639
11
3.37389
21
7.68055
0
LINE
8
Black
10
3.37389
20
7.68055
11
3.85807
21
7.35703
0
LINE
8
Black
10
3.85807
20
7.35703
11
3.87877
21
7.34845
0
LINE
8
Black
10
3.87877
20
7.34845
11
4.4499
21
7.23485
0
LINE
8
Black
10
4.4499
20
7.23485
11
4.45482
21
7.23485
0
LINE
8
Black
10
4.45482
20
7.23485
11
4.45627
21
7.23459
0
LINE
8
Black
10
4.45627
20
7.23459
11
4.45775
21
7.23456
0
LINE
8
Black
10
4.45775
20
7.23456
11
4.46258
21
7.2336
0
LINE
8
Black
10
4.46258
20
7.2336
11
6.45962
21
7.2336
0
LINE
8
Black
10
6.45962
20
7.2336
11
6.46445
21
7.23456
0
LINE
8
Black
10
6.46445
20
7.23456
11
6.46593
21
7.23459
0
LINE
8
Black
10
6.46593
20
7.23459
11
6.46738
21
7.23485
0
LINE
8
Black
10
6.46738
20
7.23485
11
6.4723
21
7.23485
0
LINE
8
Black
10
6.4723
20
7.23485
11
7.04343
21
7.34845
0
LINE
8
Black
10
7.04343
20
7.34845
11
7.06413
21
7.35703
0
LINE
8
Black
10
7.06413
20
7.35703
11
7.54831
21
7.68055
0
LINE
8
Black
10
7.54831
20
7.68055
11
7.56415
21
7.69639
0
LINE
8
Black
10
7.56415
20
7.69639
11
7.88767
21
8.18057
0
LINE
8
Black
10
7.88767
20
8.18057
11
7.89625
21
8.20127
0
LINE
8
Black
10
7.89625
20
8.20127
11
8.00985
21
8.7724
0
LINE
8
Black
10
8.00985
20
8.7724
11
8.00985
21
8.7948
0
LINE
8
Black
10
8.00985
20
8.7948
11
7.89624
21
9.36593
0
LINE
8
Black
10
7.89624
20
9.36593
11
7.88767
21
9.38663
0
LINE
8
Black
10
7.88767
20
9.38663
11
7.56415
21
9.87081
0
LINE
8
Black
10
7.56415
20
9.87081
11
7.54831
21
9.88665
0
LINE
8
Black
10
7.54831
20
9.88665
11
7.06413
21
10.2102
0
LINE
8
Black
10
7.06413
20
10.2102
11
7.04343
21
10.2187
0
LINE
8
Black
10
7.04343
20
10.2187
11
6.4723
21
10.3324
0
LINE
8
Black
10
6.4723
20
10.3324
11
6.46738
21
10.3324
0
LINE
8
Black
10
6.46738
20
10.3324
11
6.46593
21
10.3326
0
LINE
8
Black
10
6.46593
20
10.3326
11
6.46445
21
10.3326
0
LINE
8
Black
10
6.46445
20
10.3326
11
6.45962
21
10.3336
0
LINE
8
Black
10
6.45962
20
10.3336
11
4.46258
21
10.3336
0
LINE
8
Black
10
10.7737
20
11.6802
11
10.7724
21
11.6802
0
LINE
8
Black
10
10.7724
20
11.6802
11
10.7712
21
11.6807
0
LINE
8
Black
10
10.7712
20
11.6807
11
10.7699
21
11.6809
0
LINE
8
Black
10
10.7699
20
11.6809
11
10.7687
21
11.6816
0
LINE
8
Black
10
10.7687
20
11.6816
11
10.7675
21
11.682
0
LINE
8
Black
10
10.7675
20
11.682
11
10.7665
21
11.6829
0
LINE
8
Black
10
10.7665
20
11.6829
11
10.7654
21
11.6835
0
LINE
8
Black
10
10.7654
20
11.6835
11
10.7645
21
11.6845
0
LINE
8
Black
10
10.7645
20
11.6845
11
10.7635
21
11.6854
0
LINE
8
Black
10
10.7635
20
11.6854
11
10.7629
21
11.6865
0
LINE
8
Black
10
10.7629
20
11.6865
11
10.762
21
11.6875
0
LINE
8
Black
10
10.762
20
11.6875
11
10.7616
21
11.6887
0
LINE
8
Black
10
10.7616
20
11.6887
11
10.7609
21
11.6899
0
LINE
8
Black
10
10.7609
20
11.6899
11
10.7607
21
11.6912
0
LINE
8
Black
10
10.7607
20
11.6912
11
10.7602
21
11.6924
0
LINE
8
Black
10
10.7602
20
11.6924
11
10.7602
21
11.6937
0
LINE
8
Black
10
10.7602
20
11.6937
11
10.76
21
11.695
0
LINE
8
Black
10
10.76
20
11.695
11
10.76
21
11.6927
0
LINE
8
Black
10
10.76
20
11.6927
11
10.7622
21
11.6818
0
LINE
8
Black
10
10.7622
20
11.6818
11
10.7718
21
11.68
0
LINE
8
Black
10
10.7718
20
11.68
11
10.775
21
11.68
0
LINE
8
Black
10
10.775
20
11.68
11
10.7737
21
11.6802
0
LINE
8
Black
10
45.924
20
15.0286
11
45.924
21
14.6219
0
LINE
8
Black
10
45.924
20
14.6219
11
46.0214
21
14.6047
0
LINE
8
Black
10
46.0214
20
14.6047
11
46.327
21
14.4283
0
LINE
8
Black
10
46.327
20
14.4283
11
46.5538
21
14.158
0
LINE
8
Black
10
46.5538
20
14.158
11
46.6462
21
13.904
0
LINE
8
Black
10
46.6462
20
13.904
11
47.0469
21
13.904
0
LINE
8
Black
10
47.0469
20
13.904
11
47.1182
21
14.1233
0
LINE
8
Black
10
47.1182
20
14.1233
11
47.0274
21
14.3426
0
LINE
8
Black
10
47.0274
20
14.3426
11
46.6582
21
14.8098
0
LINE
8
Black
10
46.6582
20
14.8098
11
46.1422
21
15.098
0
LINE
8
Black
10
46.1422
20
15.098
11
45.924
21
15.0286
0
LINE
8
Black
10
44.6818
20
14.8098
11
44.3126
21
14.3426
0
LINE
8
Black
10
44.3126
20
14.3426
11
44.2218
21
14.1233
0
LINE
8
Black
10
44.2218
20
14.1233
11
44.2931
21
13.904
0
LINE
8
Black
10
44.2931
20
13.904
11
44.6938
21
13.904
0
LINE
8
Black
10
44.6938
20
13.904
11
44.7862
21
14.158
0
LINE
8
Black
10
44.7862
20
14.158
11
45.013
21
14.4283
0
LINE
8
Black
10
45.013
20
14.4283
11
45.3186
21
14.6047
0
LINE
8
Black
10
45.3186
20
14.6047
11
45.416
21
14.6219
0
LINE
8
Black
10
45.416
20
14.6219
11
45.416
21
15.0286
0
LINE
8
Black
10
45.416
20
15.0286
11
45.1978
21
15.098
0
LINE
8
Black
10
45.1978
20
15.098
11
44.6818
21
14.8098
0
LINE
8
Black
10
8.51217
20
8.46739
11
8.51244
21
8.47987
0
LINE
8
Black
10
8.51244
20
8.47987
11
8.54713
21
8.65428
0
LINE
8
Black
10
8.54713
20
8.65428
11
8.54713
21
8.91292
0
LINE
8
Black
10
8.54713
20
8.91292
11
8.51244
21
9.08732
0
LINE
8
Black
10
8.51244
20
9.08732
11
8.51217
21
9.09981
0
LINE
8
Black
10
8.51217
20
9.09981
11
8.51
21
9.1121
0
LINE
8
Black
10
8.51
20
9.1121
11
8.51
21
8.4551
0
LINE
8
Black
10
8.51
20
8.4551
11
8.51217
21
8.46739
0
LINE
8
Black
10
10.7602
20
12.8298
11
10.7603
21
12.8312
0
LINE
8
Black
10
10.7603
20
12.8312
11
10.7607
21
12.8324
0
LINE
8
Black
10
10.7607
20
12.8324
11
10.7609
21
12.8335
0
LINE
8
Black
10
10.7609
20
12.8335
11
10.7616
21
12.8348
0
LINE
8
Black
10
10.7616
20
12.8348
11
10.7621
21
12.8361
0
LINE
8
Black
10
10.7621
20
12.8361
11
10.7629
21
12.837
0
LINE
8
Black
10
10.7629
20
12.837
11
10.7635
21
12.8381
0
LINE
8
Black
10
10.7635
20
12.8381
11
10.7646
21
12.839
0
LINE
8
Black
10
10.7646
20
12.839
11
10.7655
21
12.84
0
LINE
8
Black
10
10.7655
20
12.84
11
10.7666
21
12.8406
0
LINE
8
Black
10
10.7666
20
12.8406
11
10.7675
21
12.8414
0
LINE
8
Black
10
10.7675
20
12.8414
11
10.7688
21
12.8419
0
LINE
8
Black
10
10.7688
20
12.8419
11
10.7701
21
12.8426
0
LINE
8
Black
10
10.7701
20
12.8426
11
10.7713
21
12.8428
0
LINE
8
Black
10
10.7713
20
12.8428
11
10.7724
21
12.8432
0
LINE
8
Black
10
10.7724
20
12.8432
11
10.7738
21
12.8432
0
LINE
8
Black
10
10.7738
20
12.8432
11
10.7752
21
12.8434
0
LINE
8
Black
10
10.7752
20
12.8434
11
10.7764
21
12.8432
0
LINE
8
Black
10
10.7764
20
12.8432
11
10.7776
21
12.8432
0
LINE
8
Black
10
10.7776
20
12.8432
11
10.7789
21
12.8427
0
LINE
8
Black
10
10.7789
20
12.8427
11
10.7803
21
12.8424
0
LINE
8
Black
10
10.7803
20
12.8424
11
10.7814
21
12.8418
0
LINE
8
Black
10
10.7814
20
12.8418
11
10.7825
21
12.8414
0
LINE
8
Black
10
10.7825
20
12.8414
11
10.7836
21
12.8405
0
LINE
8
Black
10
10.7836
20
12.8405
11
10.7848
21
12.8398
0
LINE
8
Black
10
10.7848
20
12.8398
11
10.7856
21
12.8388
0
LINE
8
Black
10
10.7856
20
12.8388
11
10.7865
21
12.8381
0
LINE
8
Black
10
10.7865
20
12.8381
11
10.7872
21
12.8368
0
LINE
8
Black
10
10.7872
20
12.8368
11
10.7881
21
12.8357
0
LINE
8
Black
10
10.7881
20
12.8357
11
10.9802
21
12.4918
0
LINE
8
Black
10
10.9802
20
12.4918
11
11.4474
21
12.1226
0
LINE
8
Black
10
11.4474
20
12.1226
11
11.6667
21
12.0318
0
LINE
8
Black
10
11.6667
20
12.0318
11
11.886
21
12.1031
0
LINE
8
Black
10
11.886
20
12.1031
11
11.886
21
12.5038
0
LINE
8
Black
10
11.886
20
12.5038
11
11.632
21
12.5962
0
LINE
8
Black
10
11.632
20
12.5962
11
11.3617
21
12.823
0
LINE
8
Black
10
11.3617
20
12.823
11
11.1853
21
13.1286
0
LINE
8
Black
10
11.1853
20
13.1286
11
11.124
21
13.4761
0
LINE
8
Black
10
11.124
20
13.4761
11
11.124
21
13.4839
0
LINE
8
Black
10
11.124
20
13.4839
11
11.1853
21
13.8314
0
LINE
8
Black
10
11.1853
20
13.8314
11
11.3617
21
14.137
0
LINE
8
Black
10
11.3617
20
14.137
11
11.632
21
14.3638
0
LINE
8
Black
10
11.632
20
14.3638
11
11.886
21
14.4562
0
LINE
8
Black
10
11.886
20
14.4562
11
11.886
21
14.8569
0
LINE
8
Black
10
11.886
20
14.8569
11
11.6667
21
14.9282
0
LINE
8
Black
10
11.6667
20
14.9282
11
11.4474
21
14.8374
0
LINE
8
Black
10
11.4474
20
14.8374
11
10.9802
21
14.4682
0
LINE
8
Black
10
10.9802
20
14.4682
11
10.7881
21
14.1243
0
LINE
8
Black
10
10.7881
20
14.1243
11
10.7872
21
14.1232
0
LINE
8
Black
10
10.7872
20
14.1232
11
10.7865
21
14.1219
0
LINE
8
Black
10
10.7865
20
14.1219
11
10.7856
21
14.1212
0
LINE
8
Black
10
10.7856
20
14.1212
11
10.7848
21
14.1202
0
LINE
8
Black
10
10.7848
20
14.1202
11
10.7836
21
14.1195
0
LINE
8
Black
10
10.7836
20
14.1195
11
10.7825
21
14.1186
0
LINE
8
Black
10
10.7825
20
14.1186
11
10.7814
21
14.1182
0
LINE
8
Black
10
10.7814
20
14.1182
11
10.7803
21
14.1176
0
LINE
8
Black
10
10.7803
20
14.1176
11
10.7789
21
14.1173
0
LINE
8
Black
10
10.7789
20
14.1173
11
10.7776
21
14.1168
0
LINE
8
Black
10
10.7776
20
14.1168
11
10.7764
21
14.1168
0
LINE
8
Black
10
10.7764
20
14.1168
11
10.7752
21
14.1166
0
LINE
8
Black
10
10.7752
20
14.1166
11
10.7738
21
14.1168
0
LINE
8
Black
10
10.7738
20
14.1168
11
10.7724
21
14.1168
0
LINE
8
Black
10
10.7724
20
14.1168
11
10.7713
21
14.1172
0
LINE
8
Black
10
10.7713
20
14.1172
11
10.7701
21
14.1174
0
LINE
8
Black
10
10.7701
20
14.1174
11
10.7688
21
14.1181
0
LINE
8
Black
10
10.7688
20
14.1181
11
10.7675
21
14.1186
0
LINE
8
Black
10
10.7675
20
14.1186
11
10.7666
21
14.1194
0
LINE
8
Black
10
10.7666
20
14.1194
11
10.7655
21
14.12
0
LINE
8
Black
10
10.7655
20
14.12
11
10.7646
21
14.121
0
LINE
8
Black
10
10.7646
20
14.121
11
10.7635
21
14.1219
0
LINE
8
Black
10
10.7635
20
14.1219
11
10.7629
21
14.123
0
LINE
8
Black
10
10.7629
20
14.123
11
10.7621
21
14.1239
0
LINE
8
Black
10
10.7621
20
14.1239
11
10.7616
21
14.1252
0
LINE
8
Black
10
10.7616
20
14.1252
11
10.7609
21
14.1265
0
LINE
8
Black
10
10.7609
20
14.1265
11
10.7607
21
14.1276
0
LINE
8
Black
10
10.7607
20
14.1276
11
10.7603
21
14.1288
0
LINE
8
Black
10
10.7603
20
14.1288
11
10.7602
21
14.1302
0
LINE
8
Black
10
10.7602
20
14.1302
11
10.76
21
14.1316
0
LINE
8
Black
10
10.76
20
14.1316
11
10.76
21
14.1774
0
LINE
8
Black
10
10.76
20
14.1774
11
10.759
21
14.1716
0
LINE
8
Black
10
10.759
20
14.1716
11
10.7595
21
14.1657
0
LINE
8
Black
10
10.7595
20
14.1657
11
10.7552
21
14.15
0
LINE
8
Black
10
10.7552
20
14.15
11
10.7523
21
14.1339
0
LINE
8
Black
10
10.7523
20
14.1339
11
10.7494
21
14.1288
0
LINE
8
Black
10
10.7494
20
14.1288
11
10.7479
21
14.1231
0
LINE
8
Black
10
10.7479
20
14.1231
11
10.638
21
13.8904
0
LINE
8
Black
10
10.638
20
13.8904
11
10.7201
21
13.7188
0
LINE
8
Black
10
10.7201
20
13.7188
11
10.7218
21
13.7168
0
LINE
8
Black
10
10.7218
20
13.7168
11
10.7303
21
13.7096
0
LINE
8
Black
10
10.7303
20
13.7096
11
10.7358
21
13.7
0
LINE
8
Black
10
10.7358
20
13.7
11
10.743
21
13.6915
0
LINE
8
Black
10
10.743
20
13.6915
11
10.7468
21
13.6811
0
LINE
8
Black
10
10.7468
20
13.6811
11
10.7523
21
13.6714
0
LINE
8
Black
10
10.7523
20
13.6714
11
10.7543
21
13.6605
0
LINE
8
Black
10
10.7543
20
13.6605
11
10.7581
21
13.6501
0
LINE
8
Black
10
10.7581
20
13.6501
11
10.7581
21
13.6389
0
LINE
8
Black
10
10.7581
20
13.6389
11
10.76
21
13.628
0
LINE
8
Black
10
10.76
20
13.628
11
10.76
21
13.332
0
LINE
8
Black
10
10.76
20
13.332
11
10.7581
21
13.3211
0
LINE
8
Black
10
10.7581
20
13.3211
11
10.7581
21
13.3099
0
LINE
8
Black
10
10.7581
20
13.3099
11
10.7543
21
13.2995
0
LINE
8
Black
10
10.7543
20
13.2995
11
10.7523
21
13.2886
0
LINE
8
Black
10
10.7523
20
13.2886
11
10.7468
21
13.2789
0
LINE
8
Black
10
10.7468
20
13.2789
11
10.743
21
13.2685
0
LINE
8
Black
10
10.743
20
13.2685
11
10.7358
21
13.26
0
LINE
8
Black
10
10.7358
20
13.26
11
10.7303
21
13.2504
0
LINE
8
Black
10
10.7303
20
13.2504
11
10.7218
21
13.2432
0
LINE
8
Black
10
10.7218
20
13.2432
11
10.7201
21
13.2412
0
LINE
8
Black
10
10.7201
20
13.2412
11
10.638
21
13.0696
0
LINE
8
Black
10
10.638
20
13.0696
11
10.7479
21
12.8369
0
LINE
8
Black
10
10.7479
20
12.8369
11
10.7494
21
12.8312
0
LINE
8
Black
10
10.7494
20
12.8312
11
10.7523
21
12.8261
0
LINE
8
Black
10
10.7523
20
12.8261
11
10.7552
21
12.81
0
LINE
8
Black
10
10.7552
20
12.81
11
10.7595
21
12.7943
0
LINE
8
Black
10
10.7595
20
12.7943
11
10.759
21
12.7884
0
LINE
8
Black
10
10.759
20
12.7884
11
10.76
21
12.7826
0
LINE
8
Black
10
10.76
20
12.7826
11
10.76
21
12.8284
0
LINE
8
Black
10
10.76
20
12.8284
11
10.7602
21
12.8298
0
LINE
8
Black
10
8.51145
20
14.8766
11
8.51109
21
14.885
0
LINE
8
Black
10
8.51109
20
14.885
11
8.51525
21
14.8982
0
LINE
8
Black
10
8.51525
20
14.8982
11
8.51766
21
14.9118
0
LINE
8
Black
10
8.51766
20
14.9118
11
8.52184
21
14.9191
0
LINE
8
Black
10
8.52184
20
14.9191
11
8.52436
21
14.9271
0
LINE
8
Black
10
8.52436
20
14.9271
11
8.53279
21
14.938
0
LINE
8
Black
10
8.53279
20
14.938
11
8.53971
21
14.95
0
LINE
8
Black
10
8.53971
20
14.95
11
8.54612
21
14.9554
0
LINE
8
Black
10
8.54612
20
14.9554
11
8.55122
21
14.9621
0
LINE
8
Black
10
8.55122
20
14.9621
11
8.5629
21
14.9695
0
LINE
8
Black
10
8.5629
20
14.9695
11
8.5735
21
14.9784
0
LINE
8
Black
10
8.5735
20
14.9784
11
8.58136
21
14.9812
0
LINE
8
Black
10
8.58136
20
14.9812
11
8.58842
21
14.9857
0
LINE
8
Black
10
8.58842
20
14.9857
11
8.60194
21
14.9887
0
LINE
8
Black
10
8.60194
20
14.9887
11
8.61495
21
14.9935
0
LINE
8
Black
10
8.61495
20
14.9935
11
8.62332
21
14.9935
0
LINE
8
Black
10
8.62332
20
14.9935
11
8.63148
21
14.9953
0
LINE
8
Black
10
8.63148
20
14.9953
11
8.51123
21
14.9901
0
LINE
8
Black
10
8.51123
20
14.9901
11
8.51034
21
14.9899
0
LINE
8
Black
10
8.51034
20
14.9899
11
8.51027
21
14.9898
0
LINE
8
Black
10
8.51027
20
14.9898
11
8.51
21
14.9885
0
LINE
8
Black
10
8.51
20
14.9885
11
8.51
21
14.8684
0
LINE
8
Black
10
8.51
20
14.8684
11
8.51145
21
14.8766
0
LINE
8
Black
10
10.7597
20
15.0876
11
10.7585
21
15.0878
0
LINE
8
Black
10
10.7585
20
15.0878
11
9.12426
21
15.0167
0
LINE
8
Black
10
9.12426
20
15.0167
11
10.6275
21
15.0821
0
LINE
8
Black
10
10.6275
20
15.0821
11
10.6412
21
15.0803
0
LINE
8
Black
10
10.6412
20
15.0803
11
10.6551
21
15.0803
0
LINE
8
Black
10
10.6551
20
15.0803
11
10.6629
21
15.0774
0
LINE
8
Black
10
10.6629
20
15.0774
11
10.6712
21
15.0763
0
LINE
8
Black
10
10.6712
20
15.0763
11
10.6835
21
15.0699
0
LINE
8
Black
10
10.6835
20
15.0699
11
10.6965
21
15.0652
0
LINE
8
Black
10
10.6965
20
15.0652
11
10.7029
21
15.0598
0
LINE
8
Black
10
10.7029
20
15.0598
11
10.7103
21
15.0559
0
LINE
8
Black
10
10.7103
20
15.0559
11
10.7197
21
15.0457
0
LINE
8
Black
10
10.7197
20
15.0457
11
10.7303
21
15.0368
0
LINE
8
Black
10
10.7303
20
15.0368
11
10.7345
21
15.0296
0
LINE
8
Black
10
10.7345
20
15.0296
11
10.7401
21
15.0234
0
LINE
8
Black
10
10.7401
20
15.0234
11
10.7454
21
15.0106
0
LINE
8
Black
10
10.7454
20
15.0106
11
10.7523
21
14.9986
0
LINE
8
Black
10
10.7523
20
14.9986
11
10.7538
21
14.9904
0
LINE
8
Black
10
10.7538
20
14.9904
11
10.757
21
14.9826
0
LINE
8
Black
10
10.757
20
14.9826
11
10.7576
21
14.9688
0
LINE
8
Black
10
10.7576
20
14.9688
11
10.76
21
14.9552
0
LINE
8
Black
10
10.76
20
14.9552
11
10.76
21
15.0863
0
LINE
8
Black
10
10.76
20
15.0863
11
10.7597
21
15.0876
0
LINE
8
Black
10
13.765
20
7.495
11
13.67
21
7.495
0
LINE
8
Black
10
13.67
20
7.495
11
13.67
21
4.445
0
LINE
8
Black
10
13.67
20
4.445
11
13.765
21
4.445
0
LINE
8
Black
10
13.765
20
4.445
11
13.765
21
3.175
0
LINE
8
Black
10
13.765
20
3.175
11
13.055
21
3.175
0
LINE
8
Black
10
13.055
20
3.175
11
13.055
21
3.55
0
LINE
8
Black
10
13.055
20
3.55
11
11.72
21
3.55
0
LINE
8
Black
10
11.72
20
3.55
11
11.7092
21
3.55191
0
LINE
8
Black
10
11.7092
20
3.55191
11
11.6982
21
3.55095
0
LINE
8
Black
10
11.6982
20
3.55095
11
11.6667
21
3.55941
0
LINE
8
Black
10
11.6667
20
3.55941
11
11.6345
21
3.56508
0
LINE
8
Black
10
11.6345
20
3.56508
11
11.625
21
3.57058
0
LINE
8
Black
10
11.625
20
3.57058
11
11.6143
21
3.57342
0
LINE
8
Black
10
11.6143
20
3.57342
11
11.5876
21
3.59216
0
LINE
8
Black
10
11.5876
20
3.59216
11
11.5593
21
3.60849
0
LINE
8
Black
10
11.5593
20
3.60849
11
11.5522
21
3.61691
0
LINE
8
Black
10
11.5522
20
3.61691
11
11.5432
21
3.62322
0
LINE
8
Black
10
11.5432
20
3.62322
11
11.1313
21
4.03514
0
LINE
8
Black
10
11.1313
20
4.03514
11
11.0938
21
3.932
0
LINE
8
Black
10
11.0938
20
3.932
11
10.867
21
3.6617
0
LINE
8
Black
10
10.867
20
3.6617
11
10.5614
21
3.48527
0
LINE
8
Black
10
10.5614
20
3.48527
11
10.2139
21
3.424
0
LINE
8
Black
10
10.2139
20
3.424
11
10.2061
21
3.424
0
LINE
8
Black
10
10.2061
20
3.424
11
9.85863
21
3.48527
0
LINE
8
Black
10
9.85863
20
3.48527
11
9.55305
21
3.6617
0
LINE
8
Black
10
9.55305
20
3.6617
11
9.32624
21
3.932
0
LINE
8
Black
10
9.32624
20
3.932
11
9.20555
21
4.26357
0
LINE
8
Black
10
9.20555
20
4.26357
11
9.20555
21
4.61643
0
LINE
8
Black
10
9.20555
20
4.61643
11
9.32624
21
4.948
0
LINE
8
Black
10
9.32624
20
4.948
11
9.55305
21
5.2183
0
LINE
8
Black
10
9.55305
20
5.2183
11
9.85863
21
5.39473
0
LINE
8
Black
10
9.85863
20
5.39473
11
10.2061
21
5.456
0
LINE
8
Black
10
10.2061
20
5.456
11
10.2139
21
5.456
0
LINE
8
Black
10
10.2139
20
5.456
11
10.5614
21
5.39473
0
LINE
8
Black
10
10.5614
20
5.39473
11
10.867
21
5.2183
0
LINE
8
Black
10
10.867
20
5.2183
11
11.0938
21
4.948
0
LINE
8
Black
10
11.0938
20
4.948
11
11.1983
21
4.6607
0
LINE
8
Black
10
11.1983
20
4.6607
11
11.2468
21
4.62678
0
LINE
8
Black
10
11.2468
20
4.62678
11
11.8236
21
4.05
0
LINE
8
Black
10
11.8236
20
4.05
11
13.055
21
4.05
0
LINE
8
Black
10
13.055
20
4.05
11
13.055
21
4.445
0
LINE
8
Black
10
13.055
20
4.445
11
13.17
21
4.445
0
LINE
8
Black
10
13.17
20
4.445
11
13.17
21
7.495
0
LINE
8
Black
10
13.17
20
7.495
11
13.055
21
7.495
0
LINE
8
Black
10
13.055
20
7.495
11
13.055
21
8.765
0
LINE
8
Black
10
13.055
20
8.765
11
13.765
21
8.765
0
LINE
8
Black
10
13.765
20
8.765
11
13.765
21
7.495
0
LINE
8
Black
10
13.3925
20
10.8381
11
13.4034
21
10.839
0
LINE
8
Black
10
13.4034
20
10.839
11
13.435
21
10.8306
0
LINE
8
Black
10
13.435
20
10.8306
11
13.4671
21
10.8249
0
LINE
8
Black
10
13.4671
20
10.8249
11
13.4767
21
10.8194
0
LINE
8
Black
10
13.4767
20
10.8194
11
13.4873
21
10.8166
0
LINE
8
Black
10
13.4873
20
10.8166
11
13.5141
21
10.7978
0
LINE
8
Black
10
13.5141
20
10.7978
11
13.5423
21
10.7815
0
LINE
8
Black
10
13.5423
20
10.7815
11
13.5494
21
10.7731
0
LINE
8
Black
10
13.5494
20
10.7731
11
13.5584
21
10.7668
0
LINE
8
Black
10
13.5584
20
10.7668
11
14.8668
21
9.45842
0
LINE
8
Black
10
14.8668
20
9.45842
11
14.8731
21
9.44941
0
LINE
8
Black
10
14.8731
20
9.44941
11
14.8815
21
9.44234
0
LINE
8
Black
10
14.8815
20
9.44234
11
14.8978
21
9.41405
0
LINE
8
Black
10
14.8978
20
9.41405
11
14.9166
21
9.3873
0
LINE
8
Black
10
14.9166
20
9.3873
11
14.9194
21
9.37667
0
LINE
8
Black
10
14.9194
20
9.37667
11
14.9249
21
9.36715
0
LINE
8
Black
10
14.9249
20
9.36715
11
14.9306
21
9.33498
0
LINE
8
Black
10
14.9306
20
9.33498
11
14.939
21
9.30343
0
LINE
8
Black
10
14.939
20
9.30343
11
14.9381
21
9.29247
0
LINE
8
Black
10
14.9381
20
9.29247
11
14.94
21
9.28164
0
LINE
8
Black
10
14.94
20
9.28164
11
14.94
21
8.765
0
LINE
8
Black
10
14.94
20
8.765
11
15.035
21
8.765
0
LINE
8
Black
10
15.035
20
8.765
11
15.035
21
7.495
0
LINE
8
Black
10
15.035
20
7.495
11
14.94
21
7.495
0
LINE
8
Black
10
14.94
20
7.495
11
14.94
21
4.445
0
LINE
8
Black
10
14.94
20
4.445
11
15.035
21
4.445
0
LINE
8
Black
10
15.035
20
4.445
11
15.035
21
3.175
0
LINE
8
Black
10
15.035
20
3.175
11
14.325
21
3.175
0
LINE
8
Black
10
14.325
20
3.175
11
14.325
21
4.445
0
LINE
8
Black
10
14.325
20
4.445
11
14.44
21
4.445
0
LINE
8
Black
10
14.44
20
4.445
11
14.44
21
7.495
0
LINE
8
Black
10
14.44
20
7.495
11
14.325
21
7.495
0
LINE
8
Black
10
14.325
20
7.495
11
14.325
21
8.765
0
LINE
8
Black
10
14.325
20
8.765
11
14.44
21
8.765
0
LINE
8
Black
10
14.44
20
8.765
11
14.44
21
9.17809
0
LINE
8
Black
10
14.44
20
9.17809
11
13.2781
21
10.34
0
LINE
8
Black
10
13.2781
20
10.34
11
11.9136
21
10.34
0
LINE
8
Black
10
11.9136
20
10.34
11
10.56
21
8.98645
0
LINE
8
Black
10
10.56
20
8.98645
11
10.56
21
7.996
0
LINE
8
Black
10
10.56
20
7.996
11
11.226
21
7.996
0
LINE
8
Black
10
11.226
20
7.996
11
11.226
21
5.964
0
LINE
8
Black
10
11.226
20
5.964
11
9.194
21
5.964
0
LINE
8
Black
10
9.194
20
5.964
11
9.194
21
7.996
0
LINE
8
Black
10
9.194
20
7.996
11
10.06
21
7.996
0
LINE
8
Black
10
10.06
20
7.996
11
10.06
21
9.09
0
LINE
8
Black
10
10.06
20
9.09
11
10.0619
21
9.10083
0
LINE
8
Black
10
10.0619
20
9.10083
11
10.061
21
9.11179
0
LINE
8
Black
10
10.061
20
9.11179
11
10.0694
21
9.14334
0
LINE
8
Black
10
10.0694
20
9.14334
11
10.0751
21
9.1755
0
LINE
8
Black
10
10.0751
20
9.1755
11
10.0806
21
9.18503
0
LINE
8
Black
10
10.0806
20
9.18503
11
10.0834
21
9.19565
0
LINE
8
Black
10
10.0834
20
9.19565
11
10.1022
21
9.22241
0
LINE
8
Black
10
10.1022
20
9.22241
11
10.1185
21
9.2507
0
LINE
8
Black
10
10.1185
20
9.2507
11
10.1269
21
9.25777
0
LINE
8
Black
10
10.1269
20
9.25777
11
10.1332
21
9.26678
0
LINE
8
Black
10
10.1332
20
9.26678
11
11.6332
21
10.7668
0
LINE
8
Black
10
11.6332
20
10.7668
11
11.6422
21
10.7731
0
LINE
8
Black
10
11.6422
20
10.7731
11
11.6493
21
10.7815
0
LINE
8
Black
10
11.6493
20
10.7815
11
11.6776
21
10.7978
0
LINE
8
Black
10
11.6776
20
10.7978
11
11.7043
21
10.8166
0
LINE
8
Black
10
11.7043
20
10.8166
11
11.715
21
10.8194
0
LINE
8
Black
10
11.715
20
10.8194
11
11.7245
21
10.8249
0
LINE
8
Black
10
11.7245
20
10.8249
11
11.7567
21
10.8306
0
LINE
8
Black
10
11.7567
20
10.8306
11
11.7882
21
10.839
0
LINE
8
Black
10
11.7882
20
10.839
11
11.7992
21
10.8381
0
LINE
8
Black
10
11.7992
20
10.8381
11
11.81
21
10.84
0
LINE
8
Black
10
11.81
20
10.84
11
13.3816
21
10.84
0
LINE
8
Black
10
13.3816
20
10.84
11
13.3925
21
10.8381
0
LINE
8
Black
10
46.686
20
10.094
11
45.1843
21
10.094
0
LINE
8
Black
10
45.1843
20
10.094
11
45.1352
21
10.0448
0
LINE
8
Black
10
45.1352
20
10.0448
11
45.1216
21
10.0354
0
LINE
8
Black
10
45.1216
20
10.0354
11
45.111
21
10.0227
0
LINE
8
Black
10
45.111
20
10.0227
11
45.0686
21
9.99824
0
LINE
8
Black
10
45.0686
20
9.99824
11
45.0285
21
9.97013
0
LINE
8
Black
10
45.0285
20
9.97013
11
45.0125
21
9.96586
0
LINE
8
Black
10
45.0125
20
9.96586
11
44.9983
21
9.95761
0
LINE
8
Black
10
44.9983
20
9.95761
11
44.95
21
9.94911
0
LINE
8
Black
10
44.95
20
9.94911
11
44.9027
21
9.93643
0
LINE
8
Black
10
44.9027
20
9.93643
11
44.8862
21
9.93787
0
LINE
8
Black
10
44.8862
20
9.93787
11
44.87
21
9.935
0
LINE
8
Black
10
44.87
20
9.935
11
34.2453
21
9.935
0
LINE
8
Black
10
34.2453
20
9.935
11
34.105
21
9.79467
0
LINE
8
Black
10
34.105
20
9.79467
11
34.105
21
8.17671
0
LINE
8
Black
10
34.105
20
8.17671
11
34.115
21
8.12
0
LINE
8
Black
10
34.115
20
8.12
11
34.115
21
3.8
0
LINE
8
Black
10
34.115
20
3.8
11
34.0924
21
3.67174
0
LINE
8
Black
10
34.0924
20
3.67174
11
34.085
21
3.65895
0
LINE
8
Black
10
34.085
20
3.65895
11
34.085
21
3.175
0
LINE
8
Black
10
34.085
20
3.175
11
33.375
21
3.175
0
LINE
8
Black
10
33.375
20
3.175
11
33.375
21
3.74329
0
LINE
8
Black
10
33.375
20
3.74329
11
33.365
21
3.8
0
LINE
8
Black
10
33.365
20
3.8
11
33.365
21
8.07329
0
LINE
8
Black
10
33.365
20
8.07329
11
33.355
21
8.13
0
LINE
8
Black
10
33.355
20
8.13
11
33.355
21
9.95
0
LINE
8
Black
10
33.355
20
9.95
11
33.3579
21
9.96625
0
LINE
8
Black
10
33.3579
20
9.96625
11
33.3564
21
9.98268
0
LINE
8
Black
10
33.3564
20
9.98268
11
33.3691
21
10.03
0
LINE
8
Black
10
33.3691
20
10.03
11
33.3776
21
10.0783
0
LINE
8
Black
10
33.3776
20
10.0783
11
33.3859
21
10.0925
0
LINE
8
Black
10
33.3859
20
10.0925
11
33.3901
21
10.1085
0
LINE
8
Black
10
33.3901
20
10.1085
11
33.4182
21
10.1486
0
LINE
8
Black
10
33.4182
20
10.1486
11
33.4427
21
10.191
0
LINE
8
Black
10
33.4427
20
10.191
11
33.4554
21
10.2016
0
LINE
8
Black
10
33.4554
20
10.2016
11
33.4648
21
10.2152
0
LINE
8
Black
10
33.4648
20
10.2152
11
33.8248
21
10.5752
0
LINE
8
Black
10
33.8248
20
10.5752
11
33.8383
21
10.5846
0
LINE
8
Black
10
33.8383
20
10.5846
11
33.849
21
10.5973
0
LINE
8
Black
10
33.849
20
10.5973
11
33.8914
21
10.6218
0
LINE
8
Black
10
33.8914
20
10.6218
11
33.9315
21
10.6499
0
LINE
8
Black
10
33.9315
20
10.6499
11
33.9475
21
10.6541
0
LINE
8
Black
10
33.9475
20
10.6541
11
33.9617
21
10.6624
0
LINE
8
Black
10
33.9617
20
10.6624
11
34.01
21
10.6709
0
LINE
8
Black
10
34.01
20
10.6709
11
34.0573
21
10.6836
0
LINE
8
Black
10
34.0573
20
10.6836
11
34.0738
21
10.6821
0
LINE
8
Black
10
34.0738
20
10.6821
11
34.09
21
10.685
0
LINE
8
Black
10
34.09
20
10.685
11
44.654
21
10.685
0
LINE
8
Black
10
44.654
20
10.685
11
44.654
21
12.126
0
LINE
8
Black
10
44.654
20
12.126
11
46.686
21
12.126
0
LINE
8
Black
10
46.686
20
12.126
11
46.686
21
10.094
0
LINE
8
Black
10
40.435
20
8.505
11
40.995
21
8.505
0
LINE
8
Black
10
40.995
20
8.505
11
40.995
21
8.765
0
LINE
8
Black
10
40.995
20
8.765
11
41.705
21
8.765
0
LINE
8
Black
10
41.705
20
8.765
11
41.705
21
8.505
0
LINE
8
Black
10
41.705
20
8.505
11
42.265
21
8.505
0
LINE
8
Black
10
42.265
20
8.505
11
42.265
21
8.765
0
LINE
8
Black
10
42.265
20
8.765
11
42.975
21
8.765
0
LINE
8
Black
10
42.975
20
8.765
11
42.975
21
8.705
0
LINE
8
Black
10
42.975
20
8.705
11
44.81
21
8.705
0
LINE
8
Black
10
44.81
20
8.705
11
44.8262
21
8.70214
0
LINE
8
Black
10
44.8262
20
8.70214
11
44.8427
21
8.70357
0
LINE
8
Black
10
44.8427
20
8.70357
11
44.89
21
8.69089
0
LINE
8
Black
10
44.89
20
8.69089
11
44.9383
21
8.68239
0
LINE
8
Black
10
44.9383
20
8.68239
11
44.9525
21
8.67414
0
LINE
8
Black
10
44.9525
20
8.67414
11
44.9685
21
8.66987
0
LINE
8
Black
10
44.9685
20
8.66987
11
45.0086
21
8.64176
0
LINE
8
Black
10
45.0086
20
8.64176
11
45.051
21
8.61727
0
LINE
8
Black
10
45.051
20
8.61727
11
45.0617
21
8.60463
0
LINE
8
Black
10
45.0617
20
8.60463
11
45.0752
21
8.59516
0
LINE
8
Black
10
45.0752
20
8.59516
11
45.2243
21
8.446
0
LINE
8
Black
10
45.2243
20
8.446
11
46.726
21
8.446
0
LINE
8
Black
10
46.726
20
8.446
11
46.726
21
6.414
0
LINE
8
Black
10
46.726
20
6.414
11
44.694
21
6.414
0
LINE
8
Black
10
44.694
20
6.414
11
44.694
21
7.91567
0
LINE
8
Black
10
44.694
20
7.91567
11
44.6547
21
7.955
0
LINE
8
Black
10
44.6547
20
7.955
11
42.995
21
7.955
0
LINE
8
Black
10
42.995
20
7.955
11
42.995
21
3.81
0
LINE
8
Black
10
42.995
20
3.81
11
42.975
21
3.69657
0
LINE
8
Black
10
42.975
20
3.69657
11
42.975
21
3.175
0
LINE
8
Black
10
42.975
20
3.175
11
42.265
21
3.175
0
LINE
8
Black
10
42.265
20
3.175
11
42.265
21
3.69657
0
LINE
8
Black
10
42.265
20
3.69657
11
42.245
21
3.81
0
LINE
8
Black
10
42.245
20
3.81
11
42.245
21
7.755
0
LINE
8
Black
10
42.245
20
7.755
11
41.725
21
7.755
0
LINE
8
Black
10
41.725
20
7.755
11
41.725
21
3.81
0
LINE
8
Black
10
41.725
20
3.81
11
41.705
21
3.69657
0
LINE
8
Black
10
41.705
20
3.69657
11
41.705
21
3.175
0
LINE
8
Black
10
41.705
20
3.175
11
40.995
21
3.175
0
LINE
8
Black
10
40.995
20
3.175
11
40.995
21
3.69657
0
LINE
8
Black
10
40.995
20
3.69657
11
40.975
21
3.81
0
LINE
8
Black
10
40.975
20
3.81
11
40.975
21
7.755
0
LINE
8
Black
10
40.975
20
7.755
11
40.455
21
7.755
0
LINE
8
Black
10
40.455
20
7.755
11
40.455
21
3.81
0
LINE
8
Black
10
40.455
20
3.81
11
40.435
21
3.69657
0
LINE
8
Black
10
40.435
20
3.69657
11
40.435
21
3.175
0
LINE
8
Black
10
40.435
20
3.175
11
39.725
21
3.175
0
LINE
8
Black
10
39.725
20
3.175
11
39.725
21
3.69657
0
LINE
8
Black
10
39.725
20
3.69657
11
39.705
21
3.81
0
LINE
8
Black
10
39.705
20
3.81
11
39.705
21
8.13
0
LINE
8
Black
10
39.705
20
8.13
11
39.7107
21
8.16231
0
LINE
8
Black
10
39.7107
20
8.16231
11
39.7107
21
8.19512
0
LINE
8
Black
10
39.7107
20
8.19512
11
39.7219
21
8.22595
0
LINE
8
Black
10
39.7219
20
8.22595
11
39.725
21
8.24343
0
LINE
8
Black
10
39.725
20
8.24343
11
39.725
21
8.765
0
LINE
8
Black
10
39.725
20
8.765
11
40.435
21
8.765
0
LINE
8
Black
10
40.435
20
8.765
11
40.435
21
8.505
0
LINE
8
Black
10
23.126
20
12.544
11
22.56
21
12.544
0
LINE
8
Black
10
22.56
20
12.544
11
22.56
21
8.765
0
LINE
8
Black
10
22.56
20
8.765
11
22.655
21
8.765
0
LINE
8
Black
10
22.655
20
8.765
11
22.655
21
7.495
0
LINE
8
Black
10
22.655
20
7.495
11
22.56
21
7.495
0
LINE
8
Black
10
22.56
20
7.495
11
22.56
21
4.445
0
LINE
8
Black
10
22.56
20
4.445
11
22.655
21
4.445
0
LINE
8
Black
10
22.655
20
4.445
11
22.655
21
3.175
0
LINE
8
Black
10
22.655
20
3.175
11
21.945
21
3.175
0
LINE
8
Black
10
21.945
20
3.175
11
21.945
21
4.445
0
LINE
8
Black
10
21.945
20
4.445
11
22.06
21
4.445
0
LINE
8
Black
10
22.06
20
4.445
11
22.06
21
7.495
0
LINE
8
Black
10
22.06
20
7.495
11
21.945
21
7.495
0
LINE
8
Black
10
21.945
20
7.495
11
21.945
21
8.765
0
LINE
8
Black
10
21.945
20
8.765
11
22.06
21
8.765
0
LINE
8
Black
10
22.06
20
8.765
11
22.06
21
12.544
0
LINE
8
Black
10
22.06
20
12.544
11
21.094
21
12.544
0
LINE
8
Black
10
21.094
20
12.544
11
21.094
21
14.576
0
LINE
8
Black
10
21.094
20
14.576
11
23.126
21
14.576
0
LINE
8
Black
10
23.126
20
14.576
11
23.126
21
12.544
0
LINE
8
Black
10
28.488
20
11.4038
11
28.7583
21
11.177
0
LINE
8
Black
10
28.7583
20
11.177
11
28.9347
21
10.8714
0
LINE
8
Black
10
28.9347
20
10.8714
11
28.996
21
10.5239
0
LINE
8
Black
10
28.996
20
10.5239
11
28.996
21
10.5161
0
LINE
8
Black
10
28.996
20
10.5161
11
28.9347
21
10.1686
0
LINE
8
Black
10
28.9347
20
10.1686
11
28.837
21
9.99934
0
LINE
8
Black
10
28.837
20
9.99934
11
28.8466
21
9.98565
0
LINE
8
Black
10
28.8466
20
9.98565
11
28.8494
21
9.97503
0
LINE
8
Black
10
28.8494
20
9.97503
11
28.8549
21
9.96551
0
LINE
8
Black
10
28.8549
20
9.96551
11
28.8606
21
9.93334
0
LINE
8
Black
10
28.8606
20
9.93334
11
28.869
21
9.90179
0
LINE
8
Black
10
28.869
20
9.90179
11
28.8681
21
9.89083
0
LINE
8
Black
10
28.8681
20
9.89083
11
28.87
21
9.88
0
LINE
8
Black
10
28.87
20
9.88
11
28.87
21
8.765
0
LINE
8
Black
10
28.87
20
8.765
11
29.005
21
8.765
0
LINE
8
Black
10
29.005
20
8.765
11
29.005
21
7.495
0
LINE
8
Black
10
29.005
20
7.495
11
28.9
21
7.495
0
LINE
8
Black
10
28.9
20
7.495
11
28.9
21
4.445
0
LINE
8
Black
10
28.9
20
4.445
11
29.005
21
4.445
0
LINE
8
Black
10
29.005
20
4.445
11
29.005
21
3.175
0
LINE
8
Black
10
29.005
20
3.175
11
28.295
21
3.175
0
LINE
8
Black
10
28.295
20
3.175
11
28.295
21
4.445
0
LINE
8
Black
10
28.295
20
4.445
11
28.4
21
4.445
0
LINE
8
Black
10
28.4
20
4.445
11
28.4
21
7.495
0
LINE
8
Black
10
28.4
20
7.495
11
28.295
21
7.495
0
LINE
8
Black
10
28.295
20
7.495
11
28.295
21
8.765
0
LINE
8
Black
10
28.295
20
8.765
11
28.37
21
8.765
0
LINE
8
Black
10
28.37
20
8.765
11
28.37
21
9.59329
0
LINE
8
Black
10
28.37
20
9.59329
11
28.1564
21
9.51555
0
LINE
8
Black
10
28.1564
20
9.51555
11
27.8036
21
9.51555
0
LINE
8
Black
10
27.8036
20
9.51555
11
27.472
21
9.63624
0
LINE
8
Black
10
27.472
20
9.63624
11
27.2017
21
9.86305
0
LINE
8
Black
10
27.2017
20
9.86305
11
27.0253
21
10.1686
0
LINE
8
Black
10
27.0253
20
10.1686
11
26.964
21
10.5161
0
LINE
8
Black
10
26.964
20
10.5161
11
26.964
21
10.5239
0
LINE
8
Black
10
26.964
20
10.5239
11
27.0253
21
10.8714
0
LINE
8
Black
10
27.0253
20
10.8714
11
27.2017
21
11.177
0
LINE
8
Black
10
27.2017
20
11.177
11
27.472
21
11.4038
0
LINE
8
Black
10
27.472
20
11.4038
11
27.8036
21
11.5244
0
LINE
8
Black
10
27.8036
20
11.5244
11
28.1564
21
11.5244
0
LINE
8
Black
10
28.1564
20
11.5244
11
28.488
21
11.4038
0
LINE
8
Black
10
31.4708
20
15.5881
11
31.4818
21
15.589
0
LINE
8
Black
10
31.4818
20
15.589
11
31.5133
21
15.5806
0
LINE
8
Black
10
31.5133
20
15.5806
11
31.5455
21
15.5749
0
LINE
8
Black
10
31.5455
20
15.5749
11
31.555
21
15.5694
0
LINE
8
Black
10
31.555
20
15.5694
11
31.5657
21
15.5666
0
LINE
8
Black
10
31.5657
20
15.5666
11
31.5924
21
15.5478
0
LINE
8
Black
10
31.5924
20
15.5478
11
31.6207
21
15.5315
0
LINE
8
Black
10
31.6207
20
15.5315
11
31.6278
21
15.5231
0
LINE
8
Black
10
31.6278
20
15.5231
11
31.6368
21
15.5168
0
LINE
8
Black
10
31.6368
20
15.5168
11
32.7936
21
14.36
0
LINE
8
Black
10
32.7936
20
14.36
11
32.8582
21
14.4142
0
LINE
8
Black
10
32.8582
20
14.4142
11
33.14
21
14.5168
0
LINE
8
Black
10
33.14
20
14.5168
11
33.44
21
14.5168
0
LINE
8
Black
10
33.44
20
14.5168
11
33.7218
21
14.4142
0
LINE
8
Black
10
33.7218
20
14.4142
11
33.9516
21
14.2214
0
LINE
8
Black
10
33.9516
20
14.2214
11
34.1015
21
13.9616
0
LINE
8
Black
10
34.1015
20
13.9616
11
34.1536
21
13.6663
0
LINE
8
Black
10
34.1536
20
13.6663
11
34.1536
21
13.3537
0
LINE
8
Black
10
34.1536
20
13.3537
11
34.1015
21
13.0583
0
LINE
8
Black
10
34.1015
20
13.0583
11
33.9516
21
12.7986
0
LINE
8
Black
10
33.9516
20
12.7986
11
33.7218
21
12.6058
0
LINE
8
Black
10
33.7218
20
12.6058
11
33.44
21
12.5032
0
LINE
8
Black
10
33.44
20
12.5032
11
33.14
21
12.5032
0
LINE
8
Black
10
33.14
20
12.5032
11
32.8582
21
12.6058
0
LINE
8
Black
10
32.8582
20
12.6058
11
32.6284
21
12.7986
0
LINE
8
Black
10
32.6284
20
12.7986
11
32.4785
21
13.0583
0
LINE
8
Black
10
32.4785
20
13.0583
11
32.4264
21
13.3537
0
LINE
8
Black
10
32.4264
20
13.3537
11
32.4264
21
13.6663
0
LINE
8
Black
10
32.4264
20
13.6663
11
32.4785
21
13.9616
0
LINE
8
Black
10
32.4785
20
13.9616
11
32.4808
21
13.9657
0
LINE
8
Black
10
32.4808
20
13.9657
11
31.3564
21
15.09
0
LINE
8
Black
10
31.3564
20
15.09
11
16.7336
21
15.09
0
LINE
8
Black
10
16.7336
20
15.09
11
15.696
21
14.0524
0
LINE
8
Black
10
15.696
20
14.0524
11
15.696
21
12.464
0
LINE
8
Black
10
15.696
20
12.464
11
15.4896
21
12.464
0
LINE
8
Black
10
15.4896
20
12.464
11
17.4068
21
10.5468
0
LINE
8
Black
10
17.4068
20
10.5468
11
17.4131
21
10.5378
0
LINE
8
Black
10
17.4131
20
10.5378
11
17.4215
21
10.5307
0
LINE
8
Black
10
17.4215
20
10.5307
11
17.4378
21
10.5024
0
LINE
8
Black
10
17.4378
20
10.5024
11
17.4566
21
10.4757
0
LINE
8
Black
10
17.4566
20
10.4757
11
17.4594
21
10.465
0
LINE
8
Black
10
17.4594
20
10.465
11
17.4649
21
10.4555
0
LINE
8
Black
10
17.4649
20
10.4555
11
17.4706
21
10.4233
0
LINE
8
Black
10
17.4706
20
10.4233
11
17.479
21
10.3918
0
LINE
8
Black
10
17.479
20
10.3918
11
17.4781
21
10.3808
0
LINE
8
Black
10
17.4781
20
10.3808
11
17.48
21
10.37
0
LINE
8
Black
10
17.48
20
10.37
11
17.48
21
8.765
0
LINE
8
Black
10
17.48
20
8.765
11
17.575
21
8.765
0
LINE
8
Black
10
17.575
20
8.765
11
17.575
21
7.495
0
LINE
8
Black
10
17.575
20
7.495
11
17.48
21
7.495
0
LINE
8
Black
10
17.48
20
7.495
11
17.48
21
4.445
0
LINE
8
Black
10
17.48
20
4.445
11
17.575
21
4.445
0
LINE
8
Black
10
17.575
20
4.445
11
17.575
21
3.175
0
LINE
8
Black
10
17.575
20
3.175
11
16.865
21
3.175
0
LINE
8
Black
10
16.865
20
3.175
11
16.865
21
4.445
0
LINE
8
Black
10
16.865
20
4.445
11
16.98
21
4.445
0
LINE
8
Black
10
16.98
20
4.445
11
16.98
21
7.495
0
LINE
8
Black
10
16.98
20
7.495
11
16.865
21
7.495
0
LINE
8
Black
10
16.865
20
7.495
11
16.865
21
8.765
0
LINE
8
Black
10
16.865
20
8.765
11
16.98
21
8.765
0
LINE
8
Black
10
16.98
20
8.765
11
16.98
21
10.2664
0
LINE
8
Black
10
16.98
20
10.2664
11
14.7824
21
12.464
0
LINE
8
Black
10
14.7824
20
12.464
11
13.664
21
12.464
0
LINE
8
Black
10
13.664
20
12.464
11
13.664
21
14.496
0
LINE
8
Black
10
13.664
20
14.496
11
15.4324
21
14.496
0
LINE
8
Black
10
15.4324
20
14.496
11
16.4532
21
15.5168
0
LINE
8
Black
10
16.4532
20
15.5168
11
16.4622
21
15.5231
0
LINE
8
Black
10
16.4622
20
15.5231
11
16.4693
21
15.5315
0
LINE
8
Black
10
16.4693
20
15.5315
11
16.4976
21
15.5478
0
LINE
8
Black
10
16.4976
20
15.5478
11
16.5243
21
15.5666
0
LINE
8
Black
10
16.5243
20
15.5666
11
16.535
21
15.5694
0
LINE
8
Black
10
16.535
20
15.5694
11
16.5445
21
15.5749
0
LINE
8
Black
10
16.5445
20
15.5749
11
16.5767
21
15.5806
0
LINE
8
Black
10
16.5767
20
15.5806
11
16.6082
21
15.589
0
LINE
8
Black
10
16.6082
20
15.589
11
16.6192
21
15.5881
0
LINE
8
Black
10
16.6192
20
15.5881
11
16.63
21
15.59
0
LINE
8
Black
10
16.63
20
15.59
11
31.46
21
15.59
0
LINE
8
Black
10
31.46
20
15.59
11
31.4708
21
15.5881
0
LINE
8
Black
10
31.536
20
9.504
11
30.18
21
9.504
0
LINE
8
Black
10
30.18
20
9.504
11
30.18
21
8.765
0
LINE
8
Black
10
30.18
20
8.765
11
30.275
21
8.765
0
LINE
8
Black
10
30.275
20
8.765
11
30.275
21
7.495
0
LINE
8
Black
10
30.275
20
7.495
11
30.17
21
7.495
0
LINE
8
Black
10
30.17
20
7.495
11
30.17
21
4.445
0
LINE
8
Black
10
30.17
20
4.445
11
30.275
21
4.445
0
LINE
8
Black
10
30.275
20
4.445
11
30.275
21
3.175
0
LINE
8
Black
10
30.275
20
3.175
11
29.565
21
3.175
0
LINE
8
Black
10
29.565
20
3.175
11
29.565
21
4.445
0
LINE
8
Black
10
29.565
20
4.445
11
29.67
21
4.445
0
LINE
8
Black
10
29.67
20
4.445
11
29.67
21
7.495
0
LINE
8
Black
10
29.67
20
7.495
11
29.565
21
7.495
0
LINE
8
Black
10
29.565
20
7.495
11
29.565
21
8.765
0
LINE
8
Black
10
29.565
20
8.765
11
29.68
21
8.765
0
LINE
8
Black
10
29.68
20
8.765
11
29.68
21
9.504
0
LINE
8
Black
10
29.68
20
9.504
11
29.504
21
9.504
0
LINE
8
Black
10
29.504
20
9.504
11
29.504
21
11.536
0
LINE
8
Black
10
29.504
20
11.536
11
31.536
21
11.536
0
LINE
8
Black
10
31.536
20
11.536
11
31.536
21
9.504
0
LINE
8
Black
10
20.078
20
14.4438
11
20.3483
21
14.217
0
LINE
8
Black
10
20.3483
20
14.217
11
20.5247
21
13.9114
0
LINE
8
Black
10
20.5247
20
13.9114
11
20.586
21
13.5639
0
LINE
8
Black
10
20.586
20
13.5639
11
20.586
21
13.5561
0
LINE
8
Black
10
20.586
20
13.5561
11
20.5247
21
13.2086
0
LINE
8
Black
10
20.5247
20
13.2086
11
20.3483
21
12.903
0
LINE
8
Black
10
20.3483
20
12.903
11
20.078
21
12.6762
0
LINE
8
Black
10
20.078
20
12.6762
11
19.82
21
12.5823
0
LINE
8
Black
10
19.82
20
12.5823
11
19.82
21
11.9336
0
LINE
8
Black
10
19.82
20
11.9336
11
21.1868
21
10.5668
0
LINE
8
Black
10
21.1868
20
10.5668
11
21.1931
21
10.5578
0
LINE
8
Black
10
21.1931
20
10.5578
11
21.2015
21
10.5507
0
LINE
8
Black
10
21.2015
20
10.5507
11
21.2178
21
10.5224
0
LINE
8
Black
10
21.2178
20
10.5224
11
21.2366
21
10.4957
0
LINE
8
Black
10
21.2366
20
10.4957
11
21.2394
21
10.485
0
LINE
8
Black
10
21.2394
20
10.485
11
21.2449
21
10.4755
0
LINE
8
Black
10
21.2449
20
10.4755
11
21.2506
21
10.4433
0
LINE
8
Black
10
21.2506
20
10.4433
11
21.259
21
10.4118
0
LINE
8
Black
10
21.259
20
10.4118
11
21.2581
21
10.4008
0
LINE
8
Black
10
21.2581
20
10.4008
11
21.26
21
10.39
0
LINE
8
Black
10
21.26
20
10.39
11
21.26
21
8.765
0
LINE
8
Black
10
21.26
20
8.765
11
21.385
21
8.765
0
LINE
8
Black
10
21.385
20
8.765
11
21.385
21
7.495
0
LINE
8
Black
10
21.385
20
7.495
11
21.29
21
7.495
0
LINE
8
Black
10
21.29
20
7.495
11
21.29
21
4.445
0
LINE
8
Black
10
21.29
20
4.445
11
21.385
21
4.445
0
LINE
8
Black
10
21.385
20
4.445
11
21.385
21
3.175
0
LINE
8
Black
10
21.385
20
3.175
11
20.675
21
3.175
0
LINE
8
Black
10
20.675
20
3.175
11
20.675
21
4.445
0
LINE
8
Black
10
20.675
20
4.445
11
20.79
21
4.445
0
LINE
8
Black
10
20.79
20
4.445
11
20.79
21
7.495
0
LINE
8
Black
10
20.79
20
7.495
11
20.675
21
7.495
0
LINE
8
Black
10
20.675
20
7.495
11
20.675
21
8.765
0
LINE
8
Black
10
20.675
20
8.765
11
20.76
21
8.765
0
LINE
8
Black
10
20.76
20
8.765
11
20.76
21
10.2864
0
LINE
8
Black
10
20.76
20
10.2864
11
19.3932
21
11.6532
0
LINE
8
Black
10
19.3932
20
11.6532
11
19.3869
21
11.6622
0
LINE
8
Black
10
19.3869
20
11.6622
11
19.3785
21
11.6693
0
LINE
8
Black
10
19.3785
20
11.6693
11
19.3622
21
11.6976
0
LINE
8
Black
10
19.3622
20
11.6976
11
19.3434
21
11.7243
0
LINE
8
Black
10
19.3434
20
11.7243
11
19.3406
21
11.735
0
LINE
8
Black
10
19.3406
20
11.735
11
19.3351
21
11.7445
0
LINE
8
Black
10
19.3351
20
11.7445
11
19.3294
21
11.7767
0
LINE
8
Black
10
19.3294
20
11.7767
11
19.321
21
11.8082
0
LINE
8
Black
10
19.321
20
11.8082
11
19.3219
21
11.8192
0
LINE
8
Black
10
19.3219
20
11.8192
11
19.32
21
11.83
0
LINE
8
Black
10
19.32
20
11.83
11
19.32
21
12.5823
0
LINE
8
Black
10
19.32
20
12.5823
11
19.062
21
12.6762
0
LINE
8
Black
10
19.062
20
12.6762
11
18.7917
21
12.903
0
LINE
8
Black
10
18.7917
20
12.903
11
18.6153
21
13.2086
0
LINE
8
Black
10
18.6153
20
13.2086
11
18.554
21
13.5561
0
LINE
8
Black
10
18.554
20
13.5561
11
18.554
21
13.5639
0
LINE
8
Black
10
18.554
20
13.5639
11
18.6153
21
13.9114
0
LINE
8
Black
10
18.6153
20
13.9114
11
18.7917
21
14.217
0
LINE
8
Black
10
18.7917
20
14.217
11
19.062
21
14.4438
0
LINE
8
Black
10
19.062
20
14.4438
11
19.3936
21
14.5644
0
LINE
8
Black
10
19.3936
20
14.5644
11
19.7464
21
14.5644
0
LINE
8
Black
10
19.7464
20
14.5644
11
20.078
21
14.4438
0
LINE
8
Black
10
27.408
20
14.3938
11
27.6783
21
14.167
0
LINE
8
Black
10
27.6783
20
14.167
11
27.8547
21
13.8614
0
LINE
8
Black
10
27.8547
20
13.8614
11
27.916
21
13.5139
0
LINE
8
Black
10
27.916
20
13.5139
11
27.916
21
13.5061
0
LINE
8
Black
10
27.916
20
13.5061
11
27.8547
21
13.1586
0
LINE
8
Black
10
27.8547
20
13.1586
11
27.6783
21
12.853
0
LINE
8
Black
10
27.6783
20
12.853
11
27.408
21
12.6262
0
LINE
8
Black
10
27.408
20
12.6262
11
27.0764
21
12.5056
0
LINE
8
Black
10
27.0764
20
12.5056
11
26.7236
21
12.5056
0
LINE
8
Black
10
26.7236
20
12.5056
11
26.392
21
12.6262
0
LINE
8
Black
10
26.392
20
12.6262
11
26.36
21
12.6531
0
LINE
8
Black
10
26.36
20
12.6531
11
26.36
21
8.765
0
LINE
8
Black
10
26.36
20
8.765
11
26.465
21
8.765
0
LINE
8
Black
10
26.465
20
8.765
11
26.465
21
7.495
0
LINE
8
Black
10
26.465
20
7.495
11
26.37
21
7.495
0
LINE
8
Black
10
26.37
20
7.495
11
26.37
21
4.445
0
LINE
8
Black
10
26.37
20
4.445
11
26.465
21
4.445
0
LINE
8
Black
10
26.465
20
4.445
11
26.465
21
3.175
0
LINE
8
Black
10
26.465
20
3.175
11
25.755
21
3.175
0
LINE
8
Black
10
25.755
20
3.175
11
25.755
21
4.445
0
LINE
8
Black
10
25.755
20
4.445
11
25.87
21
4.445
0
LINE
8
Black
10
25.87
20
4.445
11
25.87
21
7.495
0
LINE
8
Black
10
25.87
20
7.495
11
25.755
21
7.495
0
LINE
8
Black
10
25.755
20
7.495
11
25.755
21
8.765
0
LINE
8
Black
10
25.755
20
8.765
11
25.86
21
8.765
0
LINE
8
Black
10
25.86
20
8.765
11
25.86
21
12.83
0
LINE
8
Black
10
25.86
20
12.83
11
25.8619
21
12.8408
0
LINE
8
Black
10
25.8619
20
12.8408
11
25.861
21
12.8518
0
LINE
8
Black
10
25.861
20
12.8518
11
25.8694
21
12.8833
0
LINE
8
Black
10
25.8694
20
12.8833
11
25.8751
21
12.9155
0
LINE
8
Black
10
25.8751
20
12.9155
11
25.8806
21
12.925
0
LINE
8
Black
10
25.8806
20
12.925
11
25.8834
21
12.9357
0
LINE
8
Black
10
25.8834
20
12.9357
11
25.9022
21
12.9624
0
LINE
8
Black
10
25.9022
20
12.9624
11
25.9185
21
12.9907
0
LINE
8
Black
10
25.9185
20
12.9907
11
25.9269
21
12.9978
0
LINE
8
Black
10
25.9269
20
12.9978
11
25.9332
21
13.0068
0
LINE
8
Black
10
25.9332
20
13.0068
11
25.9964
21
13.07
0
LINE
8
Black
10
25.9964
20
13.07
11
25.9453
21
13.1586
0
LINE
8
Black
10
25.9453
20
13.1586
11
25.884
21
13.5061
0
LINE
8
Black
10
25.884
20
13.5061
11
25.884
21
13.5139
0
LINE
8
Black
10
25.884
20
13.5139
11
25.9453
21
13.8614
0
LINE
8
Black
10
25.9453
20
13.8614
11
26.1217
21
14.167
0
LINE
8
Black
10
26.1217
20
14.167
11
26.392
21
14.3938
0
LINE
8
Black
10
26.392
20
14.3938
11
26.7236
21
14.5144
0
LINE
8
Black
10
26.7236
20
14.5144
11
27.0764
21
14.5144
0
LINE
8
Black
10
27.0764
20
14.5144
11
27.408
21
14.3938
0
LINE
8
Black
10
41.7736
20
12.494
11
40.0464
21
12.494
0
LINE
8
Black
10
40.0464
20
12.494
11
40.0464
21
14.526
0
LINE
8
Black
10
40.0464
20
14.526
11
41.7736
21
14.526
0
LINE
8
Black
10
41.7736
20
14.526
11
41.7736
21
12.494
0
LINE
8
Black
10
36.2618
20
14.4142
11
36.4916
21
14.2214
0
LINE
8
Black
10
36.4916
20
14.2214
11
36.6415
21
13.9616
0
LINE
8
Black
10
36.6415
20
13.9616
11
36.6936
21
13.6663
0
LINE
8
Black
10
36.6936
20
13.6663
11
36.6936
21
13.3537
0
LINE
8
Black
10
36.6936
20
13.3537
11
36.6415
21
13.0583
0
LINE
8
Black
10
36.6415
20
13.0583
11
36.4916
21
12.7986
0
LINE
8
Black
10
36.4916
20
12.7986
11
36.2618
21
12.6058
0
LINE
8
Black
10
36.2618
20
12.6058
11
35.98
21
12.5032
0
LINE
8
Black
10
35.98
20
12.5032
11
35.68
21
12.5032
0
LINE
8
Black
10
35.68
20
12.5032
11
35.3982
21
12.6058
0
LINE
8
Black
10
35.3982
20
12.6058
11
35.1684
21
12.7986
0
LINE
8
Black
10
35.1684
20
12.7986
11
35.0185
21
13.0583
0
LINE
8
Black
10
35.0185
20
13.0583
11
34.9664
21
13.3537
0
LINE
8
Black
10
34.9664
20
13.3537
11
34.9664
21
13.6663
0
LINE
8
Black
10
34.9664
20
13.6663
11
35.0185
21
13.9616
0
LINE
8
Black
10
35.0185
20
13.9616
11
35.1684
21
14.2214
0
LINE
8
Black
10
35.1684
20
14.2214
11
35.3982
21
14.4142
0
LINE
8
Black
10
35.3982
20
14.4142
11
35.68
21
14.5168
0
LINE
8
Black
10
35.68
20
14.5168
11
35.98
21
14.5168
0
LINE
8
Black
10
35.98
20
14.5168
11
36.2618
21
14.4142
  0
ENDSEC
  0
EOF
